<svg width="599" height="39" viewBox="0 0 599 39" fill="none" xmlns="http://www.w3.org/2000/svg">
<path d="M595 0H0V39H595V0Z" fill="white"/>
<path d="M599 0H0V39H599V0Z" fill="#222A35"/>
<path d="M1.12997 38.0662C216.882 38.0662 425.981 -6.21883 511.742 36.8679" stroke="#DBC288" stroke-width="1.33333" stroke-miterlimit="8"/>
<path fill-rule="evenodd" clip-rule="evenodd" d="M515.438 7.88881L511.762 18.5216H519.179L515.454 7.88881H515.438ZM557.909 5.05338H559.65C560.007 5.05338 560.32 5.08635 560.587 5.15229C560.855 5.21823 561.089 5.32264 561.29 5.4655C561.491 5.60837 561.658 5.78972 561.792 6.00951C561.926 6.2293 562.044 6.48755 562.144 6.7843L568.242 22.2306H568.325L574.672 6.83374C574.792 6.50403 574.929 6.22381 575.072 5.99303C575.215 5.76226 575.376 5.57815 575.547 5.44078C575.725 5.3034 575.913 5.20449 576.125 5.14404C576.337 5.0836 576.583 5.05338 576.863 5.05338H578.688C578.854 5.05338 579.014 5.07811 579.169 5.12756C579.317 5.17702 579.443 5.25395 579.552 5.35835C579.655 5.46276 579.746 5.59464 579.809 5.75396C579.878 5.91332 579.912 6.10839 579.912 6.33923V25.9563C579.912 26.0442 579.89 26.1211 579.844 26.187C579.798 26.253 579.718 26.3052 579.603 26.3437C579.495 26.3821 579.346 26.4151 579.174 26.4425C578.997 26.4701 578.768 26.4838 578.488 26.4838C578.225 26.4838 578.002 26.4701 577.813 26.4425C577.63 26.4151 577.481 26.3821 577.372 26.3437C577.264 26.3052 577.189 26.253 577.143 26.187C577.098 26.1211 577.075 26.0442 577.075 25.9563V7.37775H577.046L569.528 26.0387C569.495 26.1156 569.448 26.1816 569.388 26.2365C569.327 26.2915 569.239 26.3382 569.124 26.3766C569.008 26.4151 568.871 26.4425 568.712 26.459C568.553 26.4756 568.363 26.4838 568.143 26.4838C567.912 26.4838 567.715 26.4728 567.55 26.4508C567.385 26.4288 567.248 26.3986 567.138 26.3601C567.028 26.3217 566.943 26.2749 566.882 26.22C566.822 26.1651 566.781 26.1046 566.759 26.0387L559.573 7.37775H559.556V25.9563C559.556 26.0442 559.534 26.1211 559.488 26.187C559.443 26.253 559.364 26.3052 559.25 26.3437C559.137 26.3821 558.99 26.4151 558.809 26.4425C558.628 26.4701 558.396 26.4838 558.113 26.4838C557.842 26.4838 557.615 26.4701 557.435 26.4425C557.253 26.4151 557.109 26.3821 557.001 26.3437C556.894 26.3052 556.82 26.253 556.781 26.187C556.741 26.1211 556.721 26.0442 556.721 25.9563V6.33923C556.721 5.87762 556.844 5.54793 557.09 5.35011C557.335 5.15229 557.608 5.05338 557.909 5.05338ZM526.576 4.95447C526.916 4.95447 527.186 4.96271 527.384 4.9792C527.581 4.99568 527.732 5.0259 527.837 5.06986C527.941 5.11382 528.012 5.17427 528.051 5.2512C528.089 5.32813 528.119 5.42704 528.142 5.54793L532.938 23.4176H532.954L537.503 5.5809C537.536 5.46 537.578 5.35835 537.627 5.27593C537.676 5.1935 537.756 5.13031 537.866 5.08635C537.976 5.04239 538.133 5.00942 538.336 4.98744C538.539 4.96546 538.805 4.95447 539.135 4.95447C539.443 4.95447 539.687 4.96546 539.868 4.98744C540.05 5.00942 540.195 5.04239 540.305 5.08635C540.415 5.13031 540.495 5.1935 540.544 5.27593C540.594 5.35835 540.635 5.46 540.668 5.5809L545.563 23.4176H545.596L550.293 5.56441C550.326 5.45452 550.359 5.35835 550.392 5.27593C550.425 5.1935 550.494 5.13031 550.598 5.08635C550.702 5.04239 550.851 5.00942 551.043 4.98744C551.235 4.96546 551.491 4.95447 551.81 4.95447C552.139 4.95447 552.4 4.96821 552.592 4.99568C552.784 5.02316 552.925 5.07536 553.013 5.15229C553.1 5.22921 553.142 5.33912 553.136 5.48199C553.131 5.62485 553.1 5.82268 553.045 6.07543L547.392 25.7584C547.348 25.9123 547.282 26.0359 547.194 26.1294C547.107 26.2227 546.986 26.2942 546.832 26.3437C546.678 26.3931 546.488 26.4288 546.263 26.4508C546.038 26.4728 545.761 26.4838 545.431 26.4838C545.091 26.4838 544.802 26.4728 544.565 26.4508C544.33 26.4288 544.135 26.3931 543.981 26.3437C543.827 26.2942 543.711 26.2227 543.635 26.1294C543.557 26.0359 543.497 25.9123 543.453 25.7584L538.987 9.65268H538.954L534.833 25.7584C534.8 25.9123 534.745 26.0359 534.668 26.1294C534.591 26.2227 534.481 26.2942 534.339 26.3437C534.196 26.3931 534.012 26.4288 533.787 26.4508C533.561 26.4728 533.273 26.4838 532.921 26.4838C532.558 26.4838 532.256 26.4728 532.015 26.4508C531.773 26.4288 531.575 26.3931 531.422 26.3437C531.268 26.2942 531.149 26.2227 531.067 26.1294C530.985 26.0359 530.927 25.9123 530.894 25.7584L525.257 6.05895C525.191 5.8062 525.156 5.60837 525.15 5.4655C525.144 5.32264 525.188 5.21273 525.282 5.13581C525.376 5.05888 525.527 5.00942 525.735 4.98744C525.944 4.96546 526.224 4.95447 526.576 4.95447ZM515.536 4.95447C515.888 4.95447 516.179 4.96271 516.41 4.9792C516.641 4.99568 516.828 5.0259 516.971 5.06986C517.114 5.11382 517.223 5.17702 517.3 5.25944C517.377 5.34186 517.437 5.44352 517.481 5.56441L524.635 25.3793C524.722 25.6211 524.769 25.8161 524.775 25.9645C524.78 26.1129 524.739 26.2255 524.651 26.3025C524.563 26.3794 524.417 26.4288 524.214 26.4508C524.011 26.4728 523.739 26.4838 523.398 26.4838C523.058 26.4838 522.786 26.4756 522.582 26.459C522.379 26.4425 522.225 26.4151 522.121 26.3766C522.017 26.3382 521.94 26.286 521.89 26.22C521.841 26.1541 521.794 26.0716 521.75 25.9727L519.921 20.78H511.054L509.307 25.9068C509.273 26.0057 509.229 26.0909 509.174 26.1623C509.119 26.2337 509.04 26.2942 508.936 26.3437C508.831 26.3931 508.683 26.4288 508.491 26.4508C508.298 26.4728 508.048 26.4838 507.741 26.4838C507.422 26.4838 507.161 26.4701 506.958 26.4425C506.754 26.4151 506.612 26.3629 506.529 26.286C506.447 26.209 506.408 26.0964 506.414 25.948C506.419 25.7996 506.466 25.6046 506.554 25.3628L513.707 5.54793C513.751 5.42704 513.808 5.32813 513.88 5.2512C513.952 5.17427 514.056 5.11382 514.194 5.06986C514.331 5.0259 514.506 4.99568 514.72 4.9792C514.935 4.96271 515.207 4.95447 515.536 4.95447Z" stroke="#DBC288" stroke-miterlimit="10" stroke-linejoin="round"/>
<mask id="mask0_7_2426" style="mask-type:luminance" maskUnits="userSpaceOnUse" x="0" y="2" width="38" height="34">
<path d="M37.1923 2.86108H0.57692V35.4777H37.1923V2.86108Z" fill="white"/>
</mask>
<g mask="url(#mask0_7_2426)">
<mask id="mask1_7_2426" style="mask-type:luminance" maskUnits="userSpaceOnUse" x="0" y="2" width="38" height="34">
<path d="M37.1923 2.86108H0.57692V35.4777H37.1923V2.86108Z" fill="white"/>
</mask>
<g mask="url(#mask1_7_2426)">
<mask id="mask2_7_2426" style="mask-type:luminance" maskUnits="userSpaceOnUse" x="0" y="2" width="38" height="34">
<path d="M37.1923 2.86108H0.57692V35.4777H37.1923V2.86108Z" fill="white"/>
</mask>
<g mask="url(#mask2_7_2426)">
<mask id="mask3_7_2426" style="mask-type:luminance" maskUnits="userSpaceOnUse" x="0" y="2" width="38" height="34">
<path d="M37.1923 2.86108H0.57692V35.4777H37.1923V2.86108Z" fill="white"/>
</mask>
<g mask="url(#mask3_7_2426)">
<mask id="mask4_7_2426" style="mask-type:luminance" maskUnits="userSpaceOnUse" x="1" y="3" width="36" height="32">
<path d="M36.6202 3.43329H1.14903V34.9055H36.6202V3.43329Z" fill="white"/>
</mask>
<g mask="url(#mask4_7_2426)">
<mask id="mask5_7_2426" style="mask-type:luminance" maskUnits="userSpaceOnUse" x="1" y="2" width="36" height="33">
<path d="M36.6202 2.86108H1.14903V34.9055H36.6202V2.86108Z" fill="white"/>
</mask>
<g mask="url(#mask5_7_2426)">
<path d="M16.3718 14.4824V6.2922C18.3436 5.89868 20.4107 5.9341 22.3585 6.38947L16.3718 14.4824ZM22.7799 25.4678C19.1717 25.238 16.3718 22.3211 16.3718 18.7501V16.4204L22.7799 7.75731V25.4678ZM15.2122 17.9885V18.7501C15.2122 22.9564 18.5228 26.3763 22.7799 26.6082V32.7614C21.5974 33.0776 20.3747 33.2375 19.1381 33.2375C14.7712 33.2375 10.6193 31.1815 8.00479 27.7318L15.2122 17.9885ZM15.2122 6.57562V16.0505L7.31231 26.7297C5.9759 24.5941 5.27046 22.1444 5.27046 19.6282C5.27046 13.6114 9.34697 8.27678 15.2122 6.57562ZM33.0057 19.6282C33.0057 25.3227 29.3731 30.4222 23.9401 32.395V26.5902C28.0545 26.2357 31.2539 22.8228 31.2539 18.7501V13.0146C32.4018 15.0322 33.0057 17.3056 33.0057 19.6282ZM30.0943 18.7501C30.0943 22.191 27.4062 25.0967 23.9401 25.4472V6.86173C26.3701 7.74375 28.4927 9.27258 30.0943 11.2955V18.7501ZM31.2193 10.8528L31.1436 10.7554C30.7218 10.2079 30.2578 9.68436 29.7642 9.20061C26.9262 6.41488 23.1526 4.88098 19.1381 4.88098C15.1238 4.88098 11.35 6.41488 8.51192 9.20061C5.67321 11.9855 4.1105 15.6889 4.1105 19.6282C4.1105 23.5673 5.67321 27.2707 8.51192 30.0561C11.3503 32.8416 15.1241 34.3754 19.1381 34.3754C23.1523 34.3754 26.9259 32.8416 29.7642 30.0561C32.6029 27.2707 34.1659 23.5673 34.1659 19.6282C34.1659 16.4319 33.147 13.3975 31.2193 10.8528Z" fill="#DBC288"/>
</g>
</g>
</g>
</g>
</g>
</g>
</svg>
