<svg width="842" height="68" viewBox="0 0 842 68" fill="none" xmlns="http://www.w3.org/2000/svg">
<mask id="mask0_57_766" style="mask-type:luminance" maskUnits="userSpaceOnUse" x="0" y="0" width="842" height="68">
<path d="M842 0H0V67.5H842V0Z" fill="white"/>
</mask>
<g mask="url(#mask0_57_766)">
<path d="M842 0H0V67.5H842V0Z" fill="white"/>
<path d="M849 0H-2V67H842.979L849 0Z" fill="#222A35"/>
<path fill-rule="evenodd" clip-rule="evenodd" d="M724.472 58.3467L1.6875 60.4362C307.089 60.4362 603.075 -16.7848 724.472 58.3467Z" stroke="#DBC288" stroke-width="1.33386" stroke-miterlimit="8"/>
<path fill-rule="evenodd" clip-rule="evenodd" d="M731.016 12.7273L725.898 27.5237H736.225L731.039 12.7273H731.016ZM791.238 8.78162H793.662C794.159 8.78162 794.594 8.82742 794.967 8.91922C795.34 9.01102 795.666 9.15632 795.946 9.35512C796.225 9.55392 796.458 9.80622 796.645 10.1121C796.831 10.418 796.994 10.7774 797.134 11.1903L805.625 32.6852H805.74L814.576 11.2591C814.746 10.8003 814.933 10.4103 815.135 10.0892C815.337 9.76802 815.559 9.51182 815.8 9.32072C816.041 9.12952 816.309 8.99182 816.604 8.90772C816.899 8.82362 817.241 8.78162 817.63 8.78162H820.171C820.404 8.78162 820.626 8.81602 820.835 8.88482C821.046 8.95362 821.225 9.06072 821.372 9.20602C821.52 9.35122 821.641 9.53482 821.734 9.75652C821.827 9.97832 821.874 10.2497 821.874 10.5709V37.8697C821.874 37.992 821.842 38.0991 821.779 38.1908C821.716 38.2826 821.606 38.3552 821.448 38.4088C821.291 38.4623 821.09 38.5082 820.845 38.5464C820.601 38.5846 820.282 38.6038 819.888 38.6038C819.526 38.6038 819.215 38.5846 818.955 38.5464C818.695 38.5082 818.49 38.4623 818.339 38.4088C818.19 38.3552 818.083 38.2826 818.02 38.1908C817.957 38.0991 817.926 37.992 817.926 37.8697V12.0161H817.88L807.415 37.9844C807.369 38.0914 807.304 38.1832 807.22 38.2597C807.136 38.3361 807.014 38.4011 806.853 38.4547C806.693 38.5082 806.501 38.5464 806.279 38.5694C806.058 38.5923 805.794 38.6038 805.488 38.6038C805.166 38.6038 804.891 38.5885 804.662 38.5579C804.432 38.5273 804.241 38.4852 804.088 38.4317C803.935 38.3782 803.816 38.3132 803.732 38.2367C803.648 38.1603 803.59 38.0761 803.56 37.9844L793.554 12.0161H793.531V37.8697C793.531 37.992 793.5 38.0991 793.437 38.1908C793.374 38.2826 793.263 38.3552 793.106 38.4088C792.948 38.4623 792.743 38.5082 792.491 38.5464C792.239 38.5846 791.916 38.6038 791.522 38.6038C791.144 38.6038 790.829 38.5846 790.576 38.5464C790.324 38.5082 790.123 38.4623 789.974 38.4088C789.824 38.3552 789.722 38.2826 789.666 38.1908C789.611 38.0991 789.584 37.992 789.584 37.8697V10.5709C789.584 9.92862 789.755 9.46982 790.096 9.19452C790.438 8.91922 790.819 8.78162 791.238 8.78162ZM746.033 8.64392C746.507 8.64392 746.882 8.65542 747.157 8.67832C747.433 8.70132 747.643 8.74332 747.788 8.80452C747.934 8.86572 748.033 8.94982 748.087 9.05682C748.14 9.16392 748.182 9.30152 748.213 9.46982L754.891 34.3369H754.914L761.248 9.51572C761.294 9.34742 761.351 9.20602 761.42 9.09132C761.489 8.97662 761.6 8.88862 761.753 8.82742C761.906 8.76632 762.124 8.72042 762.407 8.68982C762.69 8.65922 763.061 8.64392 763.52 8.64392C763.949 8.64392 764.289 8.65922 764.541 8.68982C764.794 8.72042 764.997 8.76632 765.15 8.82742C765.303 8.88862 765.414 8.97662 765.482 9.09132C765.551 9.20602 765.609 9.34742 765.655 9.51572L772.47 34.3369H772.516L779.057 9.49272C779.103 9.33982 779.149 9.20602 779.195 9.09132C779.24 8.97662 779.336 8.88862 779.481 8.82742C779.627 8.76632 779.833 8.72042 780.101 8.68982C780.369 8.65922 780.725 8.64392 781.168 8.64392C781.627 8.64392 781.991 8.66302 782.258 8.70132C782.526 8.73952 782.721 8.81222 782.843 8.91922C782.966 9.02632 783.023 9.17922 783.016 9.37802C783.008 9.57682 782.966 9.85212 782.889 10.2039L775.018 37.5944C774.957 37.8085 774.865 37.9806 774.742 38.1105C774.62 38.2405 774.452 38.34 774.238 38.4088C774.023 38.4776 773.759 38.5273 773.446 38.5579C773.132 38.5885 772.746 38.6038 772.287 38.6038C771.813 38.6038 771.411 38.5885 771.082 38.5579C770.753 38.5273 770.481 38.4776 770.267 38.4088C770.053 38.34 769.892 38.2405 769.785 38.1105C769.678 37.9806 769.594 37.8085 769.533 37.5944L763.314 15.1819H763.268L757.53 37.5944C757.485 37.8085 757.408 37.9806 757.301 38.1105C757.194 38.2405 757.041 38.34 756.842 38.4088C756.643 38.4776 756.387 38.5273 756.073 38.5579C755.759 38.5885 755.358 38.6038 754.868 38.6038C754.363 38.6038 753.943 38.5885 753.606 38.5579C753.269 38.5273 752.994 38.4776 752.78 38.4088C752.566 38.34 752.401 38.2405 752.286 38.1105C752.172 37.9806 752.091 37.8085 752.046 37.5944L744.197 10.1809C744.105 9.82922 744.055 9.55392 744.048 9.35512C744.04 9.15632 744.101 9.00332 744.231 8.89632C744.361 8.78922 744.572 8.72042 744.862 8.68982C745.153 8.65922 745.543 8.64392 746.033 8.64392ZM731.153 8.64392C731.643 8.64392 732.048 8.65542 732.37 8.67832C732.691 8.70132 732.951 8.74332 733.15 8.80452C733.349 8.86572 733.502 8.95362 733.609 9.06832C733.716 9.18302 733.8 9.32452 733.861 9.49272L743.821 37.0668C743.944 37.4032 744.009 37.6747 744.016 37.8811C744.024 38.0876 743.967 38.2444 743.844 38.3514C743.722 38.4585 743.519 38.5273 743.236 38.5579C742.953 38.5885 742.574 38.6038 742.1 38.6038C741.626 38.6038 741.247 38.5923 740.964 38.5694C740.681 38.5464 740.467 38.5082 740.322 38.4547C740.176 38.4011 740.069 38.3285 740 38.2367C739.931 38.145 739.866 38.0303 739.805 37.8926L737.258 30.6665H724.911L722.479 37.8009C722.433 37.9385 722.371 38.057 722.295 38.1564C722.218 38.2558 722.107 38.34 721.962 38.4088C721.817 38.4776 721.61 38.5273 721.343 38.5579C721.075 38.5885 720.727 38.6038 720.298 38.6038C719.855 38.6038 719.491 38.5846 719.208 38.5464C718.925 38.5082 718.726 38.4355 718.612 38.3285C718.497 38.2214 718.443 38.0647 718.451 37.8582C718.459 37.6517 718.524 37.3803 718.646 37.0438L728.606 9.46982C728.667 9.30152 728.747 9.16392 728.847 9.05682C728.946 8.94982 729.092 8.86572 729.283 8.80452C729.474 8.74332 729.719 8.70132 730.017 8.67832C730.316 8.65542 730.694 8.64392 731.153 8.64392Z" stroke="#DBC288" stroke-width="0.999804" stroke-miterlimit="10" stroke-linejoin="round"/>
<path fill-rule="evenodd" clip-rule="evenodd" d="M847.622 67.5L-0.499512 67.5C-0.499512 -134.225 -2.48828 257.771 -2.48828 56.0467C580.963 56.0467 600.303 -8.72577 847.622 58.5971C849.297 270.802 845.948 -144.705 847.622 67.5Z" fill="white"/>
<mask id="mask1_57_766" style="mask-type:luminance" maskUnits="userSpaceOnUse" x="2" y="1" width="53" height="49">
<path d="M55 1H2V50H55V1Z" fill="white"/>
</mask>
<g mask="url(#mask1_57_766)">
<mask id="mask2_57_766" style="mask-type:luminance" maskUnits="userSpaceOnUse" x="2" y="1" width="53" height="49">
<path d="M55 1H2V50H55V1Z" fill="white"/>
</mask>
<g mask="url(#mask2_57_766)">
<mask id="mask3_57_766" style="mask-type:luminance" maskUnits="userSpaceOnUse" x="2" y="1" width="53" height="49">
<path d="M55 1H2V50H55V1Z" fill="white"/>
</mask>
<g mask="url(#mask3_57_766)">
<mask id="mask4_57_766" style="mask-type:luminance" maskUnits="userSpaceOnUse" x="2" y="1" width="53" height="49">
<path d="M55 1H2V50H55V1Z" fill="white"/>
</mask>
<g mask="url(#mask4_57_766)">
<mask id="mask5_57_766" style="mask-type:luminance" maskUnits="userSpaceOnUse" x="2" y="2" width="52" height="48">
<path d="M54 2H2V50H54V2Z" fill="white"/>
</mask>
<g mask="url(#mask5_57_766)">
<mask id="mask6_57_766" style="mask-type:luminance" maskUnits="userSpaceOnUse" x="2" y="1" width="52" height="49">
<path d="M54 1H2V50H54V1Z" fill="white"/>
</mask>
<g mask="url(#mask6_57_766)">
<path d="M24.4314 19.0931V7.04467C27.2318 6.46587 30.1674 6.51791 32.9336 7.18779L24.4314 19.0931ZM33.5321 35.2533C28.4078 34.9152 24.4314 30.6242 24.4314 25.3711V21.9439L33.5321 9.19997V35.2533ZM22.7846 24.2507V25.3711C22.7846 31.5588 27.4862 36.5898 33.5321 36.9309V45.9825C31.8527 46.4477 30.1162 46.6829 28.36 46.6829C22.1583 46.6829 16.2619 43.6584 12.5488 38.5836L22.7846 24.2507ZM22.7846 7.46174V21.3998L11.5653 37.1096C9.66745 33.9681 8.66555 30.3643 8.66555 26.6629C8.66555 17.8117 14.4549 9.96413 22.7846 7.46174ZM48.0544 26.6629C48.0544 35.0399 42.8955 42.5415 35.1797 45.4436V36.9044C41.0229 36.3829 45.5665 31.3623 45.5665 25.3711V16.9338C47.1968 19.9019 48.0544 23.2461 48.0544 26.6629ZM43.9196 25.3711C43.9196 30.4328 40.1021 34.7074 35.1797 35.2229V7.88258C38.6306 9.18005 41.6452 11.4291 43.9196 14.4049V25.3711ZM45.5175 13.7536L45.4099 13.6104C44.8109 12.805 44.1519 12.0348 43.4509 11.3232C39.4204 7.2252 34.0613 4.96875 28.36 4.96875C22.659 4.96875 17.2996 7.2252 13.269 11.3232C9.23765 15.4199 7.01825 20.8678 7.01825 26.6629C7.01825 32.4575 9.23765 37.9055 13.269 42.003C17.3 46.1006 22.6595 48.357 28.36 48.357C34.061 48.357 39.42 46.1006 43.4509 42.003C47.4824 37.9055 49.7021 32.4575 49.7021 26.6629C49.7021 21.9609 48.255 17.4971 45.5175 13.7536Z" fill="#DBC288"/>
</g>
</g>
</g>
</g>
</g>
</g>
</g>
</svg>
