<svg width="842" height="71" viewBox="0 0 842 71" fill="none" xmlns="http://www.w3.org/2000/svg">
<mask id="mask0_116_742" style="mask-type:luminance" maskUnits="userSpaceOnUse" x="0" y="0" width="842" height="71">
<path d="M842 0H0V71H842V0Z" fill="white"/>
</mask>
<g mask="url(#mask0_116_742)">
<path d="M842 0H0V63H842V0Z" fill="white"/>
<path d="M848 0H0V64H848V0Z" fill="#222A35"/>
<path d="M1.68774 60.4362C307.089 60.4362 603.075 -16.7848 724.472 58.3467" stroke="#DBC288" stroke-width="1.33386" stroke-miterlimit="8"/>
<path fill-rule="evenodd" clip-rule="evenodd" d="M731.015 12.7273L725.898 27.5237H736.225L731.038 12.7273H731.015ZM791.238 8.78162H793.662C794.159 8.78162 794.594 8.82742 794.967 8.91922C795.34 9.01102 795.666 9.15632 795.945 9.35512C796.225 9.55392 796.458 9.80622 796.644 10.1121C796.831 10.418 796.994 10.7774 797.134 11.1903L805.625 32.6852H805.74L814.575 11.2591C814.746 10.8003 814.933 10.4103 815.135 10.0892C815.337 9.76802 815.559 9.51182 815.8 9.32072C816.041 9.12952 816.309 8.99182 816.604 8.90772C816.899 8.82362 817.241 8.78162 817.63 8.78162H820.171C820.404 8.78162 820.626 8.81602 820.835 8.88482C821.045 8.95362 821.224 9.06072 821.371 9.20602C821.52 9.35122 821.641 9.53482 821.734 9.75652C821.827 9.97832 821.874 10.2497 821.874 10.5709V37.8697C821.874 37.992 821.842 38.0991 821.779 38.1908C821.716 38.2826 821.606 38.3552 821.448 38.4088C821.29 38.4623 821.089 38.5082 820.845 38.5464C820.601 38.5846 820.282 38.6038 819.888 38.6038C819.526 38.6038 819.215 38.5846 818.955 38.5464C818.694 38.5082 818.489 38.4623 818.339 38.4088C818.19 38.3552 818.083 38.2826 818.02 38.1908C817.957 38.0991 817.926 37.992 817.926 37.8697V12.0161H817.88L807.415 37.9844C807.369 38.0914 807.304 38.1832 807.22 38.2597C807.136 38.3361 807.014 38.4011 806.853 38.4547C806.692 38.5082 806.501 38.5464 806.279 38.5694C806.057 38.5923 805.793 38.6038 805.487 38.6038C805.166 38.6038 804.891 38.5885 804.661 38.5579C804.432 38.5273 804.241 38.4852 804.088 38.4317C803.935 38.3782 803.816 38.3132 803.732 38.2367C803.648 38.1603 803.59 38.0761 803.56 37.9844L793.554 12.0161H793.531V37.8697C793.531 37.992 793.499 38.0991 793.436 38.1908C793.373 38.2826 793.263 38.3552 793.105 38.4088C792.948 38.4623 792.743 38.5082 792.491 38.5464C792.239 38.5846 791.916 38.6038 791.522 38.6038C791.144 38.6038 790.828 38.5846 790.576 38.5464C790.324 38.5082 790.123 38.4623 789.974 38.4088C789.824 38.3552 789.721 38.2826 789.666 38.1908C789.611 38.0991 789.584 37.992 789.584 37.8697V10.5709C789.584 9.92862 789.754 9.46982 790.096 9.19452C790.438 8.91922 790.819 8.78162 791.238 8.78162ZM746.033 8.64392C746.507 8.64392 746.882 8.65542 747.157 8.67832C747.433 8.70132 747.643 8.74332 747.788 8.80452C747.934 8.86572 748.033 8.94982 748.087 9.05682C748.14 9.16392 748.182 9.30152 748.213 9.46982L754.891 34.3369H754.914L761.248 9.51572C761.294 9.34742 761.351 9.20602 761.42 9.09132C761.489 8.97662 761.6 8.88862 761.753 8.82742C761.906 8.76632 762.124 8.72042 762.407 8.68982C762.69 8.65922 763.061 8.64392 763.52 8.64392C763.948 8.64392 764.289 8.65922 764.541 8.68982C764.794 8.72042 764.996 8.76632 765.149 8.82742C765.302 8.88862 765.413 8.97662 765.482 9.09132C765.551 9.20602 765.608 9.34742 765.654 9.51572L772.47 34.3369H772.516L779.057 9.49272C779.103 9.33982 779.149 9.20602 779.194 9.09132C779.24 8.97662 779.336 8.88862 779.481 8.82742C779.627 8.76632 779.833 8.72042 780.101 8.68982C780.369 8.65922 780.724 8.64392 781.168 8.64392C781.627 8.64392 781.99 8.66302 782.258 8.70132C782.526 8.73952 782.721 8.81222 782.843 8.91922C782.966 9.02632 783.023 9.17922 783.015 9.37802C783.008 9.57682 782.966 9.85212 782.889 10.2039L775.018 37.5944C774.956 37.8085 774.865 37.9806 774.742 38.1105C774.62 38.2405 774.452 38.34 774.237 38.4088C774.023 38.4776 773.759 38.5273 773.446 38.5579C773.132 38.5885 772.746 38.6038 772.287 38.6038C771.812 38.6038 771.411 38.5885 771.082 38.5579C770.753 38.5273 770.481 38.4776 770.267 38.4088C770.053 38.34 769.892 38.2405 769.785 38.1105C769.678 37.9806 769.594 37.8085 769.533 37.5944L763.313 15.1819H763.268L757.53 37.5944C757.484 37.8085 757.408 37.9806 757.301 38.1105C757.194 38.2405 757.041 38.34 756.842 38.4088C756.643 38.4776 756.387 38.5273 756.073 38.5579C755.759 38.5885 755.358 38.6038 754.868 38.6038C754.363 38.6038 753.942 38.5885 753.606 38.5579C753.269 38.5273 752.994 38.4776 752.78 38.4088C752.565 38.34 752.401 38.2405 752.286 38.1105C752.172 37.9806 752.091 37.8085 752.045 37.5944L744.197 10.1809C744.105 9.82922 744.055 9.55392 744.047 9.35512C744.04 9.15632 744.101 9.00332 744.231 8.89632C744.361 8.78922 744.571 8.72042 744.862 8.68982C745.153 8.65922 745.543 8.64392 746.033 8.64392ZM731.153 8.64392C731.643 8.64392 732.048 8.65542 732.37 8.67832C732.691 8.70132 732.951 8.74332 733.15 8.80452C733.349 8.86572 733.502 8.95362 733.609 9.06832C733.716 9.18302 733.8 9.32452 733.861 9.49272L743.821 37.0668C743.944 37.4032 744.009 37.6747 744.016 37.8811C744.024 38.0876 743.967 38.2444 743.844 38.3514C743.722 38.4585 743.519 38.5273 743.236 38.5579C742.953 38.5885 742.574 38.6038 742.1 38.6038C741.626 38.6038 741.247 38.5923 740.964 38.5694C740.681 38.5464 740.467 38.5082 740.321 38.4547C740.176 38.4011 740.069 38.3285 740 38.2367C739.931 38.145 739.866 38.0303 739.805 37.8926L737.258 30.6665H724.911L722.478 37.8009C722.432 37.9385 722.371 38.057 722.295 38.1564C722.218 38.2558 722.107 38.34 721.962 38.4088C721.817 38.4776 721.61 38.5273 721.342 38.5579C721.075 38.5885 720.727 38.6038 720.298 38.6038C719.854 38.6038 719.491 38.5846 719.208 38.5464C718.925 38.5082 718.726 38.4355 718.611 38.3285C718.497 38.2214 718.443 38.0647 718.451 37.8582C718.458 37.6517 718.523 37.3803 718.646 37.0438L728.606 9.46982C728.667 9.30152 728.747 9.16392 728.847 9.05682C728.946 8.94982 729.092 8.86572 729.283 8.80452C729.474 8.74332 729.719 8.70132 730.017 8.67832C730.315 8.65542 730.694 8.64392 731.153 8.64392Z" stroke="#DBC288" stroke-width="0.999804" stroke-miterlimit="10" stroke-linejoin="round"/>
<path fill-rule="evenodd" clip-rule="evenodd" d="M847.622 66.5L-2.48846 66.5C-2.48846 -135.225 -2.48846 261.731 -2.48846 60.0065C580.963 60.0065 600.303 -4.76601 847.622 62.5569C849.297 274.762 845.948 -145.705 847.622 66.5Z" fill="white"/>
<mask id="mask1_116_742" style="mask-type:luminance" maskUnits="userSpaceOnUse" x="0" y="6" width="53" height="49">
<path d="M53 6H0V55H53V6Z" fill="white"/>
</mask>
<g mask="url(#mask1_116_742)">
<mask id="mask2_116_742" style="mask-type:luminance" maskUnits="userSpaceOnUse" x="0" y="6" width="53" height="49">
<path d="M53 6H0V55H53V6Z" fill="white"/>
</mask>
<g mask="url(#mask2_116_742)">
<mask id="mask3_116_742" style="mask-type:luminance" maskUnits="userSpaceOnUse" x="0" y="6" width="53" height="49">
<path d="M53 6H0V55H53V6Z" fill="white"/>
</mask>
<g mask="url(#mask3_116_742)">
<mask id="mask4_116_742" style="mask-type:luminance" maskUnits="userSpaceOnUse" x="0" y="6" width="53" height="49">
<path d="M53 6H0V55H53V6Z" fill="white"/>
</mask>
<g mask="url(#mask4_116_742)">
<mask id="mask5_116_742" style="mask-type:luminance" maskUnits="userSpaceOnUse" x="0" y="7" width="52" height="48">
<path d="M52 7H0V55H52V7Z" fill="white"/>
</mask>
<g mask="url(#mask5_116_742)">
<mask id="mask6_116_742" style="mask-type:luminance" maskUnits="userSpaceOnUse" x="0" y="6" width="52" height="49">
<path d="M52 6H0V55H52V6Z" fill="white"/>
</mask>
<g mask="url(#mask6_116_742)">
<path d="M22.4314 24.0931V12.0447C25.2317 11.4659 28.1674 11.5179 30.9335 12.1878L22.4314 24.0931ZM31.532 40.2533C26.4078 39.9152 22.4314 35.6242 22.4314 30.3711V26.9439L31.532 14.2V40.2533ZM20.7845 29.2507V30.3711C20.7845 36.5588 25.4861 41.5898 31.532 41.9309V50.9825C29.8527 51.4477 28.1161 51.6829 26.36 51.6829C20.1583 51.6829 14.2618 48.6584 10.5488 43.5836L20.7845 29.2507ZM20.7845 12.4617V26.3998L9.5653 42.1096C7.6674 38.9681 6.6655 35.3643 6.6655 31.6629C6.6655 22.8117 12.4549 14.9641 20.7845 12.4617ZM46.0544 31.6629C46.0544 40.0399 40.8955 47.5415 33.1797 50.4436V41.9044C39.0229 41.3829 43.5665 36.3623 43.5665 30.3711V21.9338C45.1968 24.9019 46.0544 28.2461 46.0544 31.6629ZM41.9196 30.3711C41.9196 35.4328 38.1021 39.7074 33.1797 40.2229V12.8826C36.6306 14.18 39.6452 16.4291 41.9196 19.4049V30.3711ZM43.5175 18.7536L43.4099 18.6104C42.8109 17.805 42.1519 17.0348 41.4509 16.3232C37.4204 12.2252 32.0613 9.96875 26.36 9.96875C20.659 9.96875 15.2996 12.2252 11.269 16.3232C7.2376 20.4199 5.0182 25.8678 5.0182 31.6629C5.0182 37.4575 7.2376 42.9055 11.269 47.003C15.3 51.1006 20.6594 53.357 26.36 53.357C32.0609 53.357 37.42 51.1006 41.4509 47.003C45.4824 42.9055 47.7021 37.4575 47.7021 31.6629C47.7021 26.9609 46.255 22.4971 43.5175 18.7536Z" fill="#DBC288"/>
</g>
</g>
</g>
</g>
</g>
</g>
</g>
</svg>
