<svg width="59" height="53" xmlns="http://www.w3.org/2000/svg" xmlns:xlink="http://www.w3.org/1999/xlink" overflow="hidden"><defs><clipPath id="clip0"><path d="M875 29 934 29 934 82 875 82Z" fill-rule="evenodd" clip-rule="evenodd"/></clipPath><clipPath id="clip1"><path d="M876 30 933 30 933 81 876 81Z" fill-rule="evenodd" clip-rule="evenodd"/></clipPath><clipPath id="clip2"><path d="M876 29 933 29 933 81 876 81Z" fill-rule="evenodd" clip-rule="evenodd"/></clipPath></defs><g clip-path="url(#clip0)" transform="translate(-875 -29)"><g clip-path="url(#clip1)"><g clip-path="url(#clip2)"><path d="M0 0 0-19.8537C-4.69105-20.808-9.60833-20.7222-14.2414-19.6183ZM-15.2446 26.6292C-6.66103 26.0723 0 19.001 0 10.3446L0 4.69776-15.2446-16.3024ZM2.75845 8.49824 2.75845 10.3446C2.75845 20.541-5.11668 28.8317-15.2446 29.3939L-15.2446 44.3092C-12.431 45.0756-9.52253 45.4639-6.5805 45.4639 3.80719 45.4639 13.6839 40.48 19.904 32.1169ZM2.75845-19.1668 2.75845 3.80144 21.5509 29.6882C24.7307 24.5116 26.4088 18.5729 26.4088 12.4737 26.4088-2.11138 16.7113-15.0433 2.75845-19.1668M-39.5702 12.4737C-39.5702 26.2774-30.9287 38.6394-18.004 43.4211L-18.004 29.3498C-27.7916 28.4909-35.4026 20.2179-35.4026 10.3446L-35.4026-3.55843C-38.1337 1.33297-39.5702 6.84365-39.5702 12.4737M-32.6442 10.3446C-32.6442 18.6856-26.2496 25.7305-18.004 26.5794L-18.004-18.4737C-23.785-16.335-28.8341-12.6294-32.6442-7.72558ZM-35.3202-8.79877-35.1399-9.03459C-34.1372-10.3623-33.0329-11.6306-31.859-12.8039-25.1079-19.5565-16.1304-23.275-6.5805-23.275 2.96887-23.275 11.9459-19.5565 18.6971-12.8039 25.4501-6.05278 29.1682 2.92429 29.1682 12.4737 29.1682 22.0226 25.4501 30.9996 18.6971 37.7517 11.9455 44.5043 2.96791 48.2223-6.5805 48.2223-16.1299 48.2223-25.1069 44.5043-31.859 37.7517-38.6116 30.9996-42.3297 22.0226-42.3297 12.4737-42.3297 4.72556-39.9058-2.63-35.3202-8.79877" fill="#DBC288" transform="matrix(-1.01049 -0 -0 1 705.747 -197.919)"/><path d="M0 0-3.08055 0-1.54866-4.25871ZM-3.73673 2.07016 0.673436 2.07016 1.70013 4.89811 4.14079 4.89811-0.673436-7.54105-2.44067-7.54105-7.20457 4.89811-4.76342 4.89811Z" fill="#DBC288" transform="matrix(-1.01049 -0 -0 1 680.467 -129.789)"/><path d="M0 0 0-7.97866-2.30646-7.97866-2.30646-0.201791C-2.30646 1.58222-3.28234 2.44067-4.7639 2.44067-6.24498 2.44067-7.22134 1.53189-7.22134-0.201791L-7.22134-7.97866-9.54458-7.97866-9.54458 0C-9.54458 3.16443-7.40636 4.67954-4.7639 4.67954-2.15452 4.67954 0 3.16443 0 0" fill="#DBC288" transform="matrix(-1.01049 -0 -0 1 691.609 -129.351)"/><path d="M0 0-2.08741 0C-3.58527 0-4.15757-0.892483-4.15757-1.80126-4.15757-2.74359-3.53494-3.56849-2.34001-3.56849L0-3.56849ZM-1.53189 2.07016 0 2.07016 0 6.73292 2.2892 6.73292 2.2892-5.70623-2.34001-5.70623C-5.18474-5.70623-6.51436-3.83787-6.51436-1.81804-6.51436-0.302926-5.72301 1.21171-3.90545 1.80078L-7.03633 6.73292-4.30951 6.73292Z" fill="#DBC288" transform="matrix(-1.01049 -0 -0 1 709.026 -131.624)"/><path d="M0 0 0-7.97866-2.30598-7.97866-2.30598-0.201791C-2.30598 1.58222-3.28234 2.44067-4.76342 2.44067-6.24498 2.44067-7.22087 1.53189-7.22087-0.201791L-7.22087-7.97866-9.5441-7.97866-9.5441 0C-9.5441 3.16443-7.40636 4.67954-4.76342 4.67954-2.15452 4.67954 0 3.16443 0 0" fill="#DBC288" transform="matrix(-1.01049 -0 -0 1 720.644 -129.351)"/><path d="M0 0-1.44753 0-6.43 7.2549-11.3957 0-12.8605 0-12.8605 12.4392-10.5708 12.4392-10.5708 5.06635-6.80051 10.5205-6.04319 10.5205-2.27243 5.06635-2.27243 12.4392 0 12.4392Z" fill="#DBC288" transform="matrix(-1.01049 -0 -0 1 735.748 -137.33)"/><path d="M0 0-0.638926 0-1.50984 2.71483-2.47326 0-2.78769 0-3.77172 2.71483-4.6273 0-5.26574 0-3.97783 3.80719-3.58096 3.80719-2.63814 1.07654-1.70061 3.80719-1.29367 3.80719Z" fill="#DBC288" transform="matrix(-1.01049 -0 -0 1 676.203 -120.834)"/><path d="M0 0-2.43156 0-2.43156 0.561756-0.592432 0.561756-0.592432 1.59707-2.29783 1.59707-2.29783 2.15883-0.592432 2.15883-0.592432 3.24543-2.43683 3.24543-2.43683 3.80719 0 3.80719Z" fill="#DBC288" transform="matrix(-1.01049 -0 -0 1 682.774 -120.834)"/><path d="M0 0-1.03005 0-0.514783-1.3809ZM-1.21075 0.546418 0.190767 0.546418 0.551211 1.48396 1.19014 1.48396-0.324496-2.32371-0.711302-2.32371-2.2106 1.48396-1.57119 1.48396Z" fill="#DBC288" transform="matrix(-1.01049 -0 -0 1 687.506 -118.51)"/><path d="M0 0-0.592432 0-0.592432 3.23537-2.60172 3.23537-2.60172 3.80719 0 3.80719Z" fill="#DBC288" transform="matrix(-1.01049 -0 -0 1 690.994 -120.834)"/><path d="M0 0 0-0.577094-2.82843-0.577094-2.82843 0-1.71594 0-1.71594 3.2301-1.11249 3.2301-1.11249 0Z" fill="#DBC288" transform="matrix(-1.01049 -0 -0 1 693.904 -120.257)"/><path d="M0 0-0.592432 0-0.592432 1.58174-2.40616 1.58174-2.40616 0-2.99859 0-2.99859 3.80719-2.40616 3.80719-2.40616 2.15356-0.592432 2.15356-0.592432 3.80719 0 3.80719Z" fill="#DBC288" transform="matrix(-1.01049 -0 -0 1 698.033 -120.834)"/><path d="M0 0-0.324496 0-1.92157 2.33378-3.50858 0-3.84362 0-3.84362 3.80719-3.24591 3.80719-3.24591 1.37036-2.00401 3.18456-1.82906 3.18456-0.58716 1.37036-0.58716 3.80719 0 3.80719Z" fill="#DBC288" transform="matrix(-1.01049 -0 -0 1 704.744 -120.834)"/><path d="M0 0-2.43156 0-2.43156 0.561756-0.592432 0.561756-0.592432 1.59707-2.29735 1.59707-2.29735 2.15883-0.592432 2.15883-0.592432 3.24543-2.43683 3.24543-2.43683 3.80719 0 3.80719Z" fill="#DBC288" transform="matrix(-1.01049 -0 -0 1 710.288 -120.834)"/><path d="M0 0 0 3.80719 0.350379 3.80719 2.52982 1.22609 2.52982 3.80719 3.11698 3.80719 3.11698 0 2.8083 0 0.587639 2.60172 0.587639 0Z" fill="#DBC288" transform="matrix(-1.01049 -0 -0 1 717.384 -120.834)"/><path d="M0 0-1.03005 0-0.514783-1.3809ZM-1.21027 0.546418 0.190767 0.546418 0.55169 1.48396 1.19014 1.48396-0.324496-2.32371-0.710823-2.32371-2.21012 1.48396-1.57119 1.48396Z" fill="#DBC288" transform="matrix(-1.01049 -0 -0 1 719.836 -118.51)"/><path d="M0 0C0-1.15946-0.896797-1.97334-1.98915-1.97334-2.63766-1.97334-3.2253-1.69006-3.56034-1.29894L-3.15341-0.896797C-2.86486-1.21075-2.45265-1.39672-1.99395-1.39672-1.21075-1.39672-0.60777-0.809082-0.60777 0-0.60777 0.798537-1.2002 1.3857-1.97813 1.3857-2.42677 1.3857-2.85431 1.18966-3.13759 0.891045L-3.13759 0.210898-1.93739 0.210898-1.93739-0.324975-3.6888-0.324975-3.6888 1.16905C-3.22051 1.68958-2.61226 1.95752-1.96327 1.95752-0.82442 1.95752 0 1.12831 0 0" fill="#DBC288" transform="matrix(-1.01049 -0 -0 1 722.95 -118.927)"/><path d="M0 0-2.43156 0-2.43156 0.561756-0.592432 0.561756-0.592432 1.59707-2.29735 1.59707-2.29735 2.15883-0.592432 2.15883-0.592432 3.24543-2.43683 3.24543-2.43683 3.80719 0 3.80719Z" fill="#DBC288" transform="matrix(-1.01049 -0 -0 1 728.14 -120.834)"/><path d="M0 0-0.324496 0-1.92157 2.33378-3.50858 0-3.8441 0-3.8441 3.80719-3.24591 3.80719-3.24591 1.37036-2.00401 3.18456-1.82906 3.18456-0.58716 1.37036-0.58716 3.80719 0 3.80719Z" fill="#DBC288" transform="matrix(-1.01049 -0 -0 1 732.086 -120.834)"/><path d="M0 0-2.43156 0-2.43156 0.561756-0.592432 0.561756-0.592432 1.59707-2.29783 1.59707-2.29783 2.15883-0.592432 2.15883-0.592432 3.24543-2.43683 3.24543-2.43683 3.80719 0 3.80719Z" fill="#DBC288" transform="matrix(-1.01049 -0 -0 1 737.631 -120.834)"/><path d="M0 0 0 3.80719 0.350379 3.80719 2.5303 1.22609 2.5303 3.80719 3.11746 3.80719 3.11746 0 2.8083 0 0.587639 2.60172 0.587639 0Z" fill="#DBC288" transform="matrix(-1.01049 -0 -0 1 744.727 -120.834)"/><path d="M0 0 0-0.577094-2.82843-0.577094-2.82843 0-1.71594 0-1.71594 3.2301-1.11249 3.2301-1.11249 0Z" fill="#DBC288" transform="matrix(-1.01049 -0 -0 1 745.997 -120.257)"/><path d="M0 0 0-19.9649C-4.71693-20.9245-9.66201-20.8382-14.3205-19.7276ZM-15.3294 26.7783C-6.69841 26.218 0 19.1074 0 10.4026L0 4.72412-15.3294-16.3935ZM2.77427 8.54617 2.77427 10.4026C2.77427 20.656-5.14544 28.9927-15.3294 29.5583L-15.3294 44.557C-12.5005 45.3278-9.57574 45.7179-6.61693 45.7179 3.82876 45.7179 13.7606 40.7062 20.0157 32.2967ZM2.77427-19.2742 2.77427 3.82301 21.6717 29.8546C24.8692 24.6492 26.5564 18.6769 26.5564 12.5436 26.5564-2.12336 16.8047-15.1276 2.77427-19.2742M-39.7917 12.5436C-39.7917 26.4246-31.1017 38.8556-18.1042 43.6641L-18.1042 29.5142C-27.9469 28.65-35.6006 20.3311-35.6006 10.4026L-35.6006-3.57808C-38.3466 1.34064-39.7917 6.88199-39.7917 12.5436M-32.8263 10.4026C-32.8263 18.7901-26.3963 25.8743-18.1042 26.7285L-18.1042-18.5768C-23.9178-16.4266-28.9956-12.7004-32.8263-7.76872ZM-35.5176-8.84766-35.3365-9.08492C-34.328-10.4203-33.2174-11.6957-32.0369-12.8753-25.2479-19.6658-16.2205-23.4049-6.61693-23.4049 2.98565-23.4049 12.013-19.6658 18.8021-12.8753 25.593-6.08633 29.3316 2.94107 29.3316 12.5436 29.3316 22.1457 25.593 31.1731 18.8021 37.9626 12.0126 44.7535 2.98517 48.4922-6.61693 48.4922-16.22 48.4922-25.2469 44.7535-32.0369 37.9626-38.8273 31.1731-42.5664 22.1457-42.5664 12.5436-42.5664 4.75192-40.1291-2.64485-35.5176-8.84766" fill="#DBC288" transform="matrix(-1.01049 -0 -0 1 883.989 -185.826)"/><path d="M0 0-3.09733 0-1.55729-4.28267ZM-3.75782 2.08166 0.677271 2.08166 1.70971 4.92543 4.16428 4.92543-0.677271-7.58323-2.45457-7.58323-7.24483 4.92543-4.79026 4.92543Z" fill="#DBC288" transform="matrix(-1.01049 -0 -0 1 943.813 -172.029)"/><path d="M0 0 0-8.02324-2.31892-8.02324-2.31892-0.203229C-2.31892 1.59132-3.30056 2.45457-4.79026 2.45457-6.27997 2.45457-7.26161 1.54004-7.26161-0.203229L-7.26161-8.02324-9.5973-8.02324-9.5973 0C-9.5973 3.18217-7.44806 4.7059-4.79026 4.7059-2.1665 4.7059 0 3.18217 0 0" fill="#DBC288" transform="matrix(-1.01049 -0 -0 1 955.016 -171.589)"/><path d="M0 0-2.09892 0C-3.6054 0-4.18106-0.897276-4.18106-1.81133-4.18106-2.75893-3.55459-3.58862-2.35295-3.58862L0-3.58862ZM-1.54052 2.08214 0 2.08214 0 6.77079 2.30215 6.77079 2.30215-5.73835-2.35295-5.73835C-5.2135-5.73835-6.55078-3.85944-6.55078-1.8281-6.55078-0.304844-5.75512 1.21842-3.92702 1.81085L-7.07563 6.77079-4.33348 6.77079Z" fill="#DBC288" transform="matrix(-1.01049 -0 -0 1 972.531 -173.874)"/><path d="M0 0 0-8.02324-2.31892-8.02324-2.31892-0.203229C-2.31892 1.59132-3.30056 2.45457-4.79026 2.45457-6.27997 2.45457-7.26161 1.54004-7.26161-0.203229L-7.26161-8.02324-9.5973-8.02324-9.5973 0C-9.5973 3.18217-7.44806 4.7059-4.79026 4.7059-2.16698 4.7059 0 3.18217 0 0" fill="#DBC288" transform="matrix(-1.01049 -0 -0 1 984.214 -171.589)"/><path d="M0 0-1.45568 0-6.46595 7.29516-11.4594 0-12.9319 0-12.9319 12.5091-10.6302 12.5091-10.6302 5.09463-6.83837 10.5794-6.07674 10.5794-2.28537 5.09463-2.28537 12.5091 0 12.5091Z" fill="#DBC288" transform="matrix(-1.01049 -0 -0 1 999.403 -179.612)"/><path d="M0 0-0.642281 0-1.51847 2.73017-2.48716 0-2.80303 0-3.79281 2.73017-4.65318 0-5.29546 0-4.00035 3.82876-3.60109 3.82876-2.653 1.08277-1.70971 3.82876-1.30086 3.82876Z" fill="#DBC288" transform="matrix(-1.01049 -0 -0 1 939.525 -163.024)"/><path d="M0 0-2.44546 0-2.44546 0.564632-0.595787 0.564632-0.595787 1.60618-2.31029 1.60618-2.31029 2.17081-0.595787 2.17081-0.595787 3.26413-2.45073 3.26413-2.45073 3.82876 0 3.82876Z" fill="#DBC288" transform="matrix(-1.01049 -0 -0 1 946.132 -163.024)"/><path d="M0 0-1.0358 0-0.517659-1.38857ZM-1.21746 0.549294 0.192205 0.549294 0.554566 1.4921 1.19733 1.4921-0.326413-2.33666-0.715136-2.33666-2.22258 1.4921-1.57982 1.4921Z" fill="#DBC288" transform="matrix(-1.01049 -0 -0 1 950.891 -160.687)"/><path d="M0 0-0.595787 0-0.595787 3.25358-2.61658 3.25358-2.61658 3.82876 0 3.82876Z" fill="#DBC288" transform="matrix(-1.01049 -0 -0 1 954.398 -163.024)"/><path d="M0 0 0-0.57997-2.84425-0.57997-2.84425 0-1.72553 0-1.72553 3.24879-1.11872 3.24879-1.11872 0Z" fill="#DBC288" transform="matrix(-1.01049 -0 -0 1 957.325 -162.444)"/><path d="M0 0-0.595787 0-0.595787 1.59036-2.41958 1.59036-2.41958 0-3.01536 0-3.01536 3.82876-2.41958 3.82876-2.41958 2.16602-0.595787 2.16602-0.595787 3.82876 0 3.82876Z" fill="#DBC288" transform="matrix(-1.01049 -0 -0 1 961.477 -163.024)"/><path d="M0 0-0.326413 0-1.93259 2.34672-3.52823 0-3.86519 0-3.86519 3.82876-3.26413 3.82876-3.26413 1.37803-2.01552 3.20182-1.83913 3.20182-0.590515 1.37803-0.590515 3.82876 0 3.82876Z" fill="#DBC288" transform="matrix(-1.01049 -0 -0 1 968.224 -163.024)"/><path d="M0 0-2.44546 0-2.44546 0.564632-0.595787 0.564632-0.595787 1.60618-2.31029 1.60618-2.31029 2.17081-0.595787 2.17081-0.595787 3.26413-2.45073 3.26413-2.45073 3.82876 0 3.82876Z" fill="#DBC288" transform="matrix(-1.01049 -0 -0 1 973.8 -163.024)"/><path d="M0 0 0 3.82876 0.352296 3.82876 2.5442 1.2328 2.5442 3.82876 3.13471 3.82876 3.13471 0 2.82364 0 0.590994 2.6161 0.590994 0Z" fill="#DBC288" transform="matrix(-1.01049 -0 -0 1 980.936 -163.024)"/><path d="M0 0-1.03628 0-0.517659-1.38857ZM-1.21746 0.549294 0.191726 0.549294 0.554566 1.4921 1.19685 1.4921-0.326413-2.33666-0.715136-2.33666-2.22258 1.4921-1.57982 1.4921Z" fill="#DBC288" transform="matrix(-1.01049 -0 -0 1 983.401 -160.687)"/><path d="M0 0C0-1.16617-0.90159-1.98436-2.00018-1.98436-2.653-1.98436-3.244-1.69917-3.58048-1.30565L-3.17114-0.90159C-2.88068-1.21746-2.46655-1.40439-2.00545-1.40439-1.21794-1.40439-0.611605-0.813396-0.611605 0-0.611605 0.802851-1.20739 1.39337-1.98963 1.39337-2.44067 1.39337-2.87061 1.19685-3.15532 0.896317L-3.15532 0.212336-1.94841 0.212336-1.94841-0.326413-3.70989-0.326413-3.70989 1.17624C-3.23825 1.69917-2.62712 1.96854-1.97429 1.96854-0.829213 1.96854 0 1.13454 0 0" fill="#DBC288" transform="matrix(-1.01049 -0 -0 1 986.532 -161.107)"/><path d="M0 0-2.44546 0-2.44546 0.564632-0.595787 0.564632-0.595787 1.60618-2.31077 1.60618-2.31077 2.17081-0.595787 2.17081-0.595787 3.26413-2.45073 3.26413-2.45073 3.82876 0 3.82876Z" fill="#DBC288" transform="matrix(-1.01049 -0 -0 1 991.752 -163.024)"/><path d="M0 0-0.326413 0-1.93259 2.34672-3.52823 0-3.86519 0-3.86519 3.82876-3.26413 3.82876-3.26413 1.37803-2.01552 3.20182-1.83913 3.20182-0.590515 1.37803-0.590515 3.82876 0 3.82876Z" fill="#DBC288" transform="matrix(-1.01049 -0 -0 1 995.72 -163.024)"/><path d="M0 0-2.44546 0-2.44546 0.564632-0.595787 0.564632-0.595787 1.60618-2.31077 1.60618-2.31077 2.17081-0.595787 2.17081-0.595787 3.26413-2.45073 3.26413-2.45073 3.82876 0 3.82876Z" fill="#DBC288" transform="matrix(-1.01049 -0 -0 1 1001.3 -163.024)"/><path d="M0 0 0 3.82876 0.352296 3.82876 2.5442 1.2328 2.5442 3.82876 3.13471 3.82876 3.13471 0 2.82364 0 0.590515 2.6161 0.590515 0Z" fill="#DBC288" transform="matrix(-1.01049 -0 -0 1 1008.43 -163.024)"/><path d="M0 0 0-0.57997-2.84425-0.57997-2.84425 0-1.72553 0-1.72553 3.24879-1.11872 3.24879-1.11872 0Z" fill="#DBC288" transform="matrix(-1.01049 -0 -0 1 1009.71 -162.444)"/><path d="M0 0 0-19.8537C-4.69105-20.808-9.60833-20.7222-14.2414-19.6183ZM-15.2446 26.6292C-6.66103 26.0723 0 19.001 0 10.3446L0 4.69776-15.2446-16.3024ZM2.75845 8.49824 2.75845 10.3446C2.75845 20.541-5.11716 28.8317-15.2446 29.3939L-15.2446 44.3092C-12.4315 45.0756-9.52253 45.4639-6.5805 45.4639 3.80671 45.4639 13.6839 40.48 19.904 32.1169ZM2.75845-19.1668 2.75845 3.80144 21.5509 29.6882C24.7307 24.5116 26.4088 18.5729 26.4088 12.4737 26.4088-2.11138 16.7108-15.0433 2.75845-19.1668M-39.5707 12.4737C-39.5707 26.2774-30.9287 38.6394-18.0045 43.4211L-18.0045 29.3498C-27.7916 28.4909-35.4026 20.2179-35.4026 10.3446L-35.4026-3.55843C-38.1342 1.33297-39.5707 6.84365-39.5707 12.4737M-32.6442 10.3446C-32.6442 18.6856-26.2501 25.7305-18.0045 26.5794L-18.0045-18.4737C-23.785-16.335-28.8341-12.6294-32.6442-7.72558ZM-35.3202-8.79877-35.1399-9.03459C-34.1372-10.3623-33.0329-11.6306-31.859-12.8039-25.1079-19.5565-16.1304-23.275-6.5805-23.275 2.96887-23.275 11.9459-19.5565 18.6971-12.8039 25.4501-6.05278 29.1682 2.92429 29.1682 12.4737 29.1682 22.0226 25.4501 30.9996 18.6971 37.7517 11.9455 44.5043 2.96791 48.2223-6.5805 48.2223-16.1299 48.2223-25.1069 44.5043-31.859 37.7517-38.6121 30.9996-42.3297 22.0226-42.3297 12.4737-42.3297 4.72556-39.9062-2.63-35.3202-8.79877" fill="#231F20" transform="matrix(-1.01049 -0 -0 1 1149.5 -197.919)"/><path d="M0 0-3.08055 0-1.54866-4.25871ZM-3.73721 2.07016 0.672957 2.07016 1.70013 4.89811 4.14079 4.89811-0.673436-7.54105-2.44115-7.54105-7.20457 4.89811-4.76342 4.89811Z" fill="#231F20" transform="matrix(-1.01049 -0 -0 1 1124.22 -129.789)"/><path d="M0 0 0-7.97866-2.30646-7.97866-2.30646-0.201791C-2.30646 1.58222-3.28282 2.44067-4.7639 2.44067-6.24498 2.44067-7.22134 1.53189-7.22134-0.201791L-7.22134-7.97866-9.54458-7.97866-9.54458 0C-9.54458 3.16443-7.40636 4.67954-4.7639 4.67954-2.155 4.67954 0 3.16443 0 0" fill="#231F20" transform="matrix(-1.01049 -0 -0 1 1135.36 -129.351)"/><path d="M0 0-2.08693 0C-3.58527 0-4.15805-0.892483-4.15805-1.80126-4.15805-2.74359-3.53494-3.56849-2.34001-3.56849L0-3.56849ZM-1.53189 2.07016 0 2.07016 0 6.73292 2.2892 6.73292 2.2892-5.70623-2.34001-5.70623C-5.18426-5.70623-6.51436-3.83787-6.51436-1.81804-6.51436-0.302926-5.72301 1.21171-3.90497 1.80078L-7.03633 6.73292-4.30903 6.73292Z" fill="#231F20" transform="matrix(-1.01049 -0 -0 1 1152.78 -131.624)"/><path d="M0 0 0-7.97866-2.30646-7.97866-2.30646-0.201791C-2.30646 1.58222-3.28234 2.44067-4.76342 2.44067-6.24498 2.44067-7.22087 1.53189-7.22087-0.201791L-7.22087-7.97866-9.5441-7.97866-9.5441 0C-9.5441 3.16443-7.40636 4.67954-4.76342 4.67954-2.15452 4.67954 0 3.16443 0 0" fill="#231F20" transform="matrix(-1.01049 -0 -0 1 1164.4 -129.351)"/><path d="M0 0-1.44753 0-6.43 7.2549-11.3957 0-12.86 0-12.86 12.4392-10.5713 12.4392-10.5713 5.06635-6.80051 10.5205-6.04271 10.5205-2.27243 5.06635-2.27243 12.4392 0 12.4392Z" fill="#231F20" transform="matrix(-1.01049 -0 -0 1 1179.51 -137.33)"/><path d="M0 0-0.638926 0-1.50984 2.71483-2.47326 0-2.78769 0-3.77172 2.71483-4.6273 0-5.26622 0-3.97783 3.80719-3.58143 3.80719-2.63814 1.07654-1.70061 3.80719-1.29367 3.80719Z" fill="#231F20" transform="matrix(-1.01049 -0 -0 1 1119.96 -120.834)"/><path d="M0 0-2.43156 0-2.43156 0.561756-0.592432 0.561756-0.592432 1.59707-2.29783 1.59707-2.29783 2.15883-0.592432 2.15883-0.592432 3.24543-2.43731 3.24543-2.43731 3.80719 0 3.80719Z" fill="#231F20" transform="matrix(-1.01049 -0 -0 1 1126.53 -120.834)"/><path d="M0 0-1.03005 0-0.514783-1.3809ZM-1.21075 0.546418 0.190288 0.546418 0.551211 1.48396 1.19014 1.48396-0.324975-2.32371-0.711302-2.32371-2.2106 1.48396-1.57119 1.48396Z" fill="#231F20" transform="matrix(-1.01049 -0 -0 1 1131.26 -118.51)"/><path d="M0 0-0.592432 0-0.592432 3.23537-2.60172 3.23537-2.60172 3.80719 0 3.80719Z" fill="#231F20" transform="matrix(-1.01049 -0 -0 1 1134.75 -120.834)"/><path d="M0 0 0-0.577094-2.82795-0.577094-2.82795 0-1.71546 0-1.71546 3.2301-1.11249 3.2301-1.11249 0Z" fill="#231F20" transform="matrix(-1.01049 -0 -0 1 1137.66 -120.257)"/><path d="M0 0-0.591953 0-0.591953 1.58174-2.40616 1.58174-2.40616 0-2.99859 0-2.99859 3.80719-2.40616 3.80719-2.40616 2.15356-0.591953 2.15356-0.591953 3.80719 0 3.80719Z" fill="#231F20" transform="matrix(-1.01049 -0 -0 1 1141.79 -120.834)"/><path d="M0 0-0.324496 0-1.92205 2.33378-3.50858 0-3.8441 0-3.8441 3.80719-3.24591 3.80719-3.24591 1.37036-2.00449 3.18456-1.82906 3.18456-0.587639 1.37036-0.587639 3.80719 0 3.80719Z" fill="#231F20" transform="matrix(-1.01049 -0 -0 1 1148.5 -120.834)"/><path d="M0 0-2.43156 0-2.43156 0.561756-0.592432 0.561756-0.592432 1.59707-2.29783 1.59707-2.29783 2.15883-0.592432 2.15883-0.592432 3.24543-2.43731 3.24543-2.43731 3.80719 0 3.80719Z" fill="#231F20" transform="matrix(-1.01049 -0 -0 1 1154.04 -120.834)"/><path d="M0 0 0 3.80719 0.349899 3.80719 2.52982 1.22609 2.52982 3.80719 3.11698 3.80719 3.11698 0 2.80782 0 0.587639 2.60172 0.587639 0Z" fill="#231F20" transform="matrix(-1.01049 -0 -0 1 1161.14 -120.834)"/><path d="M0 0-1.03005 0-0.514783-1.3809ZM-1.21027 0.546418 0.190767 0.546418 0.551211 1.48396 1.19014 1.48396-0.324496-2.32371-0.710823-2.32371-2.2106 1.48396-1.57119 1.48396Z" fill="#231F20" transform="matrix(-1.01049 -0 -0 1 1163.59 -118.51)"/><path d="M0 0C0-1.15946-0.896317-1.97334-1.98867-1.97334-2.63766-1.97334-3.2253-1.69006-3.56034-1.29894L-3.15293-0.896797C-2.86486-1.21075-2.45265-1.39672-1.99347-1.39672-1.21075-1.39672-0.60777-0.809082-0.60777 0-0.60777 0.798537-1.2002 1.3857-1.97861 1.3857-2.42629 1.3857-2.85431 1.18966-3.13807 0.891045L-3.13807 0.210898-1.93739 0.210898-1.93739-0.324975-3.6888-0.324975-3.6888 1.16905C-3.22051 1.68958-2.61226 1.95752-1.96327 1.95752-0.82442 1.95752 0 1.12831 0 0" fill="#231F20" transform="matrix(-1.01049 -0 -0 1 1166.7 -118.927)"/><path d="M0 0-2.43156 0-2.43156 0.561756-0.592432 0.561756-0.592432 1.59707-2.29783 1.59707-2.29783 2.15883-0.592432 2.15883-0.592432 3.24543-2.43683 3.24543-2.43683 3.80719 0 3.80719Z" fill="#231F20" transform="matrix(-1.01049 -0 -0 1 1171.9 -120.834)"/><path d="M0 0-0.324975 0-1.92205 2.33378-3.50858 0-3.8441 0-3.8441 3.80719-3.24591 3.80719-3.24591 1.37036-2.00449 3.18456-1.82906 3.18456-0.587639 1.37036-0.587639 3.80719 0 3.80719Z" fill="#231F20" transform="matrix(-1.01049 -0 -0 1 1175.84 -120.834)"/><path d="M0 0-2.43156 0-2.43156 0.561756-0.592432 0.561756-0.592432 1.59707-2.29783 1.59707-2.29783 2.15883-0.592432 2.15883-0.592432 3.24543-2.43731 3.24543-2.43731 3.80719 0 3.80719Z" fill="#231F20" transform="matrix(-1.01049 -0 -0 1 1181.38 -120.834)"/><path d="M0 0 0 3.80719 0.350379 3.80719 2.5303 1.22609 2.5303 3.80719 3.11746 3.80719 3.11746 0 2.8083 0 0.588118 2.60172 0.588118 0Z" fill="#231F20" transform="matrix(-1.01049 -0 -0 1 1188.48 -120.834)"/><path d="M0 0 0-0.577094-2.82795-0.577094-2.82795 0-1.71546 0-1.71546 3.2301-1.11249 3.2301-1.11249 0Z" fill="#231F20" transform="matrix(-1.01049 -0 -0 1 1189.75 -120.257)"/><path d="M0 0 0-19.9649C-4.71693-20.9245-9.66153-20.8382-14.3205-19.7276ZM-15.3294 26.7783C-6.69841 26.218 0 19.1074 0 10.4026L0 4.72412-15.3294-16.3935ZM2.77427 8.54617 2.77427 10.4026C2.77427 20.656-5.14496 28.9927-15.3294 29.5583L-15.3294 44.557C-12.5 45.3278-9.57574 45.7179-6.61693 45.7179 3.82876 45.7179 13.7606 40.7062 20.0157 32.2967ZM2.77427-19.2742 2.77427 3.82301 21.6722 29.8546C24.8692 24.6492 26.5564 18.6769 26.5564 12.5436 26.5564-2.12336 16.8052-15.1276 2.77427-19.2742M-39.7917 12.5436C-39.7917 26.4246-31.1017 38.8556-18.1042 43.6641L-18.1042 29.5142C-27.9469 28.65-35.6001 20.3311-35.6001 10.4026L-35.6001-3.57808C-38.3466 1.34064-39.7917 6.88199-39.7917 12.5436M-32.8263 10.4026C-32.8263 18.7901-26.3963 25.8743-18.1042 26.7285L-18.1042-18.5768C-23.9173-16.4266-28.9951-12.7004-32.8263-7.76872ZM-35.5176-8.84766-35.3365-9.08492C-34.3275-10.4203-33.2174-11.6957-32.0369-12.8753-25.2479-19.6658-16.2205-23.4049-6.61693-23.4049 2.98565-23.4049 12.013-19.6658 18.8025-12.8753 25.593-6.08633 29.3316 2.94107 29.3316 12.5436 29.3316 22.1457 25.593 31.1731 18.8025 37.9626 12.0126 44.7535 2.98517 48.4922-6.61693 48.4922-16.22 48.4922-25.2469 44.7535-32.0369 37.9626-38.8273 31.1731-42.5664 22.1457-42.5664 12.5436-42.5664 4.75192-40.1291-2.64485-35.5176-8.84766" fill="#231F20" transform="matrix(-1.01049 -0 -0 1 1327.74 -185.826)"/><path d="M0 0-3.09781 0-1.55729-4.28267ZM-3.75782 2.08166 0.676791 2.08166 1.70923 4.92543 4.16428 4.92543-0.677271-7.58323-2.45457-7.58323-7.24483 4.92543-4.79026 4.92543Z" fill="#231F20" transform="matrix(-1.01049 -0 -0 1 1387.57 -172.029)"/><path d="M0 0 0-8.02324-2.3194-8.02324-2.3194-0.203229C-2.3194 1.59132-3.30104 2.45457-4.79026 2.45457-6.28045 2.45457-7.26161 1.54004-7.26161-0.203229L-7.26161-8.02324-9.5973-8.02324-9.5973 0C-9.5973 3.18217-7.44806 4.7059-4.79026 4.7059-2.16698 4.7059 0 3.18217 0 0" fill="#231F20" transform="matrix(-1.01049 -0 -0 1 1398.77 -171.589)"/><path d="M0 0-2.09892 0C-3.60492 0-4.18106-0.897276-4.18106-1.81133-4.18106-2.75893-3.55459-3.58862-2.35247-3.58862L0-3.58862ZM-1.54052 2.08214 0 2.08214 0 6.77079 2.30215 6.77079 2.30215-5.73835-2.35247-5.73835C-5.2135-5.73835-6.55078-3.85944-6.55078-1.8281-6.55078-0.304844-5.75512 1.21842-3.92654 1.81085L-7.07563 6.77079-4.333 6.77079Z" fill="#231F20" transform="matrix(-1.01049 -0 -0 1 1416.29 -173.874)"/><path d="M0 0 0-8.02324-2.3194-8.02324-2.3194-0.203229C-2.3194 1.59132-3.30104 2.45457-4.79026 2.45457-6.27997 2.45457-7.26161 1.54004-7.26161-0.203229L-7.26161-8.02324-9.5973-8.02324-9.5973 0C-9.5973 3.18217-7.44806 4.7059-4.79026 4.7059-2.16698 4.7059 0 3.18217 0 0" fill="#231F20" transform="matrix(-1.01049 -0 -0 1 1427.97 -171.589)"/><path d="M0 0-1.4552 0-6.46547 7.29516-11.4594 0-12.9319 0-12.9319 12.5091-10.6302 12.5091-10.6302 5.09463-6.83837 10.5794-6.07674 10.5794-2.28537 5.09463-2.28537 12.5091 0 12.5091Z" fill="#231F20" transform="matrix(-1.01049 -0 -0 1 1443.16 -179.612)"/><path d="M0 0-0.642281 0-1.51847 2.73017-2.48668 0-2.80303 0-3.79233 2.73017-4.65318 0-5.29546 0-4.00035 3.82876-3.60109 3.82876-2.65252 1.08277-1.70971 3.82876-1.30086 3.82876Z" fill="#231F20" transform="matrix(-1.01049 -0 -0 1 1383.28 -163.024)"/><path d="M0 0-2.44546 0-2.44546 0.564632-0.595787 0.564632-0.595787 1.60618-2.31029 1.60618-2.31029 2.17081-0.595787 2.17081-0.595787 3.26413-2.45025 3.26413-2.45025 3.82876 0 3.82876Z" fill="#231F20" transform="matrix(-1.01049 -0 -0 1 1389.89 -163.024)"/><path d="M0 0-1.0358 0-0.517659-1.38857ZM-1.21698 0.549294 0.192205 0.549294 0.554566 1.4921 1.19733 1.4921-0.326413-2.33666-0.714657-2.33666-2.22258 1.4921-1.57982 1.4921Z" fill="#231F20" transform="matrix(-1.01049 -0 -0 1 1394.65 -160.687)"/><path d="M0 0-0.595787 0-0.595787 3.25358-2.61658 3.25358-2.61658 3.82876 0 3.82876Z" fill="#231F20" transform="matrix(-1.01049 -0 -0 1 1398.15 -163.024)"/><path d="M0 0 0-0.57997-2.84425-0.57997-2.84425 0-1.72553 0-1.72553 3.24879-1.11872 3.24879-1.11872 0Z" fill="#231F20" transform="matrix(-1.01049 -0 -0 1 1401.08 -162.444)"/><path d="M0 0-0.595787 0-0.595787 1.59036-2.42006 1.59036-2.42006 0-3.01536 0-3.01536 3.82876-2.42006 3.82876-2.42006 2.16602-0.595787 2.16602-0.595787 3.82876 0 3.82876Z" fill="#231F20" transform="matrix(-1.01049 -0 -0 1 1405.23 -163.024)"/><path d="M0 0-0.326413 0-1.93259 2.34672-3.52823 0-3.86519 0-3.86519 3.82876-3.26461 3.82876-3.26461 1.37803-2.01552 3.20182-1.83961 3.20182-0.590515 1.37803-0.590515 3.82876 0 3.82876Z" fill="#231F20" transform="matrix(-1.01049 -0 -0 1 1411.98 -163.024)"/><path d="M0 0-2.44546 0-2.44546 0.564632-0.595787 0.564632-0.595787 1.60618-2.31029 1.60618-2.31029 2.17081-0.595787 2.17081-0.595787 3.26413-2.45025 3.26413-2.45025 3.82876 0 3.82876Z" fill="#231F20" transform="matrix(-1.01049 -0 -0 1 1417.56 -163.024)"/><path d="M0 0 0 3.82876 0.352296 3.82876 2.5442 1.2328 2.5442 3.82876 3.13471 3.82876 3.13471 0 2.82412 0 0.590515 2.6161 0.590515 0Z" fill="#231F20" transform="matrix(-1.01049 -0 -0 1 1424.69 -163.024)"/><path d="M0 0-1.0358 0-0.517659-1.38857ZM-1.21698 0.549294 0.191726 0.549294 0.554566 1.4921 1.19685 1.4921-0.326413-2.33666-0.714657-2.33666-2.22258 1.4921-1.57982 1.4921Z" fill="#231F20" transform="matrix(-1.01049 -0 -0 1 1427.16 -160.687)"/><path d="M0 0C0-1.16617-0.90159-1.98436-2.00018-1.98436-2.65252-1.98436-3.244-1.69917-3.58048-1.30565L-3.17114-0.90159C-2.88068-1.21746-2.46655-1.40439-2.00545-1.40439-1.21794-1.40439-0.611125-0.813396-0.611125 0-0.611125 0.802851-1.20739 1.39337-1.98963 1.39337-2.44067 1.39337-2.87013 1.19685-3.15532 0.896317L-3.15532 0.212336-1.94793 0.212336-1.94793-0.326413-3.70941-0.326413-3.70941 1.17624C-3.23872 1.69917-2.62664 1.96854-1.97382 1.96854-0.828734 1.96854 0 1.13454 0 0" fill="#231F20" transform="matrix(-1.01049 -0 -0 1 1430.29 -161.107)"/><path d="M0 0-2.44546 0-2.44546 0.564632-0.595308 0.564632-0.595308 1.60618-2.31029 1.60618-2.31029 2.17081-0.595308 2.17081-0.595308 3.26413-2.45025 3.26413-2.45025 3.82876 0 3.82876Z" fill="#231F20" transform="matrix(-1.01049 -0 -0 1 1435.51 -163.024)"/><path d="M0 0-0.326413 0-1.93211 2.34672-3.52823 0-3.86519 0-3.86519 3.82876-3.26413 3.82876-3.26413 1.37803-2.01504 3.20182-1.83913 3.20182-0.590035 1.37803-0.590035 3.82876 0 3.82876Z" fill="#231F20" transform="matrix(-1.01049 -0 -0 1 1439.48 -163.024)"/><path d="M0 0-2.44546 0-2.44546 0.564632-0.595787 0.564632-0.595787 1.60618-2.31077 1.60618-2.31077 2.17081-0.595787 2.17081-0.595787 3.26413-2.45073 3.26413-2.45073 3.82876 0 3.82876Z" fill="#231F20" transform="matrix(-1.01049 -0 -0 1 1445.05 -163.024)"/><path d="M0 0 0 3.82876 0.352296 3.82876 2.54468 1.2328 2.54468 3.82876 3.13471 3.82876 3.13471 0 2.82412 0 0.590994 2.6161 0.590994 0Z" fill="#231F20" transform="matrix(-1.01049 -0 -0 1 1452.19 -163.024)"/><path d="M0 0 0-0.57997-2.84425-0.57997-2.84425 0-1.72553 0-1.72553 3.24879-1.11872 3.24879-1.11872 0Z" fill="#231F20" transform="matrix(-1.01049 -0 -0 1 1453.47 -162.444)"/><path d="M0 0 0-13.2688C-3.13519-13.9068-6.42137-13.8493-9.51774-13.1112ZM-10.1878 17.7969C-4.45187 17.4245 0 12.6985 0 6.91363L0 3.13951-10.1878-10.8953ZM1.84392 5.67939 1.84392 6.91363C1.84392 13.728-3.41943 19.2684-10.1878 19.6442L-10.1878 29.6125C-8.30795 30.1254-6.36385 30.3842-4.39771 30.3842 2.54468 30.3842 9.14531 27.0534 13.3024 21.4642ZM1.84392-12.8101 1.84392 2.54036 14.4029 19.8412C16.5282 16.3815 17.6498 12.4123 17.6498 8.33671 17.6498-1.4111 11.1685-10.0541 1.84392-12.8101M-26.4457 8.33671C-26.4457 17.5616-20.6704 25.8235-12.0322 29.0191L-12.0322 19.615C-18.5734 19.0412-23.6604 13.5119-23.6604 6.91363L-23.6604-2.37836C-25.4856 0.890565-26.4457 4.57361-26.4457 8.33671M-21.8169 6.91363C-21.8169 12.488-17.5434 17.1959-12.0322 17.7639L-12.0322-12.3467C-15.896-10.9169-19.2703-8.44072-21.8169-5.16317ZM-23.6053-5.8807-23.4849-6.0384C-22.8144-6.92561-22.0767-7.77351-21.2916-8.55767-16.7798-13.0704-10.7803-15.5552-4.39771-15.5552 1.98436-15.5552 7.98393-13.0704 12.4957-8.55767 17.0089-4.04493 19.4937 1.95416 19.4937 8.33671 19.4937 14.7178 17.0089 20.7179 12.4957 25.2301 7.98345 29.7434 1.98388 32.2276-4.39771 32.2276-10.7798 32.2276-16.7793 29.7434-21.2916 25.2301-25.8048 20.7179-28.2896 14.7178-28.2896 8.33671-28.2896 3.1582-26.67-1.75764-23.6053-5.8807" fill="#DBC288" transform="matrix(-1.01049 -0 -0 1 707.997 41.5235)"/><path d="M0 0-2.05865 0-1.03484-2.84617ZM-2.49723 1.38378 0.450076 1.38378 1.13645 3.27371 2.76756 3.27371-0.450076-5.03999-1.63111-5.03999-4.81471 3.27371-3.1836 3.27371Z" fill="#DBC288" transform="matrix(-1.01049 -0 -0 1 691.103 87.0558)"/><path d="M0 0 0-5.33237-1.54099-5.33237-1.54099-0.135167C-1.54099 1.05737-2.19382 1.63063-3.1836 1.63063-4.17387 1.63063-4.82573 1.02381-4.82573-0.135167L-4.82573-5.33237-6.37871-5.33237-6.37871 0C-6.37871 2.11473-4.94988 3.12704-3.1836 3.12704-1.43986 3.12704 0 2.11473 0 0" fill="#DBC288" transform="matrix(-1.01049 -0 -0 1 698.549 87.3484)"/><path d="M0 0-1.3948 0C-2.39609 0-2.77858-0.596267-2.77858-1.20404-2.77858-1.83338-2.36254-2.38507-1.56352-2.38507L0-2.38507ZM-1.02381 1.38378 0 1.38378 0 4.50028 1.52997 4.50028 1.52997-3.81342-1.56352-3.81342C-3.46496-3.81342-4.35361-2.56529-4.35361-1.21506-4.35361-0.20275-3.82493 0.809561-2.60986 1.20356L-4.70255 4.50028-2.87972 4.50028Z" fill="#DBC288" transform="matrix(-1.01049 -0 -0 1 710.19 85.8294)"/><path d="M0 0 0-5.33237-1.54099-5.33237-1.54099-0.135167C-1.54099 1.05737-2.19382 1.63063-3.1836 1.63063-4.17387 1.63063-4.82573 1.02381-4.82573-0.135167L-4.82573-5.33237-6.37871-5.33237-6.37871 0C-6.37871 2.11473-4.94988 3.12704-3.1836 3.12704-1.43986 3.12704 0 2.11473 0 0" fill="#DBC288" transform="matrix(-1.01049 -0 -0 1 717.954 87.3484)"/><path d="M0 0-0.967256 0-4.29705 4.84826-7.61582 0-8.59458 0-8.59458 8.3137-7.06461 8.3137-7.06461 3.38587-4.54486 7.03106-4.0387 7.03106-1.51847 3.38587-1.51847 8.3137 0 8.3137Z" fill="#DBC288" transform="matrix(-1.01049 -0 -0 1 728.049 82.0159)"/><path d="M0 0 0-13.3086C-3.1443-13.948-6.44054-13.8905-9.5465-13.1505ZM-10.2185 17.8506C-4.46481 17.4772 0 12.7373 0 6.93472L0 3.14909-10.2185-10.9279ZM1.84919 5.69713 1.84919 6.93472C1.84919 13.7697-3.42997 19.3269-10.2185 19.7036L-10.2185 29.7021C-8.33287 30.216-6.38302 30.4757-4.41113 30.4757 2.55235 30.4757 9.17311 27.1349 13.3422 21.5293ZM1.84919-12.848 1.84919 2.54803 14.4465 19.9011C16.5776 16.4309 17.7025 12.4502 17.7025 8.36163 17.7025-1.41541 11.202-10.0838 1.84919-12.848M-26.5248 8.36163C-26.5248 17.6148-20.7322 25.9012-12.0686 29.1068L-12.0686 19.6744C-18.6295 19.0983-23.7313 13.5526-23.7313 6.93472L-23.7313-2.38507C-25.5618 0.893441-26.5248 4.58751-26.5248 8.36163M-21.8821 6.93472C-21.8821 12.5259-17.5956 17.2476-12.0686 17.8171L-12.0686-12.3831C-15.9434-10.9499-19.3283-8.46564-21.8821-5.17851ZM-23.6762-5.89796-23.5554-6.05613C-22.8829-6.94574-22.1429-7.79652-21.3558-8.5826-16.8302-13.1092-10.8128-15.6017-4.41113-15.6017 1.99011-15.6017 8.0079-13.1092 12.5336-8.5826 17.0602-4.05739 19.5522 1.96039 19.5522 8.36163 19.5522 14.7624 17.0602 20.7802 12.5336 25.3063 8.00742 29.8325 1.98963 32.3249-4.41113 32.3249-10.8124 32.3249-16.8297 29.8325-21.3558 25.3063-25.8825 20.7802-28.3749 14.7624-28.3749 8.36163-28.3749 3.16779-26.75-1.76292-23.6762-5.89796" fill="#DBC288" transform="matrix(-1.01049 -0 -0 1 900.451 47.884)"/><path d="M0 0-2.06488 0-1.03819-2.85479ZM-2.50489 1.38809 0.451034 1.38809 1.13933 3.28378 2.77571 3.28378-0.451514-5.05485-1.63638-5.05485-4.82957 3.28378-3.19319 3.28378Z" fill="#DBC288" transform="matrix(-1.01049 -0 -0 1 940.33 57.081)"/><path d="M0 0 0-5.34819-1.54579-5.34819-1.54579-0.135646C-1.54579 1.06072-2.20005 1.6359-3.19319 1.6359-4.18585 1.6359-4.84059 1.02669-4.84059-0.135646L-4.84059-5.34819-6.39788-5.34819-6.39788 0C-6.39788 2.12144-4.96473 3.13663-3.19319 3.13663-1.44417 3.13663 0 2.12144 0 0" fill="#DBC288" transform="matrix(-1.01049 -0 -0 1 947.798 57.3744)"/><path d="M0 0-1.39912 0C-2.40328 0-2.78673-0.598184-2.78673-1.20787-2.78673-1.83961-2.36925-2.39226-1.56832-2.39226L0-2.39226ZM-1.02669 1.38761 0 1.38761 0 4.51322 1.53476 4.51322 1.53476-3.82493-1.56832-3.82493C-3.47503-3.82493-4.36655-2.57296-4.36655-1.2189-4.36655-0.203229-3.83643 0.811958-2.61753 1.20739L-4.71645 4.51322-2.88835 4.51322Z" fill="#DBC288" transform="matrix(-1.01049 -0 -0 1 959.473 55.8511)"/><path d="M0 0 0-5.34819-1.54579-5.34819-1.54579-0.135646C-1.54579 1.06072-2.20005 1.6359-3.19319 1.6359-4.18633 1.6359-4.84059 1.02669-4.84059-0.135646L-4.84059-5.34819-6.39788-5.34819-6.39788 0C-6.39788 2.12144-4.96473 3.13663-3.19319 3.13663-1.44417 3.13663 0 2.12144 0 0" fill="#DBC288" transform="matrix(-1.01049 -0 -0 1 967.261 57.3744)"/><path d="M0 0-0.970132 0-4.30999 4.86312-7.63883 0-8.62046 0-8.62046 8.33815-7.0857 8.33815-7.0857 3.39594-4.55828 7.05215-4.05068 7.05215-1.52326 3.39594-1.52326 8.33815 0 8.33815Z" fill="#DBC288" transform="matrix(-1.01049 -0 -0 1 977.386 52.0262)"/><path d="M0 0 0-13.2688C-3.13471-13.9068-6.42089-13.8493-9.51726-13.1112ZM-10.1878 17.7969C-4.45139 17.4245 0 12.6985 0 6.91363L0 3.13951-10.1878-10.8953ZM1.84392 5.67939 1.84392 6.91363C1.84392 13.728-3.41943 19.2684-10.1878 19.6442L-10.1878 29.6125C-8.30747 30.1254-6.36385 30.3842-4.39771 30.3842 2.54516 30.3842 9.14579 27.0534 13.3029 21.4642ZM1.84392-12.8101 1.84392 2.54036 14.4034 19.8412C16.5282 16.3815 17.6498 12.4123 17.6498 8.33671 17.6498-1.4111 11.169-10.0541 1.84392-12.8101M-26.4457 8.33671C-26.4457 17.5616-20.6704 25.8235-12.0322 29.0191L-12.0322 19.615C-18.5734 19.0412-23.6599 13.5119-23.6599 6.91363L-23.6599-2.37836C-25.4851 0.890565-26.4457 4.57361-26.4457 8.33671M-21.8165 6.91363C-21.8165 12.488-17.5434 17.1959-12.0322 17.7639L-12.0322-12.3467C-15.8955-10.9169-19.2703-8.44072-21.8165-5.16317ZM-23.6053-5.8807-23.4845-6.0384C-22.8144-6.92561-22.0767-7.77351-21.2916-8.55767-16.7798-13.0704-10.7803-15.5552-4.39771-15.5552 1.98484-15.5552 7.98393-13.0704 12.4957-8.55767 17.0089-4.04493 19.4942 1.95416 19.4942 8.33671 19.4942 14.7178 17.0089 20.7179 12.4957 25.2301 7.98345 29.7434 1.98436 32.2276-4.39771 32.2276-10.7793 32.2276-16.7793 29.7434-21.2916 25.2301-25.8048 20.7179-28.2896 14.7178-28.2896 8.33671-28.2896 3.1582-26.67-1.75764-23.6053-5.8807" fill="#231F20" transform="matrix(-1.01049 -0 -0 1 1154.39 41.5235)"/><path d="M0 0-2.05865 0-1.03484-2.84617ZM-2.49723 1.38378 0.449597 1.38378 1.13597 3.27371 2.76708 3.27371-0.449597-5.03999-1.63111-5.03999-4.81471 3.27371-3.18408 3.27371Z" fill="#231F20" transform="matrix(-1.01049 -0 -0 1 1137.49 87.0558)"/><path d="M0 0 0-5.33237-1.54147-5.33237-1.54147-0.135167C-1.54147 1.05737-2.19382 1.63063-3.18408 1.63063-4.17387 1.63063-4.82621 1.02381-4.82621-0.135167L-4.82621-5.33237-6.37919-5.33237-6.37919 0C-6.37919 2.11473-4.94988 3.12704-3.18408 3.12704-1.44034 3.12704 0 2.11473 0 0" fill="#231F20" transform="matrix(-1.01049 -0 -0 1 1144.94 87.3484)"/><path d="M0 0-1.3948 0C-2.39609 0-2.77858-0.596267-2.77858-1.20404-2.77858-1.83338-2.36254-2.38507-1.564-2.38507L0-2.38507ZM-1.02381 1.38378 0 1.38378 0 4.50028 1.52997 4.50028 1.52997-3.81342-1.564-3.81342C-3.46496-3.81342-4.35361-2.56529-4.35361-1.21506-4.35361-0.20275-3.82493 0.809561-2.60986 1.20356L-4.70255 4.50028-2.8802 4.50028Z" fill="#231F20" transform="matrix(-1.01049 -0 -0 1 1156.58 85.8294)"/><path d="M0 0 0-5.33237-1.54147-5.33237-1.54147-0.135167C-1.54147 1.05737-2.19382 1.63063-3.18408 1.63063-4.17387 1.63063-4.82621 1.02381-4.82621-0.135167L-4.82621-5.33237-6.37871-5.33237-6.37871 0C-6.37871 2.11473-4.94988 3.12704-3.18408 3.12704-1.44034 3.12704 0 2.11473 0 0" fill="#231F20" transform="matrix(-1.01049 -0 -0 1 1164.34 87.3484)"/><path d="M0 0-0.967256 0-4.29705 4.84826-7.61582 0-8.59458 0-8.59458 8.3137-7.06461 8.3137-7.06461 3.38587-4.54438 7.03106-4.0387 7.03106-1.51847 3.38587-1.51847 8.3137 0 8.3137Z" fill="#231F20" transform="matrix(-1.01049 -0 -0 1 1174.44 82.0159)"/><path d="M0 0 0-13.3086C-3.14478-13.948-6.44102-13.8905-9.54602-13.1505ZM-10.2185 17.8506C-4.46481 17.4772 0 12.7373 0 6.93472L0 3.14909-10.2185-10.9279ZM1.84919 5.69713 1.84919 6.93472C1.84919 13.7697-3.42997 19.3269-10.2185 19.7036L-10.2185 29.7021C-8.33287 30.216-6.38302 30.4757-4.41065 30.4757 2.55187 30.4757 9.17311 27.1349 13.3422 21.5293ZM1.84919-12.848 1.84919 2.54803 14.4465 19.9011C16.5776 16.4309 17.703 12.4502 17.703 8.36163 17.703-1.41541 11.202-10.0838 1.84919-12.848M-26.5252 8.36163C-26.5252 17.6148-20.7327 25.9012-12.0686 29.1068L-12.0686 19.6744C-18.6295 19.0983-23.7313 13.5526-23.7313 6.93472L-23.7313-2.38507C-25.5618 0.893441-26.5252 4.58751-26.5252 8.36163M-21.8821 6.93472C-21.8821 12.5259-17.5961 17.2476-12.0686 17.8171L-12.0686-12.3831C-15.9439-10.9499-19.3283-8.46564-21.8821-5.17851ZM-23.6762-5.89796-23.5554-6.05613C-22.8829-6.94574-22.1429-7.79652-21.3558-8.5826-16.8302-13.1092-10.8128-15.6017-4.41065-15.6017 1.99011-15.6017 8.0079-13.1092 12.5331-8.5826 17.0602-4.05739 19.5522 1.96039 19.5522 8.36163 19.5522 14.7624 17.0602 20.7802 12.5331 25.3063 8.00742 29.8325 1.98963 32.3249-4.41065 32.3249-10.8124 32.3249-16.8297 29.8325-21.3558 25.3063-25.8825 20.7802-28.3749 14.7624-28.3749 8.36163-28.3749 3.16779-26.7505-1.76292-23.6762-5.89796" fill="#231F20" transform="matrix(-1.01049 -0 -0 1 1346.84 47.884)"/><path d="M0 0-2.06536 0-1.03819-2.85479ZM-2.50537 1.38809 0.451034 1.38809 1.13933 3.28378 2.77571 3.28378-0.451514-5.05485-1.63638-5.05485-4.82957 3.28378-3.19319 3.28378Z" fill="#231F20" transform="matrix(-1.01049 -0 -0 1 1386.72 57.081)"/><path d="M0 0 0-5.34819-1.54627-5.34819-1.54627-0.135646C-1.54627 1.06072-2.20053 1.6359-3.19319 1.6359-4.18585 1.6359-4.84059 1.02669-4.84059-0.135646L-4.84059-5.34819-6.39788-5.34819-6.39788 0C-6.39788 2.12144-4.96473 3.13663-3.19319 3.13663-1.44465 3.13663 0 2.12144 0 0" fill="#231F20" transform="matrix(-1.01049 -0 -0 1 1394.19 57.3744)"/><path d="M0 0-1.39912 0C-2.40328 0-2.78673-0.598184-2.78673-1.20787-2.78673-1.83961-2.36925-2.39226-1.56784-2.39226L0-2.39226ZM-1.02669 1.38761 0 1.38761 0 4.51322 1.53476 4.51322 1.53476-3.82493-1.56784-3.82493C-3.47503-3.82493-4.36655-2.57296-4.36655-1.2189-4.36655-0.203229-3.83643 0.811958-2.61753 1.20739L-4.71645 4.51322-2.88835 4.51322Z" fill="#231F20" transform="matrix(-1.01049 -0 -0 1 1405.86 55.8511)"/><path d="M0 0 0-5.34819-1.54627-5.34819-1.54627-0.135646C-1.54627 1.06072-2.20053 1.6359-3.19319 1.6359-4.18585 1.6359-4.84107 1.02669-4.84107-0.135646L-4.84107-5.34819-6.39788-5.34819-6.39788 0C-6.39788 2.12144-4.96473 3.13663-3.19319 3.13663-1.44465 3.13663 0 2.12144 0 0" fill="#231F20" transform="matrix(-1.01049 -0 -0 1 1413.65 57.3744)"/><path d="M0 0-0.970132 0-4.31047 4.86312-7.63931 0-8.62046 0-8.62046 8.33815-7.08618 8.33815-7.08618 3.39594-4.55876 7.05215-4.05068 7.05215-1.52374 3.39594-1.52374 8.33815 0 8.33815Z" fill="#231F20" transform="matrix(-1.01049 -0 -0 1 1423.77 52.0262)"/><text fill="#231F20" font-family="Arial,Arial_MSFontService,sans-serif" font-weight="400" font-size="30" transform="matrix(0.484344 0 0 0.479314 654.707 -319)">V<tspan x="20.7" y="0">E</tspan><tspan x="40.8301" y="0">R</tspan><tspan x="60.96" y="0">S</tspan><tspan x="79.44" y="0">Ã</tspan><tspan x="102.36" y="0">O</tspan><tspan x="129.12" y="0"> </tspan><tspan x="139.26" y="0">P</tspan><tspan x="156.63" y="0">A</tspan><tspan x="179.55" y="0">R</tspan><tspan x="199.68" y="0">A</tspan><tspan x="222.6" y="0"> </tspan><tspan x="232.74" y="0">A</tspan><tspan x="255.66" y="0">P</tspan><tspan x="275.25" y="0">L</tspan><tspan x="292.62" y="0">I</tspan><tspan x="302.76" y="0">C</tspan><tspan x="325.68" y="0">A</tspan><tspan x="348.6" y="0">Ç</tspan><tspan x="371.52" y="0">Õ</tspan><tspan x="398.28" y="0">E</tspan><tspan x="418.41" y="0">S</tspan><tspan x="436.89" y="0"> </tspan><tspan x="447.03" y="0">R</tspan><tspan x="467.16" y="0">E</tspan><tspan x="487.29" y="0">D</tspan><tspan x="511.32" y="0">U</tspan><tspan x="534.24" y="0">Z</tspan><tspan x="553.83" y="0">I</tspan><tspan x="563.97" y="0">D</tspan><tspan x="588" y="0">A</tspan><tspan x="610.92" y="0">S</tspan><tspan x="629.4" y="0"> </tspan><tspan x="639.54" y="0">R</tspan><tspan x="659.67" y="0">G</tspan><tspan x="684.81" y="0">B</tspan></text></g></g></g></svg>