<svg width="842" height="720" xmlns="http://www.w3.org/2000/svg" xmlns:xlink="http://www.w3.org/1999/xlink" overflow="hidden"><defs><clipPath id="clip0"><rect x="0" y="0" width="842" height="720"/></clipPath><clipPath id="clip1"><rect x="0" y="6" width="53" height="49"/></clipPath><clipPath id="clip2"><rect x="0" y="6" width="53" height="49"/></clipPath><clipPath id="clip3"><rect x="0" y="6" width="53" height="49"/></clipPath><clipPath id="clip4"><rect x="0" y="6" width="53" height="49"/></clipPath><clipPath id="clip5"><rect x="0" y="7" width="52" height="48"/></clipPath><clipPath id="clip6"><rect x="0" y="6" width="52" height="49"/></clipPath></defs><g clip-path="url(#clip0)"><rect x="0" y="0" width="842" height="719.715" fill="#FFFFFF"/><rect x="0" y="0" width="848" height="431.829" fill="#222A35"/><path d="M690.567 578.271 0.500061 568.126C1.29181 397.453 0.895935 231.11 1.68774 60.4362 307.089 60.4362 603.075-16.7848 724.472 58.3467 725.348 242.284 689.69 394.334 690.567 578.271Z" stroke="#DBC288" stroke-width="1.33386" stroke-miterlimit="8" fill="none" fill-rule="evenodd"/><path d="M13.3741-25.7388 8.25845-10.9424 18.5815-10.9424 13.397-25.7388ZM73.5726-29.6845 75.9953-29.6845C76.4921-29.6845 76.9269-29.6387 77.2997-29.5469 77.6725-29.4551 77.9986-29.3098 78.278-29.111 78.5575-28.9122 78.7904-28.6599 78.9768-28.354 79.1632-28.0481 79.3263-27.6887 79.4661-27.2758L87.9539-5.78091 88.0686-5.78091 96.9006-27.207C97.0714-27.6658 97.2579-28.0558 97.4599-28.3769 97.662-28.6981 97.8834-28.9543 98.1243-29.1454 98.3652-29.3366 98.6332-29.4743 98.9283-29.5584 99.2234-29.6425 99.5652-29.6845 99.9538-29.6845L102.494-29.6845C102.727-29.6845 102.949-29.6501 103.158-29.5813 103.368-29.5125 103.547-29.4054 103.694-29.2601 103.842-29.1149 103.963-28.9313 104.056-28.7096 104.149-28.4878 104.196-28.2164 104.196-27.8952L104.196-0.596443C104.196-0.474096 104.164-0.367042 104.101-0.275281 104.038-0.183521 103.928-0.110877 103.77-0.0573505 103.613-0.00382328 103.412 0.042057 103.168 0.0802906 102.924 0.118524 102.605 0.137641 102.211 0.137641 101.849 0.137641 101.538 0.118524 101.278 0.0802906 101.018 0.042057 100.813-0.00382328 100.663-0.0573505 100.514-0.110877 100.407-0.183521 100.344-0.275281 100.281-0.367042 100.25-0.474096 100.25-0.596443L100.25-26.45 100.204-26.45 89.7433-0.481743C89.6974-0.374689 89.6324-0.282928 89.5483-0.206461 89.4642-0.129994 89.3418-0.0649971 89.1812-0.0114703 89.0207 0.042057 88.8295 0.0802906 88.6077 0.103231 88.386 0.126171 88.1222 0.137641 87.8163 0.137641 87.4951 0.137641 87.2199 0.122348 86.9905 0.0917605 86.7611 0.0611738 86.5699 0.0191168 86.417-0.0344104 86.264-0.0879372 86.1455-0.152934 86.0614-0.229401 85.9773-0.305869 85.9199-0.389982 85.8893-0.481743L75.8874-26.45 75.8645-26.45 75.8645-0.596443C75.8645-0.474096 75.833-0.367042 75.77-0.275281 75.7071-0.183521 75.5968-0.110877 75.4392-0.0573505 75.2816-0.00382328 75.0768 0.042057 74.8248 0.0802906 74.5728 0.118524 74.25 0.137641 73.8562 0.137641 73.4781 0.137641 73.1631 0.118524 72.9111 0.0802906 72.6591 0.042057 72.4583-0.00382328 72.3086-0.0573505 72.1589-0.110877 72.0565-0.183521 72.0014-0.275281 71.9463-0.367042 71.9188-0.474096 71.9188-0.596443L71.9188-27.8952C71.9188-28.5375 72.0896-28.9963 72.4312-29.2716 72.7728-29.5469 73.1533-29.6845 73.5726-29.6845ZM28.3852-29.8222C28.8593-29.8222 29.234-29.8107 29.5093-29.7878 29.7846-29.7648 29.9949-29.7228 30.1402-29.6616 30.2855-29.6004 30.3849-29.5163 30.4384-29.4093 30.4919-29.3022 30.534-29.1646 30.5646-28.9963L37.2401-4.12922 37.2631-4.12922 43.5946-28.9504C43.6404-29.1187 43.6978-29.2601 43.7666-29.3748 43.8354-29.4895 43.9463-29.5775 44.0992-29.6387 44.2522-29.6998 44.4701-29.7457 44.753-29.7763 45.036-29.8069 45.4068-29.8222 45.8656-29.8222 46.2938-29.8222 46.6341-29.8069 46.8865-29.7763 47.1388-29.7457 47.3414-29.6998 47.4944-29.6387 47.6473-29.5775 47.7582-29.4895 47.827-29.3748 47.8958-29.2601 47.9532-29.1187 47.9991-28.9504L54.8123-4.12922 54.8582-4.12922 61.3961-28.9734C61.442-29.1263 61.4879-29.2601 61.5337-29.3748 61.5796-29.4895 61.6752-29.5775 61.8205-29.6387 61.9658-29.6998 62.1722-29.7457 62.4399-29.7763 62.7075-29.8069 63.0631-29.8222 63.5066-29.8222 63.9654-29.8222 64.3286-29.8031 64.5962-29.7648 64.8639-29.7266 65.0589-29.6539 65.1812-29.5469 65.3036-29.4398 65.3609-29.2869 65.3533-29.0881 65.3456-28.8893 65.3036-28.614 65.2271-28.2622L57.3586-0.871725C57.2975-0.657617 57.2057-0.485566 57.0834-0.355572 56.961-0.225578 56.7928-0.126171 56.5787-0.0573505 56.3646 0.0114703 56.1007 0.0611738 55.7872 0.0917605 55.4737 0.122348 55.0876 0.137641 54.6288 0.137641 54.1547 0.137641 53.7532 0.122348 53.4244 0.0917605 53.0956 0.0611738 52.8241 0.0114703 52.61-0.0573505 52.3959-0.126171 52.2353-0.225578 52.1283-0.355572 52.0212-0.485566 51.9371-0.657617 51.8759-0.871725L45.6592-23.2842 45.6133-23.2842 39.8783-0.871725C39.8324-0.657617 39.7559-0.485566 39.6489-0.355572 39.5418-0.225578 39.3889-0.126171 39.1901-0.0573505 38.9912 0.0114703 38.7351 0.0611738 38.4216 0.0917605 38.108 0.122348 37.7066 0.137641 37.2172 0.137641 36.7125 0.137641 36.2919 0.122348 35.9555 0.0917605 35.619 0.0611738 35.3438 0.0114703 35.1296-0.0573505 34.9155-0.126171 34.7511-0.225578 34.6364-0.355572 34.5217-0.485566 34.4414-0.657617 34.3956-0.871725L26.55-28.2852C26.4583-28.6369 26.4086-28.9122 26.4009-29.111 26.3933-29.3098 26.4545-29.4628 26.5844-29.5698 26.7144-29.6769 26.9247-29.7457 27.2153-29.7763 27.5059-29.8069 27.8959-29.8222 28.3852-29.8222ZM13.5117-29.8222C14.0011-29.8222 14.4064-29.8107 14.7276-29.7878 15.0487-29.7648 15.3087-29.7228 15.5075-29.6616 15.7063-29.6004 15.8593-29.5125 15.9663-29.3978 16.0734-29.2831 16.1575-29.1416 16.2187-28.9734L26.1747-1.39935C26.297-1.06289 26.362-0.791435 26.3697-0.584974 26.3773-0.378512 26.32-0.221755 26.1976-0.114701 26.0753-0.00764656 25.8727 0.0611738 25.5897 0.0917605 25.3068 0.122348 24.9283 0.137641 24.4542 0.137641 23.9801 0.137641 23.6016 0.126171 23.3186 0.103231 23.0357 0.0802906 22.8216 0.042057 22.6763-0.0114703 22.531-0.0649971 22.424-0.137641 22.3552-0.229401 22.2863-0.321162 22.2213-0.435863 22.1602-0.573503L19.6138-7.79965 7.27202-7.79965 4.84037-0.665264C4.79449-0.527623 4.73331-0.409099 4.65685-0.309692 4.58038-0.210285 4.4695-0.126171 4.32422-0.0573505 4.17893 0.0114703 3.97247 0.0611738 3.70483 0.0917605 3.4372 0.122348 3.08927 0.137641 2.66106 0.137641 2.21755 0.137641 1.85433 0.118524 1.5714 0.0802906 1.28847 0.042057 1.08966-0.0305867 0.974957-0.137641 0.860256-0.244695 0.80673-0.401452 0.814377-0.607914 0.822022-0.814375 0.88702-1.08583 1.00937-1.42229L10.9654-28.9963C11.0266-29.1646 11.1068-29.3022 11.2063-29.4093 11.3057-29.5163 11.451-29.6004 11.6421-29.6616 11.8333-29.7228 12.078-29.7648 12.3762-29.7878 12.6744-29.8107 13.0529-29.8222 13.5117-29.8222Z" stroke="#DBC288" stroke-width="0.999604" stroke-linejoin="round" stroke-miterlimit="10" fill="none" fill-rule="evenodd" transform="matrix(1.0004 0 0 1 717.636 38.4661)"/><text fill="#000000" fill-opacity="0" font-family="Arial,Arial_MSFontService,sans-serif" font-size="29.9598" x="0.81366" y="-3.60734">AWM</text><path d="M846.919 719.715-6 718.318C-6 516.593-2.48846 261.731-2.48846 60.0065 580.963 60.0065 600.303-4.76599 847.622 62.5569 849.297 274.762 845.245 507.51 846.919 719.715Z" fill="#FFFFFF" fill-rule="evenodd"/><g clip-path="url(#clip1)"><g clip-path="url(#clip2)"><g clip-path="url(#clip3)"><g clip-path="url(#clip4)"><g clip-path="url(#clip5)"><g clip-path="url(#clip6)"><path d="M0 0 0-17.6817C-4.17786-18.5316-8.55719-18.4552-12.6834-17.4721ZM-13.5769 23.716C-5.93232 23.22 0 16.9223 0 9.21292L0 4.18383-13.5769-14.5189ZM2.45668 7.56855 2.45668 9.21292C2.45668 18.2938-4.55692 25.6776-13.5769 26.1783L-13.5769 39.4618C-11.0711 40.1444-8.48078 40.4902-5.8606 40.4902 3.39069 40.4902 12.1869 36.0515 17.7265 28.6034ZM2.45668-17.07 2.45668 3.38557 19.1933 26.4404C22.0252 21.8301 23.5197 16.5411 23.5197 11.1091 23.5197-1.8804 14.8831-13.3976 2.45668-17.07M-35.2413 11.1091C-35.2413 23.4027-27.5451 34.4123-16.0344 38.6709L-16.0344 26.139C-24.7512 25.374-31.5296 18.0061-31.5296 9.21292L-31.5296-3.16914C-33.9619 1.18715-35.2413 6.09496-35.2413 11.1091M-29.073 9.21292C-29.073 16.6414-23.3779 22.9156-16.0344 23.6717L-16.0344-16.4527C-21.183-14.548-25.6797-11.2478-29.073-6.88041ZM-31.4562-7.8362-31.2956-8.04622C-30.4026-9.22868-29.4192-10.3582-28.3737-11.4032-22.3611-17.417-14.3658-20.7288-5.8606-20.7288 2.64408-20.7288 10.639-17.417 16.6517-11.4032 22.6659-5.39061 25.9772 2.60438 25.9772 11.1091 25.9772 19.6134 22.6659 27.6083 16.6517 33.6217 10.6387 39.6356 2.64323 42.9469-5.8606 42.9469-14.3653 42.9469-22.3602 39.6356-28.3737 33.6217-34.3876 27.6083-37.6989 19.6134-37.6989 11.1091-37.6989 4.20859-35.5402-2.34228-31.4562-7.8362" fill="#DBC288" transform="matrix(-1 0 0 1.01651 -149.172 -198.433)"/><path d="M0 0-2.74354 0-1.37924-3.79281ZM-3.32794 1.84369 0.599763 1.84369 1.51414 4.36226 3.68779 4.36226-0.599763-6.71607-2.17366-6.71607-6.4164 4.36226-4.24231 4.36226Z" fill="#DBC288" transform="matrix(-1 0 0 1.01651 -171.453 -136.755)"/><path d="M0 0 0-7.10581-2.05414-7.10581-2.05414-0.179715C-2.05414 1.40913-2.92326 2.17366-4.24274 2.17366-5.56179 2.17366-6.43134 1.3643-6.43134-0.179715L-6.43134-7.10581-8.50042-7.10581-8.50042 0C-8.50042 2.81825-6.59612 4.16761-4.24274 4.16761-1.91882 4.16761 0 2.81825 0 0" fill="#DBC288" transform="matrix(-1 0 0 1.01651 -161.633 -136.358)"/><path d="M0 0-1.85905 0C-3.19305 0-3.70274-0.794847-3.70274-1.6042-3.70274-2.44345-3.14822-3.1781-2.08402-3.1781L0-3.1781ZM-1.3643 1.84369 0 1.84369 0 5.99635 2.03876 5.99635 2.03876-5.08198-2.08402-5.08198C-4.61754-5.08198-5.8017-3.41801-5.8017-1.61915-5.8017-0.269786-5.09692 1.07915-3.4782 1.60378L-6.26657 5.99635-3.83806 5.99635Z" fill="#DBC288" transform="matrix(-1 0 0 1.01651 -146.282 -138.416)"/><path d="M0 0 0-7.10581-2.05371-7.10581-2.05371-0.179715C-2.05371 1.40913-2.92326 2.17366-4.24231 2.17366-5.56179 2.17366-6.43092 1.3643-6.43092-0.179715L-6.43092-7.10581-8.49999-7.10581-8.49999 0C-8.49999 2.81825-6.59612 4.16761-4.24231 4.16761-1.91882 4.16761 0 2.81825 0 0" fill="#DBC288" transform="matrix(-1 0 0 1.01651 -136.043 -136.358)"/><path d="M0 0-1.28917 0-5.72657 6.46123-10.149 0-11.4536 0-11.4536 11.0784-9.41437 11.0784-9.41437 4.5121-6.05654 9.36957-5.38207 9.36957-2.02383 4.5121-2.02383 11.0784 0 11.0784Z" fill="#DBC288" transform="matrix(-1 0 0 1.01651 -122.731 -143.582)"/><path d="M0 0-0.569028 0-1.34467 2.41783-2.20269 0-2.48272 0-3.3591 2.41783-4.12108 0-4.68968 0-3.54266 3.39069-3.18921 3.39069-2.34953 0.958768-1.51457 3.39069-1.15214 3.39069Z" fill="#DBC288" transform="matrix(-1 0 0 1.01651 -175.211 -128.648)"/><path d="M0 0-2.16555 0-2.16555 0.500301-0.527621 0.500301-0.527621 1.42235-2.04645 1.42235-2.04645 1.92266-0.527621 1.92266-0.527621 2.89038-2.17024 2.89038-2.17024 3.39069 0 3.39069Z" fill="#DBC288" transform="matrix(-1 0 0 1.01651 -169.42 -128.648)"/><path d="M0 0-0.917364 0-0.458467-1.22983ZM-1.0783 0.486641 0.169897 0.486641 0.490909 1.32162 1.05994 1.32162-0.288997-2.0695-0.633487-2.0695-1.96876 1.32162-1.3993 1.32162Z" fill="#DBC288" transform="matrix(-1 0 0 1.01651 -165.249 -126.544)"/><path d="M0 0-0.527621 0-0.527621 2.88143-2.3171 2.88143-2.3171 3.39069 0 3.39069Z" fill="#DBC288" transform="matrix(-1 0 0 1.01651 -162.175 -128.648)"/><path d="M0 0 0-0.513961-2.519-0.513961-2.519 0-1.52822 0-1.52822 2.87673-0.990785 2.87673-0.990785 0Z" fill="#DBC288" transform="matrix(-1 0 0 1.01651 -159.61 -128.125)"/><path d="M0 0-0.527621 0-0.527621 1.4087-2.14293 1.4087-2.14293 0-2.67055 0-2.67055 3.39069-2.14293 3.39069-2.14293 1.91796-0.527621 1.91796-0.527621 3.39069 0 3.39069Z" fill="#DBC288" transform="matrix(-1 0 0 1.01651 -155.971 -128.648)"/><path d="M0 0-0.288997 0-1.71135 2.07847-3.12475 0-3.42313 0-3.42313 3.39069-2.89081 3.39069-2.89081 1.22044-1.78477 2.83617-1.62896 2.83617-0.522926 1.22044-0.522926 3.39069 0 3.39069Z" fill="#DBC288" transform="matrix(-1 0 0 1.01651 -150.056 -128.648)"/><path d="M0 0-2.16555 0-2.16555 0.500301-0.527621 0.500301-0.527621 1.42235-2.04602 1.42235-2.04602 1.92266-0.527621 1.92266-0.527621 2.89038-2.17024 2.89038-2.17024 3.39069 0 3.39069Z" fill="#DBC288" transform="matrix(-1 0 0 1.01651 -145.17 -128.648)"/><path d="M0 0 0 3.39069 0.312048 3.39069 2.25306 1.09196 2.25306 3.39069 2.77599 3.39069 2.77599 0 2.50108 0 0.523352 2.3171 0.523352 0Z" fill="#DBC288" transform="matrix(-1 0 0 1.01651 -138.916 -128.648)"/><path d="M0 0-0.917364 0-0.458467-1.22983ZM-1.07787 0.486641 0.169897 0.486641 0.491336 1.32162 1.05994 1.32162-0.288997-2.0695-0.63306-2.0695-1.96834 1.32162-1.3993 1.32162Z" fill="#DBC288" transform="matrix(-1 0 0 1.01651 -136.755 -126.544)"/><path d="M0 0C0-1.03262-0.798689-1.75746-1.77154-1.75746-2.3491-1.75746-2.87246-1.50517-3.17084-1.15684L-2.80843-0.798689C-2.55145-1.0783-2.18433-1.24392-1.77581-1.24392-1.0783-1.24392-0.541281-0.72057-0.541281 0-0.541281 0.711178-1.0689 1.23411-1.76173 1.23411-2.16128 1.23411-2.54205 1.05951-2.79434 0.793566L-2.79434 0.187826-1.72544 0.187826-1.72544-0.289423-3.28525-0.289423-3.28525 1.04116C-2.86819 1.50474-2.32648 1.74337-1.74849 1.74337-0.73423 1.74337 0 1.00487 0 0" fill="#DBC288" transform="matrix(-1 0 0 1.01651 -134.01 -126.921)"/><path d="M0 0-2.16555 0-2.16555 0.500301-0.527621 0.500301-0.527621 1.42235-2.04602 1.42235-2.04602 1.92266-0.527621 1.92266-0.527621 2.89038-2.17024 2.89038-2.17024 3.39069 0 3.39069Z" fill="#DBC288" transform="matrix(-1 0 0 1.01651 -129.436 -128.648)"/><path d="M0 0-0.288997 0-1.71135 2.07847-3.12475 0-3.42356 0-3.42356 3.39069-2.89081 3.39069-2.89081 1.22044-1.78477 2.83617-1.62896 2.83617-0.522926 1.22044-0.522926 3.39069 0 3.39069Z" fill="#DBC288" transform="matrix(-1 0 0 1.01651 -125.958 -128.648)"/><path d="M0 0-2.16555 0-2.16555 0.500301-0.527621 0.500301-0.527621 1.42235-2.04645 1.42235-2.04645 1.92266-0.527621 1.92266-0.527621 2.89038-2.17024 2.89038-2.17024 3.39069 0 3.39069Z" fill="#DBC288" transform="matrix(-1 0 0 1.01651 -121.071 -128.648)"/><path d="M0 0 0 3.39069 0.312048 3.39069 2.25349 1.09196 2.25349 3.39069 2.77641 3.39069 2.77641 0 2.50108 0 0.523352 2.3171 0.523352 0Z" fill="#DBC288" transform="matrix(-1 0 0 1.01651 -114.817 -128.648)"/><path d="M0 0 0-0.513961-2.519-0.513961-2.519 0-1.52822 0-1.52822 2.87673-0.990785 2.87673-0.990785 0Z" fill="#DBC288" transform="matrix(-1 0 0 1.01651 -113.698 -128.125)"/><path d="M0 0 0-17.7808C-4.2009-18.6354-8.605-18.5585-12.7539-17.5694ZM-13.6524 23.8488C-5.96561 23.3498 0 17.0171 0 9.26457L0 4.20731-13.6524-14.6001ZM2.47077 7.61123 2.47077 9.26457C2.47077 18.3963-4.58254 25.8209-13.6524 26.3247L-13.6524 39.6825C-11.133 40.369-8.52817 40.7164-5.89305 40.7164 3.4099 40.7164 12.2552 36.253 17.826 28.7635ZM2.47077-17.1656 2.47077 3.40478 19.3008 26.5886C22.1485 21.9526 23.6512 16.6337 23.6512 11.1713 23.6512-1.89107 14.9663-13.4727 2.47077-17.1656M-35.4385 11.1713C-35.4385 23.5338-27.6992 34.6049-16.1236 38.8873L-16.1236 26.2854C-24.8896 25.5157-31.7059 18.1069-31.7059 9.26457L-31.7059-3.18664C-34.1515 1.19398-35.4385 6.12911-35.4385 11.1713M-29.2352 9.26457C-29.2352 16.7345-23.5086 23.0437-16.1236 23.8044L-16.1236-16.5445C-21.3012-14.6296-25.8235-11.311-29.2352-6.91883ZM-31.632-7.87974-31.4707-8.09104C-30.5726-9.28033-29.5835-10.4162-28.5321-11.4668-22.4858-17.5144-14.446-20.8444-5.89305-20.8444 2.65902-20.8444 10.6988-17.5144 16.7452-11.4668 22.7932-5.42049 26.1228 2.61932 26.1228 11.1713 26.1228 19.723 22.7932 27.7628 16.7452 33.8096 10.6984 39.8575 2.6586 43.1872-5.89305 43.1872-14.4456 43.1872-22.4849 39.8575-28.5321 33.8096-34.5797 27.7628-37.9097 19.723-37.9097 11.1713-37.9097 4.23207-35.739-2.35551-31.632-7.87974" fill="#DBC288" transform="matrix(-1 0 0 1.01651 7.92251 -187.485)"/><path d="M0 0-2.75849 0-1.38692-3.81415ZM-3.34672 1.85393 0.603179 1.85393 1.52267 4.3866 3.70871 4.3866-0.603179-6.75364-2.18604-6.75364-6.45226 4.3866-4.26621 4.3866Z" fill="#DBC288" transform="matrix(-1 0 0 1.01651 60.6488 -174.995)"/><path d="M0 0 0-7.14551-2.06523-7.14551-2.06523-0.180996C-2.06523 1.41723-2.93948 2.18604-4.26621 2.18604-5.59295 2.18604-6.4672 1.37156-6.4672-0.180996L-6.4672-7.14551-8.54737-7.14551-8.54737 0C-8.54737 2.83405-6.63325 4.19108-4.26621 4.19108-1.92949 4.19108 0 2.83405 0 0" fill="#DBC288" transform="matrix(-1 0 0 1.01651 70.5226 -174.596)"/><path d="M0 0-1.8693 0C-3.21097 0-3.72366-0.799115-3.72366-1.61317-3.72366-2.45711-3.16572-3.19603-2.09554-3.19603L0-3.19603ZM-1.37199 1.85436 0 1.85436 0 6.03008 2.0503 6.03008 2.0503-5.11058-2.09554-5.11058C-4.64315-5.11058-5.83413-3.43722-5.83413-1.62811-5.83413-0.271495-5.12552 1.08513-3.49741 1.61275L-6.30157 6.03008-3.8594 6.03008Z" fill="#DBC288" transform="matrix(-1 0 0 1.01651 85.9595 -176.665)"/><path d="M0 0 0-7.14551-2.06523-7.14551-2.06523-0.180996C-2.06523 1.41723-2.93948 2.18604-4.26621 2.18604-5.59295 2.18604-6.4672 1.37156-6.4672-0.180996L-6.4672-7.14551-8.54737-7.14551-8.54737 0C-8.54737 2.83405-6.63325 4.19108-4.26621 4.19108-1.92992 4.19108 0 2.83405 0 0" fill="#DBC288" transform="matrix(-1 0 0 1.01651 96.2564 -174.596)"/><path d="M0 0-1.29643 0-5.75858 6.49708-10.2058 0-11.5172 0-11.5172 11.1406-9.46727 11.1406-9.46727 4.53728-6.09026 9.42203-5.41195 9.42203-2.03535 4.53728-2.03535 11.1406 0 11.1406Z" fill="#DBC288" transform="matrix(-1 0 0 1.01651 109.643 -181.86)"/><path d="M0 0-0.572016 0-1.35235 2.43149-2.21507 0-2.49638 0-3.37788 2.43149-4.14413 0-4.71615 0-3.56272 3.4099-3.20714 3.4099-2.36277 0.964317-1.52267 3.4099-1.15855 3.4099Z" fill="#DBC288" transform="matrix(-1 0 0 1.01651 56.8695 -166.842)"/><path d="M0 0-2.17793 0-2.17793 0.502862-0.530609 0.502862-0.530609 1.43047-2.05755 1.43047-2.05755 1.93333-0.530609 1.93333-0.530609 2.90704-2.18262 2.90704-2.18262 3.4099 0 3.4099Z" fill="#DBC288" transform="matrix(-1 0 0 1.01651 62.6926 -166.842)"/><path d="M0 0-0.922485 0-0.461028-1.23666ZM-1.08427 0.489202 0.171178 0.489202 0.493897 1.32887 1.06634 1.32887-0.290704-2.08103-0.636901-2.08103-1.97943 1.32887-1.40699 1.32887Z" fill="#DBC288" transform="matrix(-1 0 0 1.01651 66.887 -164.727)"/><path d="M0 0-0.530609 0-0.530609 2.89764-2.33033 2.89764-2.33033 3.4099 0 3.4099Z" fill="#DBC288" transform="matrix(-1 0 0 1.01651 69.9779 -166.842)"/><path d="M0 0 0-0.516522-2.53309-0.516522-2.53309 0-1.53676 0-1.53676 2.89338-0.996334 2.89338-0.996334 0Z" fill="#DBC288" transform="matrix(-1 0 0 1.01651 72.5576 -166.317)"/><path d="M0 0-0.530609 0-0.530609 1.41638-2.15488 1.41638-2.15488 0-2.68548 0-2.68548 3.4099-2.15488 3.4099-2.15488 1.92906-0.530609 1.92906-0.530609 3.4099 0 3.4099Z" fill="#DBC288" transform="matrix(-1 0 0 1.01651 76.217 -166.842)"/><path d="M0 0-0.290704 0-1.72117 2.08999-3.14225 0-3.44234 0-3.44234 3.4099-2.90704 3.4099-2.90704 1.22728-1.79503 2.85155-1.63793 2.85155-0.525914 1.22728-0.525914 3.4099 0 3.4099Z" fill="#DBC288" transform="matrix(-1 0 0 1.01651 82.1635 -166.842)"/><path d="M0 0-2.17793 0-2.17793 0.502862-0.530609 0.502862-0.530609 1.43047-2.05755 1.43047-2.05755 1.93333-0.530609 1.93333-0.530609 2.90704-2.18262 2.90704-2.18262 3.4099 0 3.4099Z" fill="#DBC288" transform="matrix(-1 0 0 1.01651 87.078 -166.842)"/><path d="M0 0 0 3.4099 0.313755 3.4099 2.26587 1.09793 2.26587 3.4099 2.79178 3.4099 2.79178 0 2.51474 0 0.52634 2.3299 0.52634 0Z" fill="#DBC288" transform="matrix(-1 0 0 1.01651 93.3673 -166.842)"/><path d="M0 0-0.922913 0-0.461028-1.23666ZM-1.08427 0.489202 0.170751 0.489202 0.493897 1.32887 1.06592 1.32887-0.290704-2.08103-0.636901-2.08103-1.97943 1.32887-1.40699 1.32887Z" fill="#DBC288" transform="matrix(-1 0 0 1.01651 95.5399 -164.727)"/><path d="M0 0C0-1.03859-0.802957-1.76727-1.78136-1.76727-2.36277-1.76727-2.88911-1.51328-3.18878-1.16281L-2.82422-0.802957C-2.56554-1.08427-2.19671-1.25075-1.78606-1.25075-1.0847-1.25075-0.544696-0.724412-0.544696 0-0.544696 0.71502-1.0753 1.24094-1.77197 1.24094-2.17366 1.24094-2.55657 1.06592-2.81013 0.798261L-2.81013 0.189107-1.73526 0.189107-1.73526-0.290704-3.30403-0.290704-3.30403 1.04756C-2.88399 1.51328-2.33972 1.75318-1.75831 1.75318-0.738498 1.75318 0 1.01042 0 0" fill="#DBC288" transform="matrix(-1 0 0 1.01651 98.2994 -165.107)"/><path d="M0 0-2.17793 0-2.17793 0.502862-0.530609 0.502862-0.530609 1.43047-2.05798 1.43047-2.05798 1.93333-0.530609 1.93333-0.530609 2.90704-2.18262 2.90704-2.18262 3.4099 0 3.4099Z" fill="#DBC288" transform="matrix(-1 0 0 1.01651 102.9 -166.842)"/><path d="M0 0-0.290704 0-1.72117 2.08999-3.14225 0-3.44234 0-3.44234 3.4099-2.90704 3.4099-2.90704 1.22728-1.79503 2.85155-1.63793 2.85155-0.525914 1.22728-0.525914 3.4099 0 3.4099Z" fill="#DBC288" transform="matrix(-1 0 0 1.01651 106.397 -166.842)"/><path d="M0 0-2.17793 0-2.17793 0.502862-0.530609 0.502862-0.530609 1.43047-2.05798 1.43047-2.05798 1.93333-0.530609 1.93333-0.530609 2.90704-2.18262 2.90704-2.18262 3.4099 0 3.4099Z" fill="#DBC288" transform="matrix(-1 0 0 1.01651 111.315 -166.842)"/><path d="M0 0 0 3.4099 0.313755 3.4099 2.26587 1.09793 2.26587 3.4099 2.79178 3.4099 2.79178 0 2.51474 0 0.525914 2.3299 0.525914 0Z" fill="#DBC288" transform="matrix(-1 0 0 1.01651 117.599 -166.842)"/><path d="M0 0 0-0.516522-2.53309-0.516522-2.53309 0-1.53676 0-1.53676 2.89338-0.996334 2.89338-0.996334 0Z" fill="#DBC288" transform="matrix(-1 0 0 1.01651 118.727 -166.317)"/><path d="M0 0 0-17.6817C-4.17786-18.5316-8.55719-18.4552-12.6834-17.4721ZM-13.5769 23.716C-5.93232 23.22 0 16.9223 0 9.21292L0 4.18383-13.5769-14.5189ZM2.45668 7.56855 2.45668 9.21292C2.45668 18.2938-4.55735 25.6776-13.5769 26.1783L-13.5769 39.4618C-11.0715 40.1444-8.48078 40.4902-5.8606 40.4902 3.39026 40.4902 12.1869 36.0515 17.7265 28.6034ZM2.45668-17.07 2.45668 3.38557 19.1933 26.4404C22.0252 21.8301 23.5197 16.5411 23.5197 11.1091 23.5197-1.8804 14.8827-13.3976 2.45668-17.07M-35.2417 11.1091C-35.2417 23.4027-27.5451 34.4123-16.0348 38.6709L-16.0348 26.139C-24.7512 25.374-31.5296 18.0061-31.5296 9.21292L-31.5296-3.16914C-33.9624 1.18715-35.2417 6.09496-35.2417 11.1091M-29.073 9.21292C-29.073 16.6414-23.3784 22.9156-16.0348 23.6717L-16.0348-16.4527C-21.183-14.548-25.6797-11.2478-29.073-6.88041ZM-31.4562-7.8362-31.2956-8.04622C-30.4026-9.22868-29.4192-10.3582-28.3737-11.4032-22.3611-17.417-14.3658-20.7288-5.8606-20.7288 2.64408-20.7288 10.639-17.417 16.6517-11.4032 22.6659-5.39061 25.9772 2.60438 25.9772 11.1091 25.9772 19.6134 22.6659 27.6083 16.6517 33.6217 10.6387 39.6356 2.64323 42.9469-5.8606 42.9469-14.3653 42.9469-22.3602 39.6356-28.3737 33.6217-34.388 27.6083-37.6989 19.6134-37.6989 11.1091-37.6989 4.20859-35.5405-2.34228-31.4562-7.8362" fill="#231F20" transform="matrix(-1 0 0 1.01651 241.932 -198.433)"/><path d="M0 0-2.74354 0-1.37924-3.79281ZM-3.32836 1.84369 0.599337 1.84369 1.51414 4.36226 3.68779 4.36226-0.599763-6.71607-2.17409-6.71607-6.4164 4.36226-4.24231 4.36226Z" fill="#231F20" transform="matrix(-1 0 0 1.01651 219.652 -136.755)"/><path d="M0 0 0-7.10581-2.05414-7.10581-2.05414-0.179715C-2.05414 1.40913-2.92368 2.17366-4.24274 2.17366-5.56179 2.17366-6.43134 1.3643-6.43134-0.179715L-6.43134-7.10581-8.50042-7.10581-8.50042 0C-8.50042 2.81825-6.59612 4.16761-4.24274 4.16761-1.91925 4.16761 0 2.81825 0 0" fill="#231F20" transform="matrix(-1 0 0 1.01651 229.47 -136.358)"/><path d="M0 0-1.85862 0C-3.19305 0-3.70317-0.794847-3.70317-1.6042-3.70317-2.44345-3.14822-3.1781-2.08402-3.1781L0-3.1781ZM-1.3643 1.84369 0 1.84369 0 5.99635 2.03876 5.99635 2.03876-5.08198-2.08402-5.08198C-4.61711-5.08198-5.8017-3.41801-5.8017-1.61915-5.8017-0.269786-5.09692 1.07915-3.47777 1.60378L-6.26657 5.99635-3.83763 5.99635Z" fill="#231F20" transform="matrix(-1 0 0 1.01651 244.823 -138.416)"/><path d="M0 0 0-7.10581-2.05414-7.10581-2.05414-0.179715C-2.05414 1.40913-2.92326 2.17366-4.24231 2.17366-5.56179 2.17366-6.43092 1.3643-6.43092-0.179715L-6.43092-7.10581-8.49999-7.10581-8.49999 0C-8.49999 2.81825-6.59612 4.16761-4.24231 4.16761-1.91882 4.16761 0 2.81825 0 0" fill="#231F20" transform="matrix(-1 0 0 1.01651 255.064 -136.358)"/><path d="M0 0-1.28917 0-5.72657 6.46123-10.149 0-11.4531 0-11.4531 11.0784-9.41481 11.0784-9.41481 4.5121-6.05654 9.36957-5.38165 9.36957-2.02383 4.5121-2.02383 11.0784 0 11.0784Z" fill="#231F20" transform="matrix(-1 0 0 1.01651 268.382 -143.582)"/><path d="M0 0-0.569028 0-1.34467 2.41783-2.20269 0-2.48272 0-3.3591 2.41783-4.12108 0-4.6901 0-3.54266 3.39069-3.18963 3.39069-2.34953 0.958768-1.51457 3.39069-1.15214 3.39069Z" fill="#231F20" transform="matrix(-1 0 0 1.01651 215.897 -128.648)"/><path d="M0 0-2.16555 0-2.16555 0.500301-0.527621 0.500301-0.527621 1.42235-2.04645 1.42235-2.04645 1.92266-0.527621 1.92266-0.527621 2.89038-2.17067 2.89038-2.17067 3.39069 0 3.39069Z" fill="#231F20" transform="matrix(-1 0 0 1.01651 221.688 -128.648)"/><path d="M0 0-0.917364 0-0.458467-1.22983ZM-1.0783 0.486641 0.169471 0.486641 0.490909 1.32162 1.05994 1.32162-0.289423-2.0695-0.633487-2.0695-1.96876 1.32162-1.3993 1.32162Z" fill="#231F20" transform="matrix(-1 0 0 1.01651 225.856 -126.544)"/><path d="M0 0-0.527621 0-0.527621 2.88143-2.3171 2.88143-2.3171 3.39069 0 3.39069Z" fill="#231F20" transform="matrix(-1 0 0 1.01651 228.932 -128.648)"/><path d="M0 0 0-0.513961-2.51858-0.513961-2.51858 0-1.52779 0-1.52779 2.87673-0.990785 2.87673-0.990785 0Z" fill="#231F20" transform="matrix(-1 0 0 1.01651 231.497 -128.125)"/><path d="M0 0-0.527194 0-0.527194 1.4087-2.14293 1.4087-2.14293 0-2.67055 0-2.67055 3.39069-2.14293 3.39069-2.14293 1.91796-0.527194 1.91796-0.527194 3.39069 0 3.39069Z" fill="#231F20" transform="matrix(-1 0 0 1.01651 235.137 -128.648)"/><path d="M0 0-0.288997 0-1.71178 2.07847-3.12475 0-3.42356 0-3.42356 3.39069-2.89081 3.39069-2.89081 1.22044-1.7852 2.83617-1.62896 2.83617-0.523352 1.22044-0.523352 3.39069 0 3.39069Z" fill="#231F20" transform="matrix(-1 0 0 1.01651 241.051 -128.648)"/><path d="M0 0-2.16555 0-2.16555 0.500301-0.527621 0.500301-0.527621 1.42235-2.04645 1.42235-2.04645 1.92266-0.527621 1.92266-0.527621 2.89038-2.17067 2.89038-2.17067 3.39069 0 3.39069Z" fill="#231F20" transform="matrix(-1 0 0 1.01651 245.934 -128.648)"/><path d="M0 0 0 3.39069 0.311621 3.39069 2.25306 1.09196 2.25306 3.39069 2.77599 3.39069 2.77599 0 2.50065 0 0.523352 2.3171 0.523352 0Z" fill="#231F20" transform="matrix(-1 0 0 1.01651 252.191 -128.648)"/><path d="M0 0-0.917364 0-0.458467-1.22983ZM-1.07787 0.486641 0.169897 0.486641 0.490909 1.32162 1.05994 1.32162-0.288997-2.0695-0.63306-2.0695-1.96876 1.32162-1.3993 1.32162Z" fill="#231F20" transform="matrix(-1 0 0 1.01651 254.351 -126.544)"/><path d="M0 0C0-1.03262-0.798261-1.75746-1.77111-1.75746-2.3491-1.75746-2.87246-1.50517-3.17084-1.15684L-2.808-0.798689C-2.55145-1.0783-2.18433-1.24392-1.77539-1.24392-1.0783-1.24392-0.541281-0.72057-0.541281 0-0.541281 0.711178-1.0689 1.23411-1.76215 1.23411-2.16086 1.23411-2.54205 1.05951-2.79477 0.793566L-2.79477 0.187826-1.72544 0.187826-1.72544-0.289423-3.28525-0.289423-3.28525 1.04116C-2.86819 1.50474-2.32648 1.74337-1.74849 1.74337-0.73423 1.74337 0 1.00487 0 0" fill="#231F20" transform="matrix(-1 0 0 1.01651 257.092 -126.921)"/><path d="M0 0-2.16555 0-2.16555 0.500301-0.527621 0.500301-0.527621 1.42235-2.04645 1.42235-2.04645 1.92266-0.527621 1.92266-0.527621 2.89038-2.17024 2.89038-2.17024 3.39069 0 3.39069Z" fill="#231F20" transform="matrix(-1 0 0 1.01651 261.675 -128.648)"/><path d="M0 0-0.289423 0-1.71178 2.07847-3.12475 0-3.42356 0-3.42356 3.39069-2.89081 3.39069-2.89081 1.22044-1.7852 2.83617-1.62896 2.83617-0.523352 1.22044-0.523352 3.39069 0 3.39069Z" fill="#231F20" transform="matrix(-1 0 0 1.01651 265.147 -128.648)"/><path d="M0 0-2.16555 0-2.16555 0.500301-0.527621 0.500301-0.527621 1.42235-2.04645 1.42235-2.04645 1.92266-0.527621 1.92266-0.527621 2.89038-2.17067 2.89038-2.17067 3.39069 0 3.39069Z" fill="#231F20" transform="matrix(-1 0 0 1.01651 270.03 -128.648)"/><path d="M0 0 0 3.39069 0.312048 3.39069 2.25349 1.09196 2.25349 3.39069 2.77641 3.39069 2.77641 0 2.50108 0 0.523779 2.3171 0.523779 0Z" fill="#231F20" transform="matrix(-1 0 0 1.01651 276.288 -128.648)"/><path d="M0 0 0-0.513961-2.51858-0.513961-2.51858 0-1.52779 0-1.52779 2.87673-0.990785 2.87673-0.990785 0Z" fill="#231F20" transform="matrix(-1 0 0 1.01651 277.407 -128.125)"/><path d="M0 0 0-17.7808C-4.2009-18.6354-8.60457-18.5585-12.7539-17.5694ZM-13.6524 23.8488C-5.96561 23.3498 0 17.0171 0 9.26457L0 4.20731-13.6524-14.6001ZM2.47077 7.61123 2.47077 9.26457C2.47077 18.3963-4.58211 25.8209-13.6524 26.3247L-13.6524 39.6825C-11.1325 40.369-8.52817 40.7164-5.89305 40.7164 3.4099 40.7164 12.2552 36.253 17.826 28.7635ZM2.47077-17.1656 2.47077 3.40478 19.3013 26.5886C22.1485 21.9526 23.6512 16.6337 23.6512 11.1713 23.6512-1.89107 14.9667-13.4727 2.47077-17.1656M-35.4385 11.1713C-35.4385 23.5338-27.6992 34.6049-16.1236 38.8873L-16.1236 26.2854C-24.8896 25.5157-31.7055 18.1069-31.7055 9.26457L-31.7055-3.18664C-34.1515 1.19398-35.4385 6.12911-35.4385 11.1713M-29.2352 9.26457C-29.2352 16.7345-23.5086 23.0437-16.1236 23.8044L-16.1236-16.5445C-21.3008-14.6296-25.8231-11.311-29.2352-6.91883ZM-31.632-7.87974-31.4707-8.09104C-30.5721-9.28033-29.5835-10.4162-28.5321-11.4668-22.4858-17.5144-14.446-20.8444-5.89305-20.8444 2.65902-20.8444 10.6988-17.5144 16.7455-11.4668 22.7932-5.42049 26.1228 2.61932 26.1228 11.1713 26.1228 19.723 22.7932 27.7628 16.7455 33.8096 10.6984 39.8575 2.6586 43.1872-5.89305 43.1872-14.4456 43.1872-22.4849 39.8575-28.5321 33.8096-34.5797 27.7628-37.9097 19.723-37.9097 11.1713-37.9097 4.23207-35.739-2.35551-31.632-7.87974" fill="#231F20" transform="matrix(-1 0 0 1.01651 399.025 -187.485)"/><path d="M0 0-2.75891 0-1.38692-3.81415ZM-3.34672 1.85393 0.602751 1.85393 1.52224 4.3866 3.70871 4.3866-0.603179-6.75364-2.18604-6.75364-6.45226 4.3866-4.26621 4.3866Z" fill="#231F20" transform="matrix(-1 0 0 1.01651 451.757 -174.995)"/><path d="M0 0 0-7.14551-2.06566-7.14551-2.06566-0.180996C-2.06566 1.41723-2.93991 2.18604-4.26621 2.18604-5.59338 2.18604-6.4672 1.37156-6.4672-0.180996L-6.4672-7.14551-8.54737-7.14551-8.54737 0C-8.54737 2.83405-6.63325 4.19108-4.26621 4.19108-1.92992 4.19108 0 2.83405 0 0" fill="#231F20" transform="matrix(-1 0 0 1.01651 461.628 -174.596)"/><path d="M0 0-1.8693 0C-3.21055 0-3.72366-0.799115-3.72366-1.61317-3.72366-2.45711-3.16572-3.19603-2.09511-3.19603L0-3.19603ZM-1.37199 1.85436 0 1.85436 0 6.03008 2.0503 6.03008 2.0503-5.11058-2.09511-5.11058C-4.64315-5.11058-5.83413-3.43722-5.83413-1.62811-5.83413-0.271495-5.12552 1.08513-3.49698 1.61275L-6.30157 6.03008-3.85898 6.03008Z" fill="#231F20" transform="matrix(-1 0 0 1.01651 477.069 -176.665)"/><path d="M0 0 0-7.14551-2.06566-7.14551-2.06566-0.180996C-2.06566 1.41723-2.93991 2.18604-4.26621 2.18604-5.59295 2.18604-6.4672 1.37156-6.4672-0.180996L-6.4672-7.14551-8.54737-7.14551-8.54737 0C-8.54737 2.83405-6.63325 4.19108-4.26621 4.19108-1.92992 4.19108 0 2.83405 0 0" fill="#231F20" transform="matrix(-1 0 0 1.01651 487.363 -174.596)"/><path d="M0 0-1.296 0-5.75816 6.49708-10.2058 0-11.5172 0-11.5172 11.1406-9.46727 11.1406-9.46727 4.53728-6.09026 9.42203-5.41195 9.42203-2.03535 4.53728-2.03535 11.1406 0 11.1406Z" fill="#231F20" transform="matrix(-1 0 0 1.01651 500.751 -181.86)"/><path d="M0 0-0.572016 0-1.35235 2.43149-2.21464 0-2.49638 0-3.37745 2.43149-4.14413 0-4.71615 0-3.56272 3.4099-3.20714 3.4099-2.36234 0.964317-1.52267 3.4099-1.15855 3.4099Z" fill="#231F20" transform="matrix(-1 0 0 1.01651 447.976 -166.842)"/><path d="M0 0-2.17793 0-2.17793 0.502862-0.530609 0.502862-0.530609 1.43047-2.05755 1.43047-2.05755 1.93333-0.530609 1.93333-0.530609 2.90704-2.1822 2.90704-2.1822 3.4099 0 3.4099Z" fill="#231F20" transform="matrix(-1 0 0 1.01651 453.801 -166.842)"/><path d="M0 0-0.922485 0-0.461028-1.23666ZM-1.08384 0.489202 0.171178 0.489202 0.493897 1.32887 1.06634 1.32887-0.290704-2.08103-0.636475-2.08103-1.97943 1.32887-1.40699 1.32887Z" fill="#231F20" transform="matrix(-1 0 0 1.01651 457.997 -164.727)"/><path d="M0 0-0.530609 0-0.530609 2.89764-2.33033 2.89764-2.33033 3.4099 0 3.4099Z" fill="#231F20" transform="matrix(-1 0 0 1.01651 461.081 -166.842)"/><path d="M0 0 0-0.516522-2.53309-0.516522-2.53309 0-1.53676 0-1.53676 2.89338-0.996334 2.89338-0.996334 0Z" fill="#231F20" transform="matrix(-1 0 0 1.01651 463.664 -166.317)"/><path d="M0 0-0.530609 0-0.530609 1.41638-2.15531 1.41638-2.15531 0-2.68548 0-2.68548 3.4099-2.15531 3.4099-2.15531 1.92906-0.530609 1.92906-0.530609 3.4099 0 3.4099Z" fill="#231F20" transform="matrix(-1 0 0 1.01651 467.321 -166.842)"/><path d="M0 0-0.290704 0-1.72117 2.08999-3.14225 0-3.44234 0-3.44234 3.4099-2.90747 3.4099-2.90747 1.22728-1.79503 2.85155-1.63836 2.85155-0.525914 1.22728-0.525914 3.4099 0 3.4099Z" fill="#231F20" transform="matrix(-1 0 0 1.01651 473.271 -166.842)"/><path d="M0 0-2.17793 0-2.17793 0.502862-0.530609 0.502862-0.530609 1.43047-2.05755 1.43047-2.05755 1.93333-0.530609 1.93333-0.530609 2.90704-2.1822 2.90704-2.1822 3.4099 0 3.4099Z" fill="#231F20" transform="matrix(-1 0 0 1.01651 478.189 -166.842)"/><path d="M0 0 0 3.4099 0.313755 3.4099 2.26587 1.09793 2.26587 3.4099 2.79178 3.4099 2.79178 0 2.51517 0 0.525914 2.3299 0.525914 0Z" fill="#231F20" transform="matrix(-1 0 0 1.01651 484.473 -166.842)"/><path d="M0 0-0.922485 0-0.461028-1.23666ZM-1.08384 0.489202 0.170751 0.489202 0.493897 1.32887 1.06592 1.32887-0.290704-2.08103-0.636475-2.08103-1.97943 1.32887-1.40699 1.32887Z" fill="#231F20" transform="matrix(-1 0 0 1.01651 486.65 -164.727)"/><path d="M0 0C0-1.03859-0.802957-1.76727-1.78136-1.76727-2.36234-1.76727-2.88911-1.51328-3.18878-1.16281L-2.82422-0.802957C-2.56554-1.08427-2.19671-1.25075-1.78606-1.25075-1.0847-1.25075-0.544269-0.724412-0.544269 0-0.544269 0.71502-1.0753 1.24094-1.77197 1.24094-2.17366 1.24094-2.55614 1.06592-2.81013 0.798261L-2.81013 0.189107-1.73483 0.189107-1.73483-0.290704-3.30361-0.290704-3.30361 1.04756C-2.88441 1.51328-2.33929 1.75318-1.75789 1.75318-0.738072 1.75318 0 1.01042 0 0" fill="#231F20" transform="matrix(-1 0 0 1.01651 489.408 -165.107)"/><path d="M0 0-2.17793 0-2.17793 0.502862-0.530182 0.502862-0.530182 1.43047-2.05755 1.43047-2.05755 1.93333-0.530182 1.93333-0.530182 2.90704-2.1822 2.90704-2.1822 3.4099 0 3.4099Z" fill="#231F20" transform="matrix(-1 0 0 1.01651 494.009 -166.842)"/><path d="M0 0-0.290704 0-1.72074 2.08999-3.14225 0-3.44234 0-3.44234 3.4099-2.90704 3.4099-2.90704 1.22728-1.7946 2.85155-1.63793 2.85155-0.525486 1.22728-0.525486 3.4099 0 3.4099Z" fill="#231F20" transform="matrix(-1 0 0 1.01651 497.508 -166.842)"/><path d="M0 0-2.17793 0-2.17793 0.502862-0.530609 0.502862-0.530609 1.43047-2.05798 1.43047-2.05798 1.93333-0.530609 1.93333-0.530609 2.90704-2.18262 2.90704-2.18262 3.4099 0 3.4099Z" fill="#231F20" transform="matrix(-1 0 0 1.01651 502.417 -166.842)"/><path d="M0 0 0 3.4099 0.313755 3.4099 2.2663 1.09793 2.2663 3.4099 2.79178 3.4099 2.79178 0 2.51517 0 0.52634 2.3299 0.52634 0Z" fill="#231F20" transform="matrix(-1 0 0 1.01651 508.71 -166.842)"/><path d="M0 0 0-0.516522-2.53309-0.516522-2.53309 0-1.53676 0-1.53676 2.89338-0.996334 2.89338-0.996334 0Z" fill="#231F20" transform="matrix(-1 0 0 1.01651 509.838 -166.317)"/><path d="M0 0 0-11.8172C-2.7922-12.3854-5.71888-12.3342-8.47651-11.6769ZM-9.07327 15.8499C-3.96484 15.5183 0 11.3093 0 6.15729L0 2.79605-9.07327-9.70337ZM1.6422 5.05807 1.6422 6.15729C1.6422 12.2262-3.04535 17.1605-9.07327 17.4952L-9.07327 26.3729C-7.39907 26.8297-5.66765 27.0602-3.91661 27.0602 2.2663 27.0602 8.14483 24.0938 11.8471 19.116ZM1.6422-11.4087 1.6422 2.26245 12.8272 17.6706C14.72 14.5894 15.7189 11.0544 15.7189 7.42469 15.7189-1.25673 9.94668-8.9542 1.6422-11.4087M-23.5526 7.42469C-23.5526 15.6404-18.4091 22.9984-10.7159 25.8445L-10.7159 17.4691C-16.5415 16.9581-21.072 12.0337-21.072 6.15729L-21.072-2.11817C-22.6975 0.793139-23.5526 4.07326-23.5526 7.42469M-19.4302 6.15729C-19.4302 11.1218-15.6242 15.3147-10.7159 15.8206L-10.7159-10.996C-14.157-9.72261-17.1622-7.51732-19.4302-4.59833ZM-21.0229-5.23736-20.9157-5.37781C-20.3185-6.16796-19.6615-6.9231-18.9623-7.62147-14.9441-11.6405-9.60095-13.8535-3.91661-13.8535 1.76727-13.8535 7.1105-11.6405 11.1287-7.62147 15.1482-3.60242 17.3611 1.74038 17.3611 7.42469 17.3611 13.1077 15.1482 18.4514 11.1287 22.47 7.11007 26.4895 1.76685 28.702-3.91661 28.702-9.60051 28.702-14.9437 26.4895-18.9623 22.47-22.9818 18.4514-25.1948 13.1077-25.1948 7.42469-25.1948 2.8127-23.7523-1.56536-21.0229-5.23736" fill="#DBC288" transform="matrix(-1 0 0 1.01651 -147.189 18.3348)"/><path d="M0 0-1.83344 0-0.92163-2.5348ZM-2.22404 1.2324 0.400838 1.2324 1.01212 2.91557 2.46479 2.91557-0.400838-4.48862-1.45267-4.48862-4.28799 2.91557-2.83532 2.91557Z" fill="#DBC288" transform="matrix(-1 0 0 1.01651 -162.079 59.5553)"/><path d="M0 0 0-4.74902-1.37241-4.74902-1.37241-0.12038C-1.37241 0.941695-1.95382 1.45224-2.83532 1.45224-3.71726 1.45224-4.2978 0.911807-4.2978-0.12038L-4.2978-4.74902-5.68089-4.74902-5.68089 0C-5.68089 1.88338-4.40837 2.78495-2.83532 2.78495-1.28234 2.78495 0 1.88338 0 0" fill="#DBC288" transform="matrix(-1 0 0 1.01651 -155.516 59.8202)"/><path d="M0 0-1.24221 0C-2.13396 0-2.47461-0.531036-2.47461-1.07232-2.47461-1.63281-2.10408-2.12415-1.39247-2.12415L0-2.12415ZM-0.911807 1.2324 0 1.2324 0 4.00796 1.36259 4.00796 1.36259-3.39624-1.39247-3.39624C-3.0859-3.39624-3.87733-2.28465-3.87733-1.08213-3.87733-0.180569-3.40649 0.720996-2.32435 1.07189L-4.1881 4.00796-2.56468 4.00796Z" fill="#DBC288" transform="matrix(-1 0 0 1.01651 -145.256 58.445)"/><path d="M0 0 0-4.74902-1.37241-4.74902-1.37241-0.12038C-1.37241 0.941695-1.95382 1.45224-2.83532 1.45224-3.71726 1.45224-4.2978 0.911807-4.2978-0.12038L-4.2978-4.74902-5.68089-4.74902-5.68089 0C-5.68089 1.88338-4.40837 2.78495-2.83532 2.78495-1.28234 2.78495 0 1.88338 0 0" fill="#DBC288" transform="matrix(-1 0 0 1.01651 -138.413 59.8202)"/><path d="M0 0-0.86144 0-3.82696 4.31787-6.78266 0-7.65435 0-7.65435 7.40419-6.29175 7.40419-6.29175 3.01546-4.04766 6.26187-3.59687 6.26187-1.35235 3.01546-1.35235 7.40419 0 7.40419Z" fill="#DBC288" transform="matrix(-1 0 0 1.01651 -129.516 54.9927)"/><path d="M0 0 0-11.8527C-2.80032-12.4221-5.73595-12.3709-8.50213-11.7119ZM-9.10061 15.8978C-3.97637 15.5652 0 11.3439 0 6.17607L0 2.80458-9.10061-9.7324ZM1.64689 5.07387 1.64689 6.17607C1.64689 12.2633-3.05474 17.2126-9.10061 17.5481L-9.10061 26.4527C-7.42127 26.9104-5.68473 27.1417-3.92856 27.1417 2.27313 27.1417 8.16959 24.1664 11.8826 19.174ZM1.64689-11.4424 1.64689 2.26928 12.8661 17.7239C14.764 14.6334 15.7659 11.0882 15.7659 7.44688 15.7659-1.26057 9.97652-8.98065 1.64689-11.4424M-23.623 7.44688C-23.623 15.6878-18.4641 23.0676-10.7483 25.9226L-10.7483 17.5221C-16.5915 17.009-21.1351 12.07-21.1351 6.17607L-21.1351-2.12415C-22.7654 0.7957-23.623 4.08564-23.623 7.44688M-19.4882 6.17607C-19.4882 11.1556-15.6707 15.3607-10.7483 15.8679L-10.7483-11.0284C-14.1992-9.752-17.2138-7.53951-19.4882-4.61199ZM-21.0861-5.25273-20.9785-5.3936C-20.3795-6.18589-19.7205-6.94359-19.0195-7.64368-14.989-11.6751-9.6299-13.8949-3.92856-13.8949 1.7724-13.8949 7.13185-11.6751 11.1624-7.64368 15.1938-3.61352 17.4132 1.74593 17.4132 7.44688 17.4132 13.1474 15.1938 18.5069 11.1624 22.5378 7.13142 26.5689 1.77197 28.7886-3.92856 28.7886-9.62954 28.7886-14.9886 26.5689-19.0195 22.5378-23.051 18.5069-25.2707 13.1474-25.2707 7.44688-25.2707 2.82124-23.8236-1.57006-21.0861-5.25273" fill="#DBC288" transform="matrix(-1 0 0 1.01651 22.4314 24.093)"/><path d="M0 0-1.83899 0-0.924614-2.54248ZM-2.23086 1.23624 0.401692 1.23624 1.01469 2.92454 2.47205 2.92454-0.402119-4.50186-1.45736-4.50186-4.30122 2.92454-2.84386 2.92454Z" fill="#DBC288" transform="matrix(-1 0 0 1.01651 57.579 32.4191)"/><path d="M0 0 0-4.76311-1.37668-4.76311-1.37668-0.120807C-1.37668 0.944679-1.95937 1.45694-2.84386 1.45694-3.72792 1.45694-4.31104 0.914372-4.31104-0.120807L-4.31104-4.76311-5.69796-4.76311-5.69796 0C-5.69796 1.88936-4.4216 2.79349-2.84386 2.79349-1.28618 2.79349 0 1.88936 0 0" fill="#DBC288" transform="matrix(-1 0 0 1.01651 64.161 32.6847)"/><path d="M0 0-1.24606 0C-2.14036 0-2.48187-0.532744-2.48187-1.07573-2.48187-1.63836-2.11006-2.13055-1.39675-2.13055L0-2.13055ZM-0.914372 1.23581 0 1.23581 0 4.01948 1.36686 4.01948 1.36686-3.40649-1.39675-3.40649C-3.09487-3.40649-3.88886-2.29148-3.88886-1.08555-3.88886-0.180996-3.41673 0.723131-2.33118 1.0753L-4.20048 4.01948-2.57237 4.01948Z" fill="#DBC288" transform="matrix(-1 0 0 1.01651 74.4508 31.3056)"/><path d="M0 0 0-4.76311-1.37668-4.76311-1.37668-0.120807C-1.37668 0.944679-1.95937 1.45694-2.84386 1.45694-3.72835 1.45694-4.31104 0.914372-4.31104-0.120807L-4.31104-4.76311-5.69796-4.76311-5.69796 0C-5.69796 1.88936-4.4216 2.79349-2.84386 2.79349-1.28618 2.79349 0 1.88936 0 0" fill="#DBC288" transform="matrix(-1 0 0 1.01651 81.3148 32.6847)"/><path d="M0 0-0.864001 0-3.83848 4.3311-6.80315 0-7.67739 0-7.67739 7.42597-6.31053 7.42597-6.31053 3.02443-4.05961 6.28066-3.60754 6.28066-1.35662 3.02443-1.35662 7.42597 0 7.42597Z" fill="#DBC288" transform="matrix(-1 0 0 1.01651 90.2385 27.8429)"/><path d="M0 0 0-11.8172C-2.79178-12.3854-5.71845-12.3342-8.47609-11.6769ZM-9.07327 15.8499C-3.96441 15.5183 0 11.3093 0 6.15729L0 2.79605-9.07327-9.70337ZM1.6422 5.05807 1.6422 6.15729C1.6422 12.2262-3.04535 17.1605-9.07327 17.4952L-9.07327 26.3729C-7.39865 26.8297-5.66765 27.0602-3.91661 27.0602 2.26672 27.0602 8.14525 24.0938 11.8476 19.116ZM1.6422-11.4087 1.6422 2.26245 12.8277 17.6706C14.72 14.5894 15.7189 11.0544 15.7189 7.42469 15.7189-1.25673 9.94713-8.9542 1.6422-11.4087M-23.5526 7.42469C-23.5526 15.6404-18.4091 22.9984-10.7159 25.8445L-10.7159 17.4691C-16.5415 16.9581-21.0715 12.0337-21.0715 6.15729L-21.0715-2.11817C-22.6971 0.793139-23.5526 4.07326-23.5526 7.42469M-19.4298 6.15729C-19.4298 11.1218-15.6242 15.3147-10.7159 15.8206L-10.7159-10.996C-14.1566-9.72261-17.1622-7.51732-19.4298-4.59833ZM-21.0229-5.23736-20.9153-5.37781C-20.3185-6.16796-19.6615-6.9231-18.9623-7.62147-14.9441-11.6405-9.60095-13.8535-3.91661-13.8535 1.7677-13.8535 7.1105-11.6405 11.1287-7.62147 15.1482-3.60242 17.3616 1.74038 17.3616 7.42469 17.3616 13.1077 15.1482 18.4514 11.1287 22.47 7.11007 26.4895 1.76727 28.702-3.91661 28.702-9.60006 28.702-14.9437 26.4895-18.9623 22.47-22.9818 18.4514-25.1948 13.1077-25.1948 7.42469-25.1948 2.8127-23.7523-1.56536-21.0229-5.23736" fill="#231F20" transform="matrix(-1 0 0 1.01651 246.242 18.3348)"/><path d="M0 0-1.83344 0-0.92163-2.5348ZM-2.22404 1.2324 0.400412 1.2324 1.0117 2.91557 2.46437 2.91557-0.400412-4.48862-1.45267-4.48862-4.28799 2.91557-2.83575 2.91557Z" fill="#231F20" transform="matrix(-1 0 0 1.01651 231.347 59.5553)"/><path d="M0 0 0-4.74902-1.37284-4.74902-1.37284-0.12038C-1.37284 0.941695-1.95382 1.45224-2.83575 1.45224-3.71726 1.45224-4.29823 0.911807-4.29823-0.12038L-4.29823-4.74902-5.68132-4.74902-5.68132 0C-5.68132 1.88338-4.40837 2.78495-2.83575 2.78495-1.28277 2.78495 0 1.88338 0 0" fill="#231F20" transform="matrix(-1 0 0 1.01651 237.913 59.8202)"/><path d="M0 0-1.24221 0C-2.13396 0-2.47461-0.531036-2.47461-1.07232-2.47461-1.63281-2.10408-2.12415-1.3929-2.12415L0-2.12415ZM-0.911807 1.2324 0 1.2324 0 4.00796 1.36259 4.00796 1.36259-3.39624-1.3929-3.39624C-3.0859-3.39624-3.87733-2.28465-3.87733-1.08213-3.87733-0.180569-3.40649 0.720996-2.32435 1.07189L-4.1881 4.00796-2.56511 4.00796Z" fill="#231F20" transform="matrix(-1 0 0 1.01651 248.172 58.445)"/><path d="M0 0 0-4.74902-1.37284-4.74902-1.37284-0.12038C-1.37284 0.941695-1.95382 1.45224-2.83575 1.45224-3.71726 1.45224-4.29823 0.911807-4.29823-0.12038L-4.29823-4.74902-5.68089-4.74902-5.68089 0C-5.68089 1.88338-4.40837 2.78495-2.83575 2.78495-1.28277 2.78495 0 1.88338 0 0" fill="#231F20" transform="matrix(-1 0 0 1.01651 255.012 59.8202)"/><path d="M0 0-0.86144 0-3.82696 4.31787-6.78266 0-7.65435 0-7.65435 7.40419-6.29175 7.40419-6.29175 3.01546-4.04723 6.26187-3.59687 6.26187-1.35235 3.01546-1.35235 7.40419 0 7.40419Z" fill="#231F20" transform="matrix(-1 0 0 1.01651 263.913 54.9927)"/><path d="M0 0 0-11.8527C-2.80075-12.4221-5.73638-12.3709-8.5017-11.7119ZM-9.10061 15.8978C-3.97637 15.5652 0 11.3439 0 6.17607L0 2.80458-9.10061-9.7324ZM1.64689 5.07387 1.64689 6.17607C1.64689 12.2633-3.05474 17.2126-9.10061 17.5481L-9.10061 26.4527C-7.42127 26.9104-5.68473 27.1417-3.92813 27.1417 2.2727 27.1417 8.16959 24.1664 11.8826 19.174ZM1.64689-11.4424 1.64689 2.26928 12.8661 17.7239C14.764 14.6334 15.7663 11.0882 15.7663 7.44688 15.7663-1.26057 9.97652-8.98065 1.64689-11.4424M-23.6234 7.44688C-23.6234 15.6878-18.4646 23.0676-10.7483 25.9226L-10.7483 17.5221C-16.5915 17.009-21.1351 12.07-21.1351 6.17607L-21.1351-2.12415C-22.7654 0.7957-23.6234 4.08564-23.6234 7.44688M-19.4882 6.17607C-19.4882 11.1556-15.6711 15.3607-10.7483 15.8679L-10.7483-11.0284C-14.1997-9.752-17.2138-7.53951-19.4882-4.61199ZM-21.0861-5.25273-20.9785-5.3936C-20.3795-6.18589-19.7205-6.94359-19.0195-7.64368-14.989-11.6751-9.6299-13.8949-3.92813-13.8949 1.7724-13.8949 7.13185-11.6751 11.162-7.64368 15.1938-3.61352 17.4132 1.74593 17.4132 7.44688 17.4132 13.1474 15.1938 18.5069 11.162 22.5378 7.13142 26.5689 1.77197 28.7886-3.92813 28.7886-9.62954 28.7886-14.9886 26.5689-19.0195 22.5378-23.051 18.5069-25.2707 13.1474-25.2707 7.44688-25.2707 2.82124-23.824-1.57006-21.0861-5.25273" fill="#231F20" transform="matrix(-1 0 0 1.01651 415.859 24.093)"/><path d="M0 0-1.83941 0-0.924614-2.54248ZM-2.23129 1.23624 0.401692 1.23624 1.01469 2.92454 2.47205 2.92454-0.402119-4.50186-1.45736-4.50186-4.30122 2.92454-2.84386 2.92454Z" fill="#231F20" transform="matrix(-1 0 0 1.01651 451.008 32.4191)"/><path d="M0 0 0-4.76311-1.37711-4.76311-1.37711-0.120807C-1.37711 0.944679-1.9598 1.45694-2.84386 1.45694-3.72792 1.45694-4.31104 0.914372-4.31104-0.120807L-4.31104-4.76311-5.69796-4.76311-5.69796 0C-5.69796 1.88936-4.4216 2.79349-2.84386 2.79349-1.28661 2.79349 0 1.88936 0 0" fill="#231F20" transform="matrix(-1 0 0 1.01651 457.591 32.6847)"/><path d="M0 0-1.24606 0C-2.14036 0-2.48187-0.532744-2.48187-1.07573-2.48187-1.63836-2.11006-2.13055-1.39632-2.13055L0-2.13055ZM-0.914372 1.23581 0 1.23581 0 4.01948 1.36686 4.01948 1.36686-3.40649-1.39632-3.40649C-3.09487-3.40649-3.88886-2.29148-3.88886-1.08555-3.88886-0.180996-3.41673 0.723131-2.33118 1.0753L-4.20048 4.01948-2.57237 4.01948Z" fill="#231F20" transform="matrix(-1 0 0 1.01651 467.877 31.3056)"/><path d="M0 0 0-4.76311-1.37711-4.76311-1.37711-0.120807C-1.37711 0.944679-1.9598 1.45694-2.84386 1.45694-3.72792 1.45694-4.31146 0.914372-4.31146-0.120807L-4.31146-4.76311-5.69796-4.76311-5.69796 0C-5.69796 1.88936-4.4216 2.79349-2.84386 2.79349-1.28661 2.79349 0 1.88936 0 0" fill="#231F20" transform="matrix(-1 0 0 1.01651 474.742 32.6847)"/><path d="M0 0-0.864001 0-3.83891 4.3311-6.80358 0-7.67739 0-7.67739 7.42597-6.31096 7.42597-6.31096 3.02443-4.06004 6.28066-3.60754 6.28066-1.35705 3.02443-1.35705 7.42597 0 7.42597Z" fill="#231F20" transform="matrix(-1 0 0 1.01651 483.662 27.8429)"/><text fill="#231F20" font-family="Arial,Arial_MSFontService,sans-serif" font-weight="400" font-size="30" transform="matrix(0.42688 0 0 0.433924 -194.157 -308)">V<tspan font-size="30" x="20.7" y="0">E</tspan><tspan font-size="30" x="40.8301" y="0">R</tspan><tspan font-size="30" x="60.96" y="0">S</tspan><tspan font-size="30" x="79.44" y="0">Ã</tspan><tspan font-size="30" x="102.36" y="0">O</tspan><tspan font-size="30" x="129.12" y="0"> </tspan><tspan font-size="30" x="139.26" y="0">P</tspan><tspan font-size="30" x="156.63" y="0">A</tspan><tspan font-size="30" x="179.55" y="0">R</tspan><tspan font-size="30" x="199.68" y="0">A</tspan><tspan font-size="30" x="222.6" y="0"> </tspan><tspan font-size="30" x="232.74" y="0">A</tspan><tspan font-size="30" x="255.66" y="0">P</tspan><tspan font-size="30" x="275.25" y="0">L</tspan><tspan font-size="30" x="292.62" y="0">I</tspan><tspan font-size="30" x="302.76" y="0">C</tspan><tspan font-size="30" x="325.68" y="0">A</tspan><tspan font-size="30" x="348.6" y="0">Ç</tspan><tspan font-size="30" x="371.52" y="0">Õ</tspan><tspan font-size="30" x="398.28" y="0">E</tspan><tspan font-size="30" x="418.41" y="0">S</tspan><tspan font-size="30" x="436.89" y="0"> </tspan><tspan font-size="30" x="447.03" y="0">R</tspan><tspan font-size="30" x="467.16" y="0">E</tspan><tspan font-size="30" x="487.29" y="0">D</tspan><tspan font-size="30" x="511.32" y="0">U</tspan><tspan font-size="30" x="534.24" y="0">Z</tspan><tspan font-size="30" x="553.83" y="0">I</tspan><tspan font-size="30" x="563.97" y="0">D</tspan><tspan font-size="30" x="588" y="0">A</tspan><tspan font-size="30" x="610.92" y="0">S</tspan><tspan font-size="30" x="629.4" y="0"> </tspan><tspan font-size="30" x="639.54" y="0">R</tspan><tspan font-size="30" x="659.67" y="0">G</tspan><tspan font-size="30" x="684.81" y="0">B</tspan></text></g></g></g></g></g></g></g></svg>