<svg width="1040" height="720" xmlns="http://www.w3.org/2000/svg" xmlns:xlink="http://www.w3.org/1999/xlink" overflow="hidden"><defs><clipPath id="clip0"><rect x="0" y="0" width="1040" height="720"/></clipPath><clipPath id="clip1"><rect x="1" y="5" width="64" height="57"/></clipPath><clipPath id="clip2"><rect x="1" y="5" width="64" height="57"/></clipPath><clipPath id="clip3"><rect x="1" y="5" width="64" height="57"/></clipPath><clipPath id="clip4"><rect x="1" y="5" width="64" height="57"/></clipPath><clipPath id="clip5"><rect x="2" y="6" width="62" height="55"/></clipPath><clipPath id="clip6"><rect x="2" y="5" width="62" height="56"/></clipPath></defs><g clip-path="url(#clip0)"><rect x="0" y="0" width="1040" height="720" fill="#FFFFFF"/><rect x="0" y="0" width="1047" height="433" fill="#222A35"/><path d="M852.599 585.5 0.500061 575.333C1.47784 404.283 0.988892 237.573 1.96667 66.5234 379.079 66.5234 744.563-10.8679 894.465 64.4293 895.548 248.772 851.516 401.157 852.599 585.5Z" stroke="#DBC288" stroke-width="1.33333" stroke-miterlimit="8" fill="none" fill-rule="evenodd"/><path d="M900.925 13.7863 894.5 32.3678 907.464 32.3678 900.953 13.7863ZM975.161 8.83118 978.204 8.83118C978.828 8.83118 979.374 8.8888 979.842 9.00404 980.31 9.11927 980.719 9.30173 981.07 9.5514 981.421 9.80107 981.714 10.118 981.948 10.5021 982.182 10.8862 982.387 11.3375 982.562 11.8561L993.221 38.8497 993.366 38.8497 1004.46 11.9425C1004.67 11.3663 1004.91 10.8766 1005.16 10.4733 1005.41 10.07 1005.69 9.74826 1005.99 9.50819 1006.3 9.26811 1006.63 9.09526 1007 8.98963 1007.37 8.884 1007.8 8.83118 1008.29 8.83118L1011.48 8.83118C1011.77 8.83118 1012.05 8.8744 1012.32 8.96082 1012.58 9.04725 1012.8 9.18169 1012.99 9.36414 1013.17 9.5466 1013.33 9.77707 1013.44 10.0555 1013.56 10.334 1013.62 10.6749 1013.62 11.0783L1013.62 45.3605C1013.62 45.5141 1013.58 45.6486 1013.5 45.7638 1013.42 45.879 1013.28 45.9703 1013.08 46.0375 1012.89 46.1047 1012.63 46.1623 1012.33 46.2103 1012.02 46.2584 1011.62 46.2824 1011.13 46.2824 1010.67 46.2824 1010.28 46.2584 1009.95 46.2103 1009.63 46.1623 1009.37 46.1047 1009.18 46.0375 1008.99 45.9703 1008.86 45.879 1008.78 45.7638 1008.7 45.6486 1008.66 45.5141 1008.66 45.3605L1008.66 12.8932 1008.61 12.8932 995.469 45.5045C995.411 45.639 995.329 45.7542 995.224 45.8502 995.118 45.9463 994.964 46.0279 994.763 46.0951 994.561 46.1623 994.321 46.2103 994.043 46.2391 993.764 46.268 993.433 46.2824 993.049 46.2824 992.645 46.2824 992.3 46.2631 992.012 46.2247 991.723 46.1863 991.483 46.1335 991.291 46.0663 991.099 45.9991 990.95 45.9174 990.845 45.8214 990.739 45.7254 990.667 45.6198 990.629 45.5045L978.068 12.8932 978.039 12.8932 978.039 45.3605C978.039 45.5141 978 45.6486 977.921 45.7638 977.842 45.879 977.703 45.9703 977.505 46.0375 977.307 46.1047 977.05 46.1623 976.734 46.2103 976.417 46.2584 976.012 46.2824 975.517 46.2824 975.043 46.2824 974.647 46.2584 974.331 46.2103 974.014 46.1623 973.762 46.1047 973.574 46.0375 973.386 45.9703 973.257 45.879 973.188 45.7638 973.119 45.6486 973.084 45.5141 973.084 45.3605L973.084 11.0783C973.084 10.2716 973.299 9.69544 973.728 9.34974 974.157 9.00404 974.635 8.83118 975.161 8.83118ZM920.393 8.65833C920.988 8.65833 921.459 8.67274 921.805 8.70155 922.15 8.73035 922.414 8.78317 922.597 8.85999 922.779 8.93681 922.904 9.04245 922.971 9.17689 923.038 9.31133 923.091 9.48418 923.13 9.69544L931.513 40.924 931.542 40.924 939.493 9.75306C939.551 9.54179 939.623 9.36414 939.709 9.2201 939.795 9.07606 939.935 8.96562 940.127 8.8888 940.319 8.81198 940.593 8.75436 940.948 8.71595 941.303 8.67754 941.769 8.65833 942.345 8.65833 942.883 8.65833 943.31 8.67754 943.627 8.71595 943.944 8.75436 944.198 8.81198 944.39 8.8888 944.583 8.96562 944.722 9.07606 944.808 9.2201 944.895 9.36414 944.967 9.54179 945.024 9.75306L953.58 40.924 953.638 40.924 961.848 9.72425C961.906 9.5322 961.964 9.36414 962.021 9.2201 962.079 9.07606 962.199 8.96562 962.381 8.8888 962.564 8.81198 962.823 8.75436 963.159 8.71595 963.495 8.67754 963.942 8.65833 964.499 8.65833 965.075 8.65833 965.531 8.68234 965.867 8.73035 966.203 8.77837 966.448 8.8696 966.602 9.00404 966.755 9.13847 966.828 9.33054 966.818 9.58021 966.808 9.82988 966.755 10.1756 966.659 10.6173L956.778 45.0148C956.701 45.2837 956.586 45.4997 956.432 45.663 956.279 45.8262 956.068 45.9511 955.799 46.0375 955.53 46.1239 955.198 46.1863 954.805 46.2247 954.411 46.2631 953.926 46.2824 953.35 46.2824 952.755 46.2824 952.25 46.2631 951.837 46.2247 951.425 46.1863 951.084 46.1239 950.815 46.0375 950.546 45.9511 950.344 45.8262 950.21 45.663 950.075 45.4997 949.97 45.2837 949.893 45.0148L942.086 16.8688 942.028 16.8688 934.826 45.0148C934.768 45.2837 934.672 45.4997 934.538 45.663 934.403 45.8262 934.211 45.9511 933.962 46.0375 933.712 46.1239 933.39 46.1863 932.997 46.2247 932.603 46.2631 932.099 46.2824 931.484 46.2824 930.85 46.2824 930.322 46.2631 929.9 46.2247 929.477 46.1863 929.131 46.1239 928.863 46.0375 928.594 45.9511 928.387 45.8262 928.243 45.663 928.099 45.4997 927.998 45.2837 927.941 45.0148L918.088 10.5885C917.973 10.1468 917.911 9.80107 917.901 9.5514 917.891 9.30173 917.968 9.10966 918.131 8.97523 918.295 8.84079 918.559 8.75436 918.924 8.71595 919.289 8.67754 919.778 8.65833 920.393 8.65833ZM901.097 8.65833C901.712 8.65833 902.221 8.67274 902.624 8.70155 903.028 8.73035 903.354 8.78317 903.604 8.85999 903.854 8.93681 904.046 9.04725 904.18 9.19129 904.314 9.33533 904.42 9.51299 904.497 9.72425L917 44.3522C917.153 44.7747 917.235 45.1156 917.245 45.3749 917.254 45.6342 917.182 45.831 917.029 45.9655 916.875 46.0999 916.62 46.1863 916.265 46.2247 915.91 46.2631 915.435 46.2824 914.839 46.2824 914.244 46.2824 913.768 46.268 913.413 46.2391 913.058 46.2103 912.789 46.1623 912.607 46.0951 912.424 46.0279 912.29 45.9367 912.203 45.8214 912.117 45.7062 912.035 45.5621 911.958 45.3893L908.761 36.3146 893.262 36.3146 890.208 45.2741C890.15 45.4469 890.073 45.5958 889.977 45.7206 889.881 45.8454 889.742 45.9511 889.56 46.0375 889.377 46.1239 889.118 46.1863 888.782 46.2247 888.446 46.2631 888.009 46.2824 887.471 46.2824 886.914 46.2824 886.458 46.2584 886.103 46.2103 885.747 46.1623 885.498 46.0711 885.354 45.9367 885.21 45.8022 885.142 45.6054 885.152 45.3461 885.161 45.0868 885.243 44.7459 885.397 44.3234L897.9 9.69544C897.977 9.48418 898.077 9.31133 898.202 9.17689 898.327 9.04245 898.51 8.93681 898.75 8.85999 898.99 8.78317 899.297 8.73035 899.671 8.70155 900.046 8.67274 900.521 8.65833 901.097 8.65833Z" stroke="#DBC288" stroke-linejoin="round" stroke-miterlimit="10" fill="none" fill-rule="evenodd"/><text fill="#000000" fill-opacity="0" font-family="Arial,Arial_MSFontService,sans-serif" font-size="37.624" x="885.151" y="41.5794">AWM</text><path d="M1045.67 729-7 727.598C-7 525.207-2.66614 269.502-2.66614 67.1118 717.425 67.1118 741.295 2.12524 1046.53 69.6706 1048.6 282.577 1043.6 516.094 1045.67 729Z" fill="#FFFFFF" fill-rule="evenodd"/><g clip-path="url(#clip1)"><g clip-path="url(#clip2)"><g clip-path="url(#clip3)"><g clip-path="url(#clip4)"><g clip-path="url(#clip5)"><g clip-path="url(#clip6)"><path d="M0 0 0-21.3521C-5.04509-22.3784-10.3335-22.2861-15.3162-21.0989ZM-16.3951 28.6389C-7.16375 28.04 0 20.435 0 11.1253L0 5.05231-16.3951-17.5328ZM2.96663 9.13962 2.96663 11.1253C2.96663 22.0913-5.50284 31.0077-16.3951 31.6123L-16.3951 47.6533C-13.3692 48.4775-10.2412 48.8951-7.07714 48.8951 4.09452 48.8951 14.7166 43.5351 21.4062 34.5408ZM2.96663-20.6133 2.96663 4.08834 23.1774 31.9288C26.5972 26.3615 28.4019 19.9746 28.4019 13.4151 28.4019-2.27073 17.9725-16.1786 2.96663-20.6133M-42.5566 13.4151C-42.5566 28.2606-33.2629 41.5556-19.3628 46.6982L-19.3628 31.5649C-29.8891 30.6412-38.0745 21.7438-38.0745 11.1253L-38.0745-3.82699C-41.0117 1.43357-42.5566 7.36015-42.5566 13.4151M-35.1079 11.1253C-35.1079 20.0958-28.2307 27.6724-19.3628 28.5854L-19.3628-19.8679C-25.5801-17.5678-31.0103-13.5826-35.1079-8.30864ZM-37.9859-9.46283-37.792-9.71644C-36.7136-11.1444-35.5259-12.5084-34.2635-13.7702-27.0028-21.0325-17.3478-25.0316-7.07714-25.0316 3.19294-25.0316 12.8475-21.0325 20.1082-13.7702 27.3709-6.50959 31.3696 3.14499 31.3696 13.4151 31.3696 23.6847 27.3709 33.3392 20.1082 40.6009 12.847 47.8631 3.1919 51.8617-7.07714 51.8617-17.3472 51.8617-27.0018 47.8631-34.2635 40.6009-41.5257 33.3392-45.5244 23.6847-45.5244 13.4151-45.5244 5.08221-42.9176-2.82849-37.9859-9.46283" fill="#DBC288" transform="matrix(-1.0192 0 0 1 -182.596 -239.045)"/><path d="M0 0-3.31304 0-1.66554-4.58012ZM-4.01875 2.2264 0.724261 2.2264 1.82844 5.26778 4.4533 5.26778-0.724261-8.11019-2.62487-8.11019-7.74831 5.26778-5.12292 5.26778Z" fill="#DBC288" transform="matrix(-1.0192 0 0 1 -210.019 -165.773)"/><path d="M0 0 0-8.58082-2.48053-8.58082-2.48053-0.21702C-2.48053 1.70163-3.53006 2.62487-5.12344 2.62487-6.7163 2.62487-7.76635 1.6475-7.76635-0.21702L-7.76635-8.58082-10.2649-8.58082-10.2649 0C-10.2649 3.40325-7.96533 5.03271-5.12344 5.03271-2.31713 5.03271 0 3.40325 0 0" fill="#DBC288" transform="matrix(-1.0192 0 0 1 -197.933 -165.302)"/><path d="M0 0-2.24495 0C-3.85586 0-4.47135-0.95984-4.47135-1.9372-4.47135-2.95065-3.80173-3.83781-2.51661-3.83781L0-3.83781ZM-1.6475 2.2264 0 2.2264 0 7.24106 2.46197 7.24106 2.46197-6.13689-2.51661-6.13689C-5.57604-6.13689-7.00601-4.12752-7.00601-1.95525-7.00601-0.325788-6.15493 1.30316-4.2002 1.93669L-7.56737 7.24106-4.63476 7.24106Z" fill="#DBC288" transform="matrix(-1.0192 0 0 1 -179.04 -167.747)"/><path d="M0 0 0-8.58082-2.48002-8.58082-2.48002-0.21702C-2.48002 1.70163-3.53006 2.62487-5.12292 2.62487-6.7163 2.62487-7.76584 1.6475-7.76584-0.21702L-7.76584-8.58082-10.2644-8.58082-10.2644 0C-10.2644 3.40325-7.96533 5.03271-5.12292 5.03271-2.31713 5.03271 0 3.40325 0 0" fill="#DBC288" transform="matrix(-1.0192 0 0 1 -166.437 -165.302)"/><path d="M0 0-1.55678 0-6.91528 7.80244-12.2558 0-13.8311 0-13.8311 13.378-11.3686 13.378-11.3686 5.44872-7.31376 11.3145-6.49928 11.3145-2.44393 5.44872-2.44393 13.378 0 13.378Z" fill="#DBC288" transform="matrix(-1.0192 0 0 1 -150.053 -173.883)"/><path d="M0 0-0.687147 0-1.62379 2.91972-2.65992 0-2.99808 0-4.05638 2.91972-4.97653 0-5.66315 0-4.27804 4.09452-3.85122 4.09452-2.83724 1.15779-1.82896 4.09452-1.39131 4.09452Z" fill="#DBC288" transform="matrix(-1.0192 0 0 1 -214.644 -156.142)"/><path d="M0 0-2.61507 0-2.61507 0.604153-0.637144 0.604153-0.637144 1.7176-2.47125 1.7176-2.47125 2.32176-0.637144 2.32176-0.637144 3.49037-2.62074 3.49037-2.62074 4.09452 0 4.09452Z" fill="#DBC288" transform="matrix(-1.0192 0 0 1 -207.516 -156.142)"/><path d="M0 0-1.10779 0-0.553635-1.48512ZM-1.30213 0.587657 0.205165 0.587657 0.592812 1.59596 1.27996 1.59596-0.348986-2.49908-0.764985-2.49908-2.37744 1.59596-1.68977 1.59596Z" fill="#DBC288" transform="matrix(-1.0192 0 0 1 -202.383 -153.643)"/><path d="M0 0-0.637144 0-0.637144 3.47955-2.79808 3.47955-2.79808 4.09452 0 4.09452Z" fill="#DBC288" transform="matrix(-1.0192 0 0 1 -198.6 -156.142)"/><path d="M0 0 0-0.620648-3.0419-0.620648-3.0419 0-1.84544 0-1.84544 3.47388-1.19645 3.47388-1.19645 0Z" fill="#DBC288" transform="matrix(-1.0192 0 0 1 -195.443 -155.522)"/><path d="M0 0-0.637144 0-0.637144 1.70112-2.58776 1.70112-2.58776 0-3.2249 0-3.2249 4.09452-2.58776 4.09452-2.58776 2.31609-0.637144 2.31609-0.637144 4.09452 0 4.09452Z" fill="#DBC288" transform="matrix(-1.0192 0 0 1 -190.964 -156.142)"/><path d="M0 0-0.348986 0-2.06659 2.50991-3.77338 0-4.1337 0-4.1337 4.09452-3.49088 4.09452-3.49088 1.47378-2.15526 3.4249-1.9671 3.4249-0.631474 1.47378-0.631474 4.09452 0 4.09452Z" fill="#DBC288" transform="matrix(-1.0192 0 0 1 -183.684 -156.142)"/><path d="M0 0-2.61507 0-2.61507 0.604153-0.637144 0.604153-0.637144 1.7176-2.47073 1.7176-2.47073 2.32176-0.637144 2.32176-0.637144 3.49037-2.62074 3.49037-2.62074 4.09452 0 4.09452Z" fill="#DBC288" transform="matrix(-1.0192 0 0 1 -177.671 -156.142)"/><path d="M0 0 0 4.09452 0.376823 4.09452 2.72075 1.31862 2.72075 4.09452 3.35222 4.09452 3.35222 0 3.02025 0 0.631989 2.79808 0.631989 0Z" fill="#DBC288" transform="matrix(-1.0192 0 0 1 -169.973 -156.142)"/><path d="M0 0-1.10779 0-0.553635-1.48512ZM-1.30161 0.587657 0.205165 0.587657 0.593327 1.59596 1.27996 1.59596-0.348986-2.49908-0.76447-2.49908-2.37692 1.59596-1.68977 1.59596Z" fill="#DBC288" transform="matrix(-1.0192 0 0 1 -167.313 -153.643)"/><path d="M0 0C0-1.24697-0.96448-2.12227-2.13927-2.12227-2.83673-2.12227-3.46872-1.81761-3.82904-1.39697L-3.3914-0.96448C-3.08108-1.30213-2.63776-1.50213-2.14444-1.50213-1.30213-1.50213-0.653639-0.870145-0.653639 0-0.653639 0.858804-1.29078 1.49028-2.12742 1.49028-2.60992 1.49028-3.06973 1.27945-3.37439 0.958294L-3.37439 0.226815-2.08361 0.226815-2.08361-0.349501-3.9672-0.349501-3.9672 1.25728C-3.46357 1.8171-2.80941 2.10526-2.11144 2.10526-0.88664 2.10526 0 1.21347 0 0" fill="#DBC288" transform="matrix(-1.0192 0 0 1 -163.936 -154.091)"/><path d="M0 0-2.61507 0-2.61507 0.604153-0.637144 0.604153-0.637144 1.7176-2.47073 1.7176-2.47073 2.32176-0.637144 2.32176-0.637144 3.49037-2.62074 3.49037-2.62074 4.09452 0 4.09452Z" fill="#DBC288" transform="matrix(-1.0192 0 0 1 -158.306 -156.142)"/><path d="M0 0-0.348986 0-2.06659 2.50991-3.77338 0-4.13422 0-4.13422 4.09452-3.49088 4.09452-3.49088 1.47378-2.15526 3.4249-1.9671 3.4249-0.631474 1.47378-0.631474 4.09452 0 4.09452Z" fill="#DBC288" transform="matrix(-1.0192 0 0 1 -154.025 -156.142)"/><path d="M0 0-2.61507 0-2.61507 0.604153-0.637144 0.604153-0.637144 1.7176-2.47125 1.7176-2.47125 2.32176-0.637144 2.32176-0.637144 3.49037-2.62074 3.49037-2.62074 4.09452 0 4.09452Z" fill="#DBC288" transform="matrix(-1.0192 0 0 1 -148.01 -156.142)"/><path d="M0 0 0 4.09452 0.376823 4.09452 2.72127 1.31862 2.72127 4.09452 3.35274 4.09452 3.35274 0 3.02025 0 0.631989 2.79808 0.631989 0Z" fill="#DBC288" transform="matrix(-1.0192 0 0 1 -140.313 -156.142)"/><path d="M0 0 0-0.620648-3.0419-0.620648-3.0419 0-1.84544 0-1.84544 3.47388-1.19645 3.47388-1.19645 0Z" fill="#DBC288" transform="matrix(-1.0192 0 0 1 -138.935 -155.522)"/><path d="M0 0 0-21.4717C-5.07292-22.5037-10.3912-22.4109-15.4013-21.2165ZM-16.4863 28.7993C-7.20395 28.1967 0 20.5495 0 11.1877L0 5.08066-16.4863-17.6307ZM2.98365 9.19116 2.98365 11.1877C2.98365 22.2149-5.53377 31.1808-16.4863 31.7891L-16.4863 47.9198C-13.4439 48.7488-10.2984 49.1683-7.11632 49.1683 4.11772 49.1683 14.7991 43.7784 21.5263 34.7342ZM2.98365-20.7289 2.98365 4.11154 23.3073 32.1078C26.7461 26.5095 28.5607 20.0865 28.5607 13.4903 28.5607-2.28361 18.073-16.2693 2.98365-20.7289M-42.7948 13.4903C-42.7948 28.4189-33.449 41.7881-19.4706 46.9595L-19.4706 31.7417C-30.0561 30.8123-38.2874 21.8655-38.2874 11.1877L-38.2874-3.84812C-41.2407 1.44182-42.7948 7.40138-42.7948 13.4903M-35.3038 11.1877C-35.3038 20.2082-28.3885 27.8271-19.4706 28.7457L-19.4706-19.9788C-25.7229-17.6663-31.1839-13.6589-35.3038-8.35504ZM-38.1982-9.51541-38.0034-9.77057C-36.9188-11.2067-35.7244-12.5784-34.4548-13.847-27.1534-21.15-17.4447-25.1713-7.11632-25.1713 3.21098-25.1713 12.9196-21.15 20.2211-13.847 27.5245-6.54568 31.5453 3.16304 31.5453 13.4903 31.5453 23.8171 27.5245 33.5258 20.2211 40.8277 12.9192 48.1311 3.21047 52.152-7.11632 52.152-17.4441 52.152-27.1523 48.1311-34.4548 40.8277-41.7577 33.5258-45.779 23.8171-45.779 13.4903-45.779 5.11056-43.1577-2.84446-38.1982-9.51541" fill="#DBC288" transform="matrix(-1.0192 0 0 1 10.7508 -226.039)"/><path d="M0 0-3.33109 0-1.67482-4.60589ZM-4.04143 2.23877 0.728386 2.23877 1.83874 5.29716 4.47856 5.29716-0.728386-8.15555-2.63982-8.15555-7.79161 5.29716-5.15179 5.29716Z" fill="#DBC288" transform="matrix(-1.0192 0 0 1 75.6446 -211.201)"/><path d="M0 0 0-8.62877-2.49393-8.62877-2.49393-0.218567C-2.49393 1.71142-3.54966 2.63982-5.15179 2.63982-6.75393 2.63982-7.80966 1.65627-7.80966-0.218567L-7.80966-8.62877-10.3216-8.62877-10.3216 0C-10.3216 3.42233-8.01018 5.06106-5.15179 5.06106-2.33001 5.06106 0 3.42233 0 0" fill="#DBC288" transform="matrix(-1.0192 0 0 1 87.797 -210.728)"/><path d="M0 0-2.25733 0C-3.87751 0-4.49661-0.964995-4.49661-1.94803-4.49661-2.96715-3.82286-3.85946-2.53053-3.85946L0-3.85946ZM-1.65679 2.23928 0 2.23928 0 7.28179 2.4759 7.28179 2.4759-6.17143-2.53053-6.17143C-5.60697-6.17143-7.04518-4.15072-7.04518-1.96607-7.04518-0.327851-6.18947 1.31038-4.2234 1.94752L-7.60964 7.28179-4.66053 7.28179Z" fill="#DBC288" transform="matrix(-1.0192 0 0 1 106.796 -213.185)"/><path d="M0 0 0-8.62877-2.49393-8.62877-2.49393-0.218567C-2.49393 1.71142-3.54966 2.63982-5.15179 2.63982-6.75393 2.63982-7.80966 1.65627-7.80966-0.218567L-7.80966-8.62877-10.3216-8.62877-10.3216 0C-10.3216 3.42233-8.01018 5.06106-5.15179 5.06106-2.33053 5.06106 0 3.42233 0 0" fill="#DBC288" transform="matrix(-1.0192 0 0 1 119.469 -210.728)"/><path d="M0 0-1.56554 0-6.95395 7.84574-12.3243 0-13.9079 0-13.9079 13.4532-11.4325 13.4532-11.4325 5.47913-7.35447 11.3778-6.53536 11.3778-2.45785 5.47913-2.45785 13.4532 0 13.4532Z" fill="#DBC288" transform="matrix(-1.0192 0 0 1 135.946 -219.356)"/><path d="M0 0-0.690755 0-1.63307 2.93622-2.67487 0-3.01458 0-4.07906 2.93622-5.00436 0-5.69512 0-4.30226 4.11772-3.87287 4.11772-2.85323 1.16449-1.83874 4.11772-1.39904 4.11772Z" fill="#DBC288" transform="matrix(-1.0192 0 0 1 70.9932 -201.516)"/><path d="M0 0-2.63002 0-2.63002 0.607246-0.640752 0.607246-0.640752 1.7274-2.48465 1.7274-2.48465 2.33464-0.640752 2.33464-0.640752 3.51048-2.63569 3.51048-2.63569 4.11772 0 4.11772Z" fill="#DBC288" transform="matrix(-1.0192 0 0 1 78.1601 -201.516)"/><path d="M0 0-1.11397 0-0.556728-1.49337ZM-1.30934 0.59075 0.206711 0.59075 0.59642 1.60471 1.28769 1.60471-0.351048-2.51301-0.769108-2.51301-2.39032 1.60471-1.69905 1.60471Z" fill="#DBC288" transform="matrix(-1.0192 0 0 1 83.3224 -199.003)"/><path d="M0 0-0.640752 0-0.640752 3.49913-2.81406 3.49913-2.81406 4.11772 0 4.11772Z" fill="#DBC288" transform="matrix(-1.0192 0 0 1 87.1266 -201.516)"/><path d="M0 0 0-0.623741-3.05891-0.623741-3.05891 0-1.85576 0-1.85576 3.49398-1.20315 3.49398-1.20315 0Z" fill="#DBC288" transform="matrix(-1.0192 0 0 1 90.3017 -200.893)"/><path d="M0 0-0.640752 0-0.640752 1.71039-2.60219 1.71039-2.60219 0-3.24293 0-3.24293 4.11772-2.60219 4.11772-2.60219 2.32949-0.640752 2.32949-0.640752 4.11772 0 4.11772Z" fill="#DBC288" transform="matrix(-1.0192 0 0 1 94.8056 -201.516)"/><path d="M0 0-0.351048 0-2.07845 2.52383-3.79451 0-4.1569 0-4.1569 4.11772-3.51048 4.11772-3.51048 1.48203-2.16763 3.44347-1.97793 3.44347-0.635082 1.48203-0.635082 4.11772 0 4.11772Z" fill="#DBC288" transform="matrix(-1.0192 0 0 1 102.124 -201.516)"/><path d="M0 0-2.63002 0-2.63002 0.607246-0.640752 0.607246-0.640752 1.7274-2.48465 1.7274-2.48465 2.33464-0.640752 2.33464-0.640752 3.51048-2.63569 3.51048-2.63569 4.11772 0 4.11772Z" fill="#DBC288" transform="matrix(-1.0192 0 0 1 108.173 -201.516)"/><path d="M0 0 0 4.11772 0.378884 4.11772 2.73621 1.32584 2.73621 4.11772 3.37129 4.11772 3.37129 0 3.03674 0 0.635597 2.81354 0.635597 0Z" fill="#DBC288" transform="matrix(-1.0192 0 0 1 115.914 -201.516)"/><path d="M0 0-1.11449 0-0.556728-1.49337ZM-1.30934 0.59075 0.206196 0.59075 0.59642 1.60471 1.28718 1.60471-0.351048-2.51301-0.769108-2.51301-2.39032 1.60471-1.69905 1.60471Z" fill="#DBC288" transform="matrix(-1.0192 0 0 1 118.588 -199.003)"/><path d="M0 0C0-1.25418-0.969634-2.13412-2.15114-2.13412-2.85323-2.13412-3.48883-1.82741-3.8507-1.40419L-3.41047-0.969634C-3.09809-1.30934-2.6527-1.51038-2.1568-1.51038-1.30986-1.51038-0.657764-0.874784-0.657764 0-0.657764 0.863443-1.29851 1.49853-2.13979 1.49853-2.62487 1.49853-3.08726 1.28718-3.39346 0.963964L-3.39346 0.228361-2.09546 0.228361-2.09546-0.351048-3.98988-0.351048-3.98988 1.26501C-3.48265 1.82741-2.82539 2.11711-2.12329 2.11711-0.891795 2.11711 0 1.22017 0 0" fill="#DBC288" transform="matrix(-1.0192 0 0 1 121.984 -199.455)"/><path d="M0 0-2.63002 0-2.63002 0.607246-0.640752 0.607246-0.640752 1.7274-2.48517 1.7274-2.48517 2.33464-0.640752 2.33464-0.640752 3.51048-2.63569 3.51048-2.63569 4.11772 0 4.11772Z" fill="#DBC288" transform="matrix(-1.0192 0 0 1 127.646 -201.516)"/><path d="M0 0-0.351048 0-2.07845 2.52383-3.79451 0-4.1569 0-4.1569 4.11772-3.51048 4.11772-3.51048 1.48203-2.16763 3.44347-1.97793 3.44347-0.635082 1.48203-0.635082 4.11772 0 4.11772Z" fill="#DBC288" transform="matrix(-1.0192 0 0 1 131.951 -201.516)"/><path d="M0 0-2.63002 0-2.63002 0.607246-0.640752 0.607246-0.640752 1.7274-2.48517 1.7274-2.48517 2.33464-0.640752 2.33464-0.640752 3.51048-2.63569 3.51048-2.63569 4.11772 0 4.11772Z" fill="#DBC288" transform="matrix(-1.0192 0 0 1 138.003 -201.516)"/><path d="M0 0 0 4.11772 0.378884 4.11772 2.73621 1.32584 2.73621 4.11772 3.37129 4.11772 3.37129 0 3.03674 0 0.635082 2.81354 0.635082 0Z" fill="#DBC288" transform="matrix(-1.0192 0 0 1 145.738 -201.516)"/><path d="M0 0 0-0.623741-3.05891-0.623741-3.05891 0-1.85576 0-1.85576 3.49398-1.20315 3.49398-1.20315 0Z" fill="#DBC288" transform="matrix(-1.0192 0 0 1 147.126 -200.893)"/><path d="M0 0 0-21.3521C-5.04509-22.3784-10.3335-22.2861-15.3162-21.0989ZM-16.3951 28.6389C-7.16375 28.04 0 20.435 0 11.1253L0 5.05231-16.3951-17.5328ZM2.96663 9.13962 2.96663 11.1253C2.96663 22.0913-5.50336 31.0077-16.3951 31.6123L-16.3951 47.6533C-13.3697 48.4775-10.2412 48.8951-7.07714 48.8951 4.09401 48.8951 14.7166 43.5351 21.4062 34.5408ZM2.96663-20.6133 2.96663 4.08834 23.1774 31.9288C26.5972 26.3615 28.4019 19.9746 28.4019 13.4151 28.4019-2.27073 17.972-16.1786 2.96663-20.6133M-42.5572 13.4151C-42.5572 28.2606-33.2629 41.5556-19.3633 46.6982L-19.3633 31.5649C-29.8891 30.6412-38.0745 21.7438-38.0745 11.1253L-38.0745-3.82699C-41.0123 1.43357-42.5572 7.36015-42.5572 13.4151M-35.1079 11.1253C-35.1079 20.0958-28.2312 27.6724-19.3633 28.5854L-19.3633-19.8679C-25.5801-17.5678-31.0103-13.5826-35.1079-8.30864ZM-37.9859-9.46283-37.792-9.71644C-36.7136-11.1444-35.5259-12.5084-34.2635-13.7702-27.0028-21.0325-17.3478-25.0316-7.07714-25.0316 3.19294-25.0316 12.8475-21.0325 20.1082-13.7702 27.3709-6.50959 31.3696 3.14499 31.3696 13.4151 31.3696 23.6847 27.3709 33.3392 20.1082 40.6009 12.847 47.8631 3.1919 51.8617-7.07714 51.8617-17.3472 51.8617-27.0018 47.8631-34.2635 40.6009-41.5262 33.3392-45.5244 23.6847-45.5244 13.4151-45.5244 5.08221-42.918-2.82849-37.9859-9.46283" fill="#231F20" transform="matrix(-1.0192 0 0 1 298.763 -239.045)"/><path d="M0 0-3.31304 0-1.66554-4.58012ZM-4.01926 2.2264 0.723746 2.2264 1.82844 5.26778 4.4533 5.26778-0.724261-8.11019-2.62539-8.11019-7.74831 5.26778-5.12292 5.26778Z" fill="#231F20" transform="matrix(-1.0192 0 0 1 271.34 -165.773)"/><path d="M0 0 0-8.58082-2.48053-8.58082-2.48053-0.21702C-2.48053 1.70163-3.53058 2.62487-5.12344 2.62487-6.7163 2.62487-7.76635 1.6475-7.76635-0.21702L-7.76635-8.58082-10.2649-8.58082-10.2649 0C-10.2649 3.40325-7.96533 5.03271-5.12344 5.03271-2.31764 5.03271 0 3.40325 0 0" fill="#231F20" transform="matrix(-1.0192 0 0 1 283.424 -165.302)"/><path d="M0 0-2.24443 0C-3.85586 0-4.47186-0.95984-4.47186-1.9372-4.47186-2.95065-3.80173-3.83781-2.51661-3.83781L0-3.83781ZM-1.6475 2.2264 0 2.2264 0 7.24106 2.46197 7.24106 2.46197-6.13689-2.51661-6.13689C-5.57552-6.13689-7.00601-4.12752-7.00601-1.95525-7.00601-0.325788-6.15493 1.30316-4.19968 1.93669L-7.56737 7.24106-4.63424 7.24106Z" fill="#231F20" transform="matrix(-1.0192 0 0 1 302.321 -167.747)"/><path d="M0 0 0-8.58082-2.48053-8.58082-2.48053-0.21702C-2.48053 1.70163-3.53006 2.62487-5.12292 2.62487-6.7163 2.62487-7.76584 1.6475-7.76584-0.21702L-7.76584-8.58082-10.2644-8.58082-10.2644 0C-10.2644 3.40325-7.96533 5.03271-5.12292 5.03271-2.31713 5.03271 0 3.40325 0 0" fill="#231F20" transform="matrix(-1.0192 0 0 1 314.925 -165.302)"/><path d="M0 0-1.55678 0-6.91528 7.80244-12.2558 0-13.8306 0-13.8306 13.378-11.3691 13.378-11.3691 5.44872-7.31376 11.3145-6.49876 11.3145-2.44393 5.44872-2.44393 13.378 0 13.378Z" fill="#231F20" transform="matrix(-1.0192 0 0 1 331.316 -173.883)"/><path d="M0 0-0.687147 0-1.62379 2.91972-2.65992 0-2.99808 0-4.05638 2.91972-4.97653 0-5.66367 0-4.27804 4.09452-3.85173 4.09452-2.83724 1.15779-1.82896 4.09452-1.39131 4.09452Z" fill="#231F20" transform="matrix(-1.0192 0 0 1 266.719 -156.142)"/><path d="M0 0-2.61507 0-2.61507 0.604153-0.637144 0.604153-0.637144 1.7176-2.47125 1.7176-2.47125 2.32176-0.637144 2.32176-0.637144 3.49037-2.62126 3.49037-2.62126 4.09452 0 4.09452Z" fill="#231F20" transform="matrix(-1.0192 0 0 1 273.846 -156.142)"/><path d="M0 0-1.10779 0-0.553635-1.48512ZM-1.30213 0.587657 0.204649 0.587657 0.592812 1.59596 1.27996 1.59596-0.349501-2.49908-0.764985-2.49908-2.37744 1.59596-1.68977 1.59596Z" fill="#231F20" transform="matrix(-1.0192 0 0 1 278.977 -153.643)"/><path d="M0 0-0.637144 0-0.637144 3.47955-2.79808 3.47955-2.79808 4.09452 0 4.09452Z" fill="#231F20" transform="matrix(-1.0192 0 0 1 282.763 -156.142)"/><path d="M0 0 0-0.620648-3.04138-0.620648-3.04138 0-1.84493 0-1.84493 3.47388-1.19645 3.47388-1.19645 0Z" fill="#231F20" transform="matrix(-1.0192 0 0 1 285.919 -155.522)"/><path d="M0 0-0.636629 0-0.636629 1.70112-2.58776 1.70112-2.58776 0-3.2249 0-3.2249 4.09452-2.58776 4.09452-2.58776 2.31609-0.636629 2.31609-0.636629 4.09452 0 4.09452Z" fill="#231F20" transform="matrix(-1.0192 0 0 1 290.399 -156.142)"/><path d="M0 0-0.348986 0-2.06711 2.50991-3.77338 0-4.13422 0-4.13422 4.09452-3.49088 4.09452-3.49088 1.47378-2.15577 3.4249-1.9671 3.4249-0.631989 1.47378-0.631989 4.09452 0 4.09452Z" fill="#231F20" transform="matrix(-1.0192 0 0 1 297.678 -156.142)"/><path d="M0 0-2.61507 0-2.61507 0.604153-0.637144 0.604153-0.637144 1.7176-2.47125 1.7176-2.47125 2.32176-0.637144 2.32176-0.637144 3.49037-2.62126 3.49037-2.62126 4.09452 0 4.09452Z" fill="#231F20" transform="matrix(-1.0192 0 0 1 303.687 -156.142)"/><path d="M0 0 0 4.09452 0.376306 4.09452 2.72075 1.31862 2.72075 4.09452 3.35222 4.09452 3.35222 0 3.01973 0 0.631989 2.79808 0.631989 0Z" fill="#231F20" transform="matrix(-1.0192 0 0 1 311.389 -156.142)"/><path d="M0 0-1.10779 0-0.553635-1.48512ZM-1.30161 0.587657 0.205165 0.587657 0.592812 1.59596 1.27996 1.59596-0.348986-2.49908-0.76447-2.49908-2.37744 1.59596-1.68977 1.59596Z" fill="#231F20" transform="matrix(-1.0192 0 0 1 314.047 -153.643)"/><path d="M0 0C0-1.24697-0.963964-2.12227-2.13876-2.12227-2.83673-2.12227-3.46872-1.81761-3.82904-1.39697L-3.39089-0.96448C-3.08108-1.30213-2.63776-1.50213-2.14392-1.50213-1.30213-1.50213-0.653639-0.870145-0.653639 0-0.653639 0.858804-1.29078 1.49028-2.12794 1.49028-2.60941 1.49028-3.06973 1.27945-3.37491 0.958294L-3.37491 0.226815-2.08361 0.226815-2.08361-0.349501-3.9672-0.349501-3.9672 1.25728C-3.46357 1.8171-2.80941 2.10526-2.11144 2.10526-0.88664 2.10526 0 1.21347 0 0" fill="#231F20" transform="matrix(-1.0192 0 0 1 317.42 -154.091)"/><path d="M0 0-2.61507 0-2.61507 0.604153-0.637144 0.604153-0.637144 1.7176-2.47125 1.7176-2.47125 2.32176-0.637144 2.32176-0.637144 3.49037-2.62074 3.49037-2.62074 4.09452 0 4.09452Z" fill="#231F20" transform="matrix(-1.0192 0 0 1 323.061 -156.142)"/><path d="M0 0-0.349501 0-2.06711 2.50991-3.77338 0-4.13422 0-4.13422 4.09452-3.49088 4.09452-3.49088 1.47378-2.15577 3.4249-1.9671 3.4249-0.631989 1.47378-0.631989 4.09452 0 4.09452Z" fill="#231F20" transform="matrix(-1.0192 0 0 1 327.335 -156.142)"/><path d="M0 0-2.61507 0-2.61507 0.604153-0.637144 0.604153-0.637144 1.7176-2.47125 1.7176-2.47125 2.32176-0.637144 2.32176-0.637144 3.49037-2.62126 3.49037-2.62126 4.09452 0 4.09452Z" fill="#231F20" transform="matrix(-1.0192 0 0 1 333.344 -156.142)"/><path d="M0 0 0 4.09452 0.376823 4.09452 2.72127 1.31862 2.72127 4.09452 3.35274 4.09452 3.35274 0 3.02025 0 0.632504 2.79808 0.632504 0Z" fill="#231F20" transform="matrix(-1.0192 0 0 1 341.046 -156.142)"/><path d="M0 0 0-0.620648-3.04138-0.620648-3.04138 0-1.84493 0-1.84493 3.47388-1.19645 3.47388-1.19645 0Z" fill="#231F20" transform="matrix(-1.0192 0 0 1 342.424 -155.522)"/><path d="M0 0 0-21.4717C-5.07292-22.5037-10.3907-22.4109-15.4013-21.2165ZM-16.4863 28.7993C-7.20395 28.1967 0 20.5495 0 11.1877L0 5.08066-16.4863-17.6307ZM2.98365 9.19116 2.98365 11.1877C2.98365 22.2149-5.53326 31.1808-16.4863 31.7891L-16.4863 47.9198C-13.4434 48.7488-10.2984 49.1683-7.11632 49.1683 4.11772 49.1683 14.7991 43.7784 21.5263 34.7342ZM2.98365-20.7289 2.98365 4.11154 23.3078 32.1078C26.7461 26.5095 28.5607 20.0865 28.5607 13.4903 28.5607-2.28361 18.0735-16.2693 2.98365-20.7289M-42.7948 13.4903C-42.7948 28.4189-33.449 41.7881-19.4706 46.9595L-19.4706 31.7417C-30.0561 30.8123-38.2869 21.8655-38.2869 11.1877L-38.2869-3.84812C-41.2407 1.44182-42.7948 7.40138-42.7948 13.4903M-35.3038 11.1877C-35.3038 20.2082-28.3885 27.8271-19.4706 28.7457L-19.4706-19.9788C-25.7224-17.6663-31.1834-13.6589-35.3038-8.35504ZM-38.1982-9.51541-38.0034-9.77057C-36.9183-11.2067-35.7244-12.5784-34.4548-13.847-27.1534-21.15-17.4447-25.1713-7.11632-25.1713 3.21098-25.1713 12.9196-21.15 20.2216-13.847 27.5245-6.54568 31.5453 3.16304 31.5453 13.4903 31.5453 23.8171 27.5245 33.5258 20.2216 40.8277 12.9192 48.1311 3.21047 52.152-7.11632 52.152-17.4441 52.152-27.1523 48.1311-34.4548 40.8277-41.7577 33.5258-45.779 23.8171-45.779 13.4903-45.779 5.11056-43.1577-2.84446-38.1982-9.51541" fill="#231F20" transform="matrix(-1.0192 0 0 1 492.108 -226.039)"/><path d="M0 0-3.33161 0-1.67482-4.60589ZM-4.04143 2.23877 0.72787 2.23877 1.83823 5.29716 4.47856 5.29716-0.728386-8.15555-2.63982-8.15555-7.79161 5.29716-5.15179 5.29716Z" fill="#231F20" transform="matrix(-1.0192 0 0 1 557.008 -211.201)"/><path d="M0 0 0-8.62877-2.49445-8.62877-2.49445-0.218567C-2.49445 1.71142-3.55017 2.63982-5.15179 2.63982-6.75445 2.63982-7.80966 1.65627-7.80966-0.218567L-7.80966-8.62877-10.3216-8.62877-10.3216 0C-10.3216 3.42233-8.01018 5.06106-5.15179 5.06106-2.33053 5.06106 0 3.42233 0 0" fill="#231F20" transform="matrix(-1.0192 0 0 1 569.157 -210.728)"/><path d="M0 0-2.25733 0C-3.87699 0-4.49661-0.964995-4.49661-1.94803-4.49661-2.96715-3.82286-3.85946-2.53001-3.85946L0-3.85946ZM-1.65679 2.23928 0 2.23928 0 7.28179 2.4759 7.28179 2.4759-6.17143-2.53001-6.17143C-5.60697-6.17143-7.04518-4.15072-7.04518-1.96607-7.04518-0.327851-6.18947 1.31038-4.22288 1.94752L-7.60964 7.28179-4.66002 7.28179Z" fill="#231F20" transform="matrix(-1.0192 0 0 1 588.162 -213.185)"/><path d="M0 0 0-8.62877-2.49445-8.62877-2.49445-0.218567C-2.49445 1.71142-3.55017 2.63982-5.15179 2.63982-6.75393 2.63982-7.80966 1.65627-7.80966-0.218567L-7.80966-8.62877-10.3216-8.62877-10.3216 0C-10.3216 3.42233-8.01018 5.06106-5.15179 5.06106-2.33053 5.06106 0 3.42233 0 0" fill="#231F20" transform="matrix(-1.0192 0 0 1 600.832 -210.728)"/><path d="M0 0-1.56503 0-6.95343 7.84574-12.3243 0-13.9079 0-13.9079 13.4532-11.4325 13.4532-11.4325 5.47913-7.35447 11.3778-6.53536 11.3778-2.45785 5.47913-2.45785 13.4532 0 13.4532Z" fill="#231F20" transform="matrix(-1.0192 0 0 1 617.309 -219.356)"/><path d="M0 0-0.690755 0-1.63307 2.93622-2.67435 0-3.01458 0-4.07854 2.93622-5.00436 0-5.69512 0-4.30226 4.11772-3.87287 4.11772-2.85271 1.16449-1.83874 4.11772-1.39904 4.11772Z" fill="#231F20" transform="matrix(-1.0192 0 0 1 552.355 -201.516)"/><path d="M0 0-2.63002 0-2.63002 0.607246-0.640752 0.607246-0.640752 1.7274-2.48465 1.7274-2.48465 2.33464-0.640752 2.33464-0.640752 3.51048-2.63517 3.51048-2.63517 4.11772 0 4.11772Z" fill="#231F20" transform="matrix(-1.0192 0 0 1 559.525 -201.516)"/><path d="M0 0-1.11397 0-0.556728-1.49337ZM-1.30883 0.59075 0.206711 0.59075 0.59642 1.60471 1.28769 1.60471-0.351048-2.51301-0.768593-2.51301-2.39032 1.60471-1.69905 1.60471Z" fill="#231F20" transform="matrix(-1.0192 0 0 1 564.688 -199.003)"/><path d="M0 0-0.640752 0-0.640752 3.49913-2.81406 3.49913-2.81406 4.11772 0 4.11772Z" fill="#231F20" transform="matrix(-1.0192 0 0 1 568.485 -201.516)"/><path d="M0 0 0-0.623741-3.05891-0.623741-3.05891 0-1.85576 0-1.85576 3.49398-1.20315 3.49398-1.20315 0Z" fill="#231F20" transform="matrix(-1.0192 0 0 1 571.663 -200.893)"/><path d="M0 0-0.640752 0-0.640752 1.71039-2.60271 1.71039-2.60271 0-3.24293 0-3.24293 4.11772-2.60271 4.11772-2.60271 2.32949-0.640752 2.32949-0.640752 4.11772 0 4.11772Z" fill="#231F20" transform="matrix(-1.0192 0 0 1 576.165 -201.516)"/><path d="M0 0-0.351048 0-2.07845 2.52383-3.79451 0-4.1569 0-4.1569 4.11772-3.511 4.11772-3.511 1.48203-2.16763 3.44347-1.97845 3.44347-0.635082 1.48203-0.635082 4.11772 0 4.11772Z" fill="#231F20" transform="matrix(-1.0192 0 0 1 583.487 -201.516)"/><path d="M0 0-2.63002 0-2.63002 0.607246-0.640752 0.607246-0.640752 1.7274-2.48465 1.7274-2.48465 2.33464-0.640752 2.33464-0.640752 3.51048-2.63517 3.51048-2.63517 4.11772 0 4.11772Z" fill="#231F20" transform="matrix(-1.0192 0 0 1 589.54 -201.516)"/><path d="M0 0 0 4.11772 0.378884 4.11772 2.73621 1.32584 2.73621 4.11772 3.37129 4.11772 3.37129 0 3.03726 0 0.635082 2.81354 0.635082 0Z" fill="#231F20" transform="matrix(-1.0192 0 0 1 597.274 -201.516)"/><path d="M0 0-1.11397 0-0.556728-1.49337ZM-1.30883 0.59075 0.206196 0.59075 0.59642 1.60471 1.28718 1.60471-0.351048-2.51301-0.768593-2.51301-2.39032 1.60471-1.69905 1.60471Z" fill="#231F20" transform="matrix(-1.0192 0 0 1 599.953 -199.003)"/><path d="M0 0C0-1.25418-0.969634-2.13412-2.15114-2.13412-2.85271-2.13412-3.48883-1.82741-3.8507-1.40419L-3.41047-0.969634C-3.09809-1.30934-2.6527-1.51038-2.1568-1.51038-1.30986-1.51038-0.657248-0.874784-0.657248 0-0.657248 0.863443-1.29851 1.49853-2.13979 1.49853-2.62487 1.49853-3.08674 1.28718-3.39346 0.963964L-3.39346 0.228361-2.09494 0.228361-2.09494-0.351048-3.98937-0.351048-3.98937 1.26501C-3.48315 1.82741-2.82488 2.11711-2.12279 2.11711-0.89128 2.11711 0 1.22017 0 0" fill="#231F20" transform="matrix(-1.0192 0 0 1 603.348 -199.455)"/><path d="M0 0-2.63002 0-2.63002 0.607246-0.640237 0.607246-0.640237 1.7274-2.48465 1.7274-2.48465 2.33464-0.640237 2.33464-0.640237 3.51048-2.63517 3.51048-2.63517 4.11772 0 4.11772Z" fill="#231F20" transform="matrix(-1.0192 0 0 1 609.011 -201.516)"/><path d="M0 0-0.351048 0-2.07793 2.52383-3.79451 0-4.1569 0-4.1569 4.11772-3.51048 4.11772-3.51048 1.48203-2.16712 3.44347-1.97793 3.44347-0.634566 1.48203-0.634566 4.11772 0 4.11772Z" fill="#231F20" transform="matrix(-1.0192 0 0 1 613.317 -201.516)"/><path d="M0 0-2.63002 0-2.63002 0.607246-0.640752 0.607246-0.640752 1.7274-2.48517 1.7274-2.48517 2.33464-0.640752 2.33464-0.640752 3.51048-2.63569 3.51048-2.63569 4.11772 0 4.11772Z" fill="#231F20" transform="matrix(-1.0192 0 0 1 619.359 -201.516)"/><path d="M0 0 0 4.11772 0.378884 4.11772 2.73673 1.32584 2.73673 4.11772 3.37129 4.11772 3.37129 0 3.03726 0 0.635597 2.81354 0.635597 0Z" fill="#231F20" transform="matrix(-1.0192 0 0 1 627.104 -201.516)"/><path d="M0 0 0-0.623741-3.05891-0.623741-3.05891 0-1.85576 0-1.85576 3.49398-1.20315 3.49398-1.20315 0Z" fill="#231F20" transform="matrix(-1.0192 0 0 1 628.493 -200.893)"/><path d="M0 0 0-14.2702C-3.37181-14.9564-6.906-14.8945-10.2361-14.1007ZM-10.9567 19.1401C-4.78786 18.7396 0 13.6569 0 7.43541L0 3.37645-10.9567-11.7176ZM1.98308 6.10802 1.98308 7.43541C1.98308 14.7641-3.6775 20.7226-10.9567 21.1268L-10.9567 31.8474C-8.93496 32.399-6.84414 32.6773-4.72961 32.6773 2.73673 32.6773 9.83552 29.0952 14.3064 23.0841ZM1.98308-13.7769 1.98308 2.73208 15.4899 21.3386C17.7756 17.6178 18.9819 13.3491 18.9819 8.96589 18.9819-1.5176 12.0114-10.8129 1.98308-13.7769M-28.4416 8.96589C-28.4416 18.887-22.2304 27.7724-12.9403 31.2092L-12.9403 21.0954C-19.9752 20.4783-25.4461 14.5317-25.4461 7.43541L-25.4461-2.55786C-27.409 0.957777-28.4416 4.91879-28.4416 8.96589M-23.4635 7.43541C-23.4635 13.4305-18.8674 18.4937-12.9403 19.1046L-12.9403-13.2785C-17.0957-11.7408-20.7247-9.07775-23.4635-5.55284ZM-25.3868-6.32453-25.2573-6.49413C-24.5362-7.4483-23.7429-8.36019-22.8985-9.20353-18.0462-14.0568-11.5939-16.7292-4.72961-16.7292 2.13412-16.7292 8.58649-14.0568 13.4388-9.20353 18.2926-4.35021 20.9649 2.10164 20.9649 8.96589 20.9649 15.8286 18.2926 22.2815 13.4388 27.1343 8.58597 31.9882 2.13361 34.6599-4.72961 34.6599-11.5934 34.6599-18.0457 31.9882-22.8985 27.1343-27.7523 22.2815-30.4247 15.8286-30.4247 8.96589-30.4247 3.39655-28.6828-1.89029-25.3868-6.32453" fill="#DBC288" transform="matrix(-1.0192 0 0 1 -180.156 18.4687)"/><path d="M0 0-2.21402 0-1.11294-3.06098ZM-2.6857 1.48822 0.484044 1.48822 1.22222 3.52078 2.97643 3.52078-0.484044-5.42037-1.75421-5.42037-5.17808 3.52078-3.42387 3.52078Z" fill="#DBC288" transform="matrix(-1.0192 0 0 1 -198.481 67.4374)"/><path d="M0 0 0-5.73481-1.65729-5.73481-1.65729-0.145368C-1.65729 1.13717-2.35939 1.7537-3.42387 1.7537-4.48888 1.7537-5.18994 1.10108-5.18994-0.145368L-5.18994-5.73481-6.86012-5.73481-6.86012 0C-6.86012 2.27433-5.32346 3.36304-3.42387 3.36304-1.54853 3.36304 0 2.27433 0 0" fill="#DBC288" transform="matrix(-1.0192 0 0 1 -190.404 67.7521)"/><path d="M0 0-1.50007 0C-2.57693 0-2.98828-0.641268-2.98828-1.29491-2.98828-1.97175-2.54084-2.56508-1.68152-2.56508L0-2.56508ZM-1.10108 1.48822 0 1.48822 0 4.83992 1.64544 4.83992 1.64544-4.10122-1.68152-4.10122C-3.72647-4.10122-4.68218-2.7589-4.68218-1.30676-4.68218-0.218052-4.1136 0.87066-2.80683 1.29439L-5.05746 4.83992-3.09706 4.83992Z" fill="#DBC288" transform="matrix(-1.0192 0 0 1 -177.777 66.1184)"/><path d="M0 0 0-5.73481-1.65729-5.73481-1.65729-0.145368C-1.65729 1.13717-2.35939 1.7537-3.42387 1.7537-4.48888 1.7537-5.18994 1.10108-5.18994-0.145368L-5.18994-5.73481-6.86012-5.73481-6.86012 0C-6.86012 2.27433-5.32346 3.36304-3.42387 3.36304-1.54853 3.36304 0 2.27433 0 0" fill="#DBC288" transform="matrix(-1.0192 0 0 1 -169.355 67.7521)"/><path d="M0 0-1.04026 0-4.62136 5.21417-8.1906 0-9.24323 0-9.24323 8.94115-7.59779 8.94115-7.59779 3.64141-4.88787 7.56171-4.34351 7.56171-1.63307 3.64141-1.63307 8.94115 0 8.94115Z" fill="#DBC288" transform="matrix(-1.0192 0 0 1 -158.404 62.0171)"/><path d="M0 0 0-14.313C-3.38161-15.0007-6.92662-14.9388-10.267-14.143ZM-10.9897 19.1978C-4.80178 18.7962 0 13.6986 0 7.45809L0 3.38676-10.9897-11.7526ZM1.98875 6.1271 1.98875 7.45809C1.98875 14.8089-3.68884 20.7855-10.9897 21.1907L-10.9897 31.9438C-8.96177 32.4965-6.86476 32.7758-4.74405 32.7758 2.74498 32.7758 9.86542 29.1828 14.3492 23.1542ZM1.98875-13.8177 1.98875 2.74033 15.5368 21.4031C17.8287 17.671 19.0385 13.3898 19.0385 8.9927 19.0385-1.52223 12.0474-10.8448 1.98875-13.8177M-28.5267 8.9927C-28.5267 18.9442-22.2969 27.856-12.9794 31.3035L-12.9794 21.1593C-20.0355 20.5397-25.5223 14.5754-25.5223 7.45809L-25.5223-2.56508C-27.491 0.960871-28.5267 4.93374-28.5267 8.9927M-23.5336 7.45809C-23.5336 13.4713-18.9236 18.5493-12.9794 19.1618L-12.9794-13.3177C-17.1467-11.7763-20.787-9.10456-23.5336-5.56934ZM-25.4631-6.34309-25.3332-6.5132C-24.6099-7.46995-23.8141-8.38494-22.9676-9.23034-18.1004-14.0986-11.6289-16.7792-4.74405-16.7792 2.14031-16.7792 8.61227-14.0986 13.4795-9.23034 18.3478-4.36361 21.0278 2.10834 21.0278 8.9927 21.0278 15.8765 18.3478 22.3485 13.4795 27.2162 8.61175 32.084 2.13979 34.7645-4.74405 34.7645-11.6284 34.7645-18.0999 32.084-22.9676 27.2162-27.8359 22.3485-30.5164 15.8765-30.5164 8.9927-30.5164 3.40687-28.7689-1.89597-25.4631-6.34309" fill="#DBC288" transform="matrix(-1.0192 0 0 1 28.6079 25.3092)"/><path d="M0 0-2.22072 0-1.11654-3.07025ZM-2.69394 1.49285 0.485074 1.49285 1.22532 3.53161 2.9852 3.53161-0.485591-5.43635-1.75988-5.43635-5.19407 3.53161-3.43419 3.53161Z" fill="#DBC288" transform="matrix(-1.0192 0 0 1 71.8664 35.2003)"/><path d="M0 0 0-5.75183-1.66245-5.75183-1.66245-0.145883C-1.66245 1.14077-2.36609 1.75936-3.43419 1.75936-4.50176 1.75936-5.20592 1.10418-5.20592-0.145883L-5.20592-5.75183-6.88074-5.75183-6.88074 0C-6.88074 2.28155-5.33943 3.37336-3.43419 3.37336-1.55316 3.37336 0 2.28155 0 0" fill="#DBC288" transform="matrix(-1.0192 0 0 1 79.9673 35.5159)"/><path d="M0 0-1.50471 0C-2.58466 0-2.99705-0.64333-2.99705-1.29903-2.99705-1.97845-2.54806-2.57281-1.68668-2.57281L0-2.57281ZM-1.10418 1.49234 0 1.49234 0 4.85384 1.65059 4.85384 1.65059-4.1136-1.68668-4.1136C-3.7373-4.1136-4.6961-2.76715-4.6961-1.31089-4.6961-0.218567-4.12597 0.873238-2.81508 1.29851L-5.07241 4.85384-3.10634 4.85384Z" fill="#DBC288" transform="matrix(-1.0192 0 0 1 92.6317 33.8776)"/><path d="M0 0 0-5.75183-1.66245-5.75183-1.66245-0.145883C-1.66245 1.14077-2.36609 1.75936-3.43419 1.75936-4.50228 1.75936-5.20592 1.10418-5.20592-0.145883L-5.20592-5.75183-6.88074-5.75183-6.88074 0C-6.88074 2.28155-5.33943 3.37336-3.43419 3.37336-1.55316 3.37336 0 2.28155 0 0" fill="#DBC288" transform="matrix(-1.0192 0 0 1 101.08 35.5159)"/><path d="M0 0-1.04335 0-4.63527 5.23015-8.21535 0-9.27106 0-9.27106 8.96744-7.62047 8.96744-7.62047 3.65224-4.9023 7.58439-4.35639 7.58439-1.63822 3.65224-1.63822 8.96744 0 8.96744Z" fill="#DBC288" transform="matrix(-1.0192 0 0 1 112.063 29.764)"/><path d="M0 0 0-14.2702C-3.37129-14.9564-6.90549-14.8945-10.2355-14.1007ZM-10.9567 19.1401C-4.78734 18.7396 0 13.6569 0 7.43541L0 3.37645-10.9567-11.7176ZM1.98308 6.10802 1.98308 7.43541C1.98308 14.7641-3.6775 20.7226-10.9567 21.1268L-10.9567 31.8474C-8.93445 32.399-6.84414 32.6773-4.72961 32.6773 2.73725 32.6773 9.83604 29.0952 14.3069 23.0841ZM1.98308-13.7769 1.98308 2.73208 15.4904 21.3386C17.7756 17.6178 18.9819 13.3491 18.9819 8.96589 18.9819-1.5176 12.0119-10.8129 1.98308-13.7769M-28.4416 8.96589C-28.4416 18.887-22.2304 27.7724-12.9403 31.2092L-12.9403 21.0954C-19.9752 20.4783-25.4456 14.5317-25.4456 7.43541L-25.4456-2.55786C-27.4085 0.957777-28.4416 4.91879-28.4416 8.96589M-23.463 7.43541C-23.463 13.4305-18.8674 18.4937-12.9403 19.1046L-12.9403-13.2785C-17.0952-11.7408-20.7247-9.07775-23.463-5.55284ZM-25.3868-6.32453-25.2569-6.49413C-24.5362-7.4483-23.7429-8.36019-22.8985-9.20353-18.0462-14.0568-11.5939-16.7292-4.72961-16.7292 2.13464-16.7292 8.58649-14.0568 13.4388-9.20353 18.2926-4.35021 20.9655 2.10164 20.9655 8.96589 20.9655 15.8286 18.2926 22.2815 13.4388 27.1343 8.58597 31.9882 2.13412 34.6599-4.72961 34.6599-11.5928 34.6599-18.0457 31.9882-22.8985 27.1343-27.7523 22.2815-30.4247 15.8286-30.4247 8.96589-30.4247 3.39655-28.6828-1.89029-25.3868-6.32453" fill="#231F20" transform="matrix(-1.0192 0 0 1 304.067 18.4687)"/><path d="M0 0-2.21402 0-1.11294-3.06098ZM-2.6857 1.48822 0.483529 1.48822 1.2217 3.52078 2.97592 3.52078-0.483529-5.42037-1.75421-5.42037-5.17808 3.52078-3.42439 3.52078Z" fill="#231F20" transform="matrix(-1.0192 0 0 1 285.735 67.4374)"/><path d="M0 0 0-5.73481-1.65781-5.73481-1.65781-0.145368C-1.65781 1.13717-2.35939 1.7537-3.42439 1.7537-4.48888 1.7537-5.19045 1.10108-5.19045-0.145368L-5.19045-5.73481-6.86064-5.73481-6.86064 0C-6.86064 2.27433-5.32346 3.36304-3.42439 3.36304-1.54904 3.36304 0 2.27433 0 0" fill="#231F20" transform="matrix(-1.0192 0 0 1 293.816 67.7521)"/><path d="M0 0-1.50007 0C-2.57693 0-2.98828-0.641268-2.98828-1.29491-2.98828-1.97175-2.54084-2.56508-1.68204-2.56508L0-2.56508ZM-1.10108 1.48822 0 1.48822 0 4.83992 1.64544 4.83992 1.64544-4.10122-1.68204-4.10122C-3.72647-4.10122-4.68218-2.7589-4.68218-1.30676-4.68218-0.218052-4.1136 0.87066-2.80683 1.29439L-5.05746 4.83992-3.09757 4.83992Z" fill="#231F20" transform="matrix(-1.0192 0 0 1 306.443 66.1184)"/><path d="M0 0 0-5.73481-1.65781-5.73481-1.65781-0.145368C-1.65781 1.13717-2.35939 1.7537-3.42439 1.7537-4.48888 1.7537-5.19045 1.10108-5.19045-0.145368L-5.19045-5.73481-6.86012-5.73481-6.86012 0C-6.86012 2.27433-5.32346 3.36304-3.42439 3.36304-1.54904 3.36304 0 2.27433 0 0" fill="#231F20" transform="matrix(-1.0192 0 0 1 314.86 67.7521)"/><path d="M0 0-1.04026 0-4.62136 5.21417-8.1906 0-9.24323 0-9.24323 8.94115-7.59779 8.94115-7.59779 3.64141-4.88735 7.56171-4.34351 7.56171-1.63307 3.64141-1.63307 8.94115 0 8.94115Z" fill="#231F20" transform="matrix(-1.0192 0 0 1 325.816 62.0171)"/><path d="M0 0 0-14.313C-3.38212-15.0007-6.92713-14.9388-10.2665-14.143ZM-10.9897 19.1978C-4.80178 18.7962 0 13.6986 0 7.45809L0 3.38676-10.9897-11.7526ZM1.98875 6.1271 1.98875 7.45809C1.98875 14.8089-3.68884 20.7855-10.9897 21.1907L-10.9897 31.9438C-8.96177 32.4965-6.86476 32.7758-4.74353 32.7758 2.74446 32.7758 9.86542 29.1828 14.3492 23.1542ZM1.98875-13.8177 1.98875 2.74033 15.5368 21.4031C17.8287 17.671 19.0391 13.3898 19.0391 8.9927 19.0391-1.52223 12.0474-10.8448 1.98875-13.8177M-28.5271 8.9927C-28.5271 18.9442-22.2974 27.856-12.9794 31.3035L-12.9794 21.1593C-20.0355 20.5397-25.5223 14.5754-25.5223 7.45809L-25.5223-2.56508C-27.491 0.960871-28.5271 4.93374-28.5271 8.9927M-23.5336 7.45809C-23.5336 13.4713-18.9241 18.5493-12.9794 19.1618L-12.9794-13.3177C-17.1472-11.7763-20.787-9.10456-23.5336-5.56934ZM-25.4631-6.34309-25.3332-6.5132C-24.6099-7.46995-23.8141-8.38494-22.9676-9.23034-18.1004-14.0986-11.6289-16.7792-4.74353-16.7792 2.14031-16.7792 8.61227-14.0986 13.479-9.23034 18.3478-4.36361 21.0278 2.10834 21.0278 8.9927 21.0278 15.8765 18.3478 22.3485 13.479 27.2162 8.61175 32.084 2.13979 34.7645-4.74353 34.7645-11.6284 34.7645-18.0999 32.084-22.9676 27.2162-27.8359 22.3485-30.5164 15.8765-30.5164 8.9927-30.5164 3.40687-28.7694-1.89597-25.4631-6.34309" fill="#231F20" transform="matrix(-1.0192 0 0 1 512.826 25.3092)"/><path d="M0 0-2.22124 0-1.11654-3.07025ZM-2.69445 1.49285 0.485074 1.49285 1.22532 3.53161 2.9852 3.53161-0.485591-5.43635-1.75988-5.43635-5.19407 3.53161-3.43419 3.53161Z" fill="#231F20" transform="matrix(-1.0192 0 0 1 556.086 35.2003)"/><path d="M0 0 0-5.75183-1.66297-5.75183-1.66297-0.145883C-1.66297 1.14077-2.36661 1.75936-3.43419 1.75936-4.50176 1.75936-5.20592 1.10418-5.20592-0.145883L-5.20592-5.75183-6.88074-5.75183-6.88074 0C-6.88074 2.28155-5.33943 3.37336-3.43419 3.37336-1.55368 3.37336 0 2.28155 0 0" fill="#231F20" transform="matrix(-1.0192 0 0 1 564.189 35.5159)"/><path d="M0 0-1.50471 0C-2.58466 0-2.99705-0.64333-2.99705-1.29903-2.99705-1.97845-2.54806-2.57281-1.68617-2.57281L0-2.57281ZM-1.10418 1.49234 0 1.49234 0 4.85384 1.65059 4.85384 1.65059-4.1136-1.68617-4.1136C-3.7373-4.1136-4.6961-2.76715-4.6961-1.31089-4.6961-0.218567-4.12597 0.873238-2.81508 1.29851L-5.07241 4.85384-3.10634 4.85384Z" fill="#231F20" transform="matrix(-1.0192 0 0 1 576.848 33.8776)"/><path d="M0 0 0-5.75183-1.66297-5.75183-1.66297-0.145883C-1.66297 1.14077-2.36661 1.75936-3.43419 1.75936-4.50176 1.75936-5.20643 1.10418-5.20643-0.145883L-5.20643-5.75183-6.88074-5.75183-6.88074 0C-6.88074 2.28155-5.33943 3.37336-3.43419 3.37336-1.55368 3.37336 0 2.28155 0 0" fill="#231F20" transform="matrix(-1.0192 0 0 1 585.298 35.5159)"/><path d="M0 0-1.04335 0-4.63579 5.23015-8.21586 0-9.27106 0-9.27106 8.96744-7.62099 8.96744-7.62099 3.65224-4.90282 7.58439-4.35639 7.58439-1.63874 3.65224-1.63874 8.96744 0 8.96744Z" fill="#231F20" transform="matrix(-1.0192 0 0 1 596.276 29.764)"/><text fill="#231F20" font-family="Arial,Arial_MSFontService,sans-serif" font-weight="400" font-size="30" transform="matrix(0.52539 0 0 0.515489 -237.962 -369)">V<tspan font-size="30" x="20.7" y="0">E</tspan><tspan font-size="30" x="40.8301" y="0">R</tspan><tspan font-size="30" x="60.96" y="0">S</tspan><tspan font-size="30" x="79.44" y="0">Ã</tspan><tspan font-size="30" x="102.36" y="0">O</tspan><tspan font-size="30" x="129.12" y="0"> </tspan><tspan font-size="30" x="139.26" y="0">P</tspan><tspan font-size="30" x="156.63" y="0">A</tspan><tspan font-size="30" x="179.55" y="0">R</tspan><tspan font-size="30" x="199.68" y="0">A</tspan><tspan font-size="30" x="222.6" y="0"> </tspan><tspan font-size="30" x="232.74" y="0">A</tspan><tspan font-size="30" x="255.66" y="0">P</tspan><tspan font-size="30" x="275.25" y="0">L</tspan><tspan font-size="30" x="292.62" y="0">I</tspan><tspan font-size="30" x="302.76" y="0">C</tspan><tspan font-size="30" x="325.68" y="0">A</tspan><tspan font-size="30" x="348.6" y="0">Ç</tspan><tspan font-size="30" x="371.52" y="0">Õ</tspan><tspan font-size="30" x="398.28" y="0">E</tspan><tspan font-size="30" x="418.41" y="0">S</tspan><tspan font-size="30" x="436.89" y="0"> </tspan><tspan font-size="30" x="447.03" y="0">R</tspan><tspan font-size="30" x="467.16" y="0">E</tspan><tspan font-size="30" x="487.29" y="0">D</tspan><tspan font-size="30" x="511.32" y="0">U</tspan><tspan font-size="30" x="534.24" y="0">Z</tspan><tspan font-size="30" x="553.83" y="0">I</tspan><tspan font-size="30" x="563.97" y="0">D</tspan><tspan font-size="30" x="588" y="0">A</tspan><tspan font-size="30" x="610.92" y="0">S</tspan><tspan font-size="30" x="629.4" y="0"> </tspan><tspan font-size="30" x="639.54" y="0">R</tspan><tspan font-size="30" x="659.67" y="0">G</tspan><tspan font-size="30" x="684.81" y="0">B</tspan></text></g></g></g></g></g></g></g></svg>